<!DOCTYPE svg PUBLIC "-//W3C//DTD SVG 1.1//EN" "http://www.w3.org/Graphics/SVG/1.1/DTD/svg11.dtd">
<!-- Uploaded to: SVG Repo, www.svgrepo.com, Transformed by: SVG Repo Mixer Tools -->
<svg fill="#e60a0a" height="800px" width="800px" version="1.1" id="Layer_1" xmlns="http://www.w3.org/2000/svg" xmlns:xlink="http://www.w3.org/1999/xlink" viewBox="0 0 503.749 503.749" xml:space="preserve" stroke="#e60a0a">
<g id="SVGRepo_bgCarrier" stroke-width="0"/>
<g id="SVGRepo_tracerCarrier" stroke-linecap="round" stroke-linejoin="round"/>
<g id="SVGRepo_iconCarrier"> <g> <g> <path d="M436.411,215.342c-23.409-41.564-71.151-64.453-134.429-64.453c-14.16,0-25.659,4.239-34.564,8.57 c17.416-48.925,64.067-84.111,118.902-84.111c4.633,0,8.393-3.76,8.393-8.393s-3.76-8.393-8.393-8.393 c-45.484,0-85.991,21.403-112.212,54.583c-1.032-1.922-2.098-3.911-2.258-4.205c-3.878-55.573-47.02-98.799-102.274-102.736 c-0.948-0.193-3.76-1.435-5.615-2.249c-4.768-2.107-8.956-3.895-12.817-3.911c-0.109,0-0.218-0.025-0.327-0.025 c-0.067,0-0.134-0.017-0.193-0.017c-0.546,0.017-1.016,0.235-1.519,0.352c-0.495,0.109-0.99,0.134-1.46,0.327 c-1.998,0.848-3.592,2.442-4.44,4.448c-0.193,0.462-0.218,0.948-0.327,1.427c-0.117,0.52-0.336,0.99-0.353,1.536 c0,0.067,0.017,0.134,0.017,0.193c0,0.117,0.025,0.227,0.025,0.344c0.034,3.895,1.805,7.999,3.911,12.733 c0.806,1.838,2.04,4.616,2.199,5.229c3.911,55.64,47.138,98.841,102.056,102.627c1.116,0.319,4.491,2.132,6.723,3.324 c1.016,0.554,1.897,1.007,2.82,1.486c-5.288,9.812-9.317,20.354-12.212,31.358c-0.781-0.478-1.586-0.965-2.291-1.402 c-8.393-5.212-21.068-13.094-36.117-13.094c-67.895,0-118.532,23.409-142.579,65.905c-27.463,48.539-18.063,116.09,26.473,190.221 c46.995,78.219,89.231,96.734,118.683,96.734c3.013,0,5.901-0.193,8.637-0.537c12.783-1.612,23.728-6.891,30.754-12.481 c6.799,5.422,17.291,10.542,29.62,12.28c29.654,4.146,75.986-9.099,128.638-95.962 C454.843,332.876,464.26,264.788,436.411,215.342z M166.855,36.201l74.937,74.937C203.451,104.07,173.923,74.551,166.855,36.201z M178.724,24.333c38.341,7.067,67.869,36.604,74.937,74.937L178.724,24.333z M192.867,201.25 c-46.281,0-83.934,37.653-83.934,83.934c0,4.633-3.752,8.393-8.393,8.393c-4.633,0-8.393-3.76-8.393-8.393 c0-55.539,45.19-100.721,100.721-100.721c4.642,0,8.393,3.76,8.393,8.393S197.508,201.25,192.867,201.25z M287.973,222.242 c-7.487,12.943-21.412,20.975-36.352,20.975c-14.924,0-28.857-8.033-36.335-20.967c-2.325-4.012-0.948-9.14,3.064-11.465 c4.012-2.317,9.14-0.957,11.465,3.064c4.49,7.756,12.85,12.582,21.806,12.582c8.964,0,17.324-4.826,21.823-12.599 c2.317-4.012,7.445-5.389,11.465-3.064C288.921,213.093,290.289,218.23,287.973,222.242z"/> </g> </g> </g>
</svg>