<svg width="124" height="150" viewBox="0 0 124 150" fill="none" xmlns="http://www.w3.org/2000/svg">
<g filter="url(#filter0_d_0_888)">
<path d="M96.4753 68.6796C96.8421 84.3755 88.8848 107.84 68.5781 117.41C63.4744 119.815 60.6382 117.481 54.4829 117.778C48.9831 118.043 47.2841 119.983 42.046 118.107C20.2943 110.319 10.6361 87.5073 10.2433 70.6943C9.72971 48.7137 27.7098 37.1019 52.9331 51.4456C75.8201 36.8075 95.9618 46.699 96.4753 68.6796Z" fill="#FF542F"/>
<path fill-rule="evenodd" clip-rule="evenodd" d="M52.8272 47.1369C40.3496 40.5761 28.9058 39.7204 20.247 44.1248C11.0443 48.8058 6.23565 58.783 6.51598 70.7817C6.93105 88.5472 17.0995 113.136 40.7899 121.618C44.0633 122.79 46.4398 122.8 48.7582 122.428C49.5544 122.3 50.2044 122.165 50.8158 122.039C51.9878 121.796 53.0179 121.582 54.6633 121.503C56.619 121.409 58.0273 121.611 59.6281 121.84C60.2129 121.924 60.8234 122.011 61.4957 122.089C64.0358 122.384 66.7821 122.379 70.1687 120.783C92.2707 110.368 100.592 85.1764 100.204 68.5928C99.9201 56.4262 94.1083 46.9685 84.5565 42.9C75.6194 39.0933 64.3105 40.3876 52.8272 47.1369ZM68.5789 117.41C88.8856 107.84 96.8429 84.3758 96.4762 68.6799C95.9627 46.6993 75.821 36.8078 52.934 51.4458C27.7106 37.1022 9.73059 48.714 10.2441 70.6946C10.6369 87.5076 20.2952 110.32 42.0469 118.108C45.4478 119.325 47.3568 118.935 49.7828 118.438C51.0934 118.17 52.5548 117.871 54.4838 117.778C56.8244 117.665 58.6851 117.933 60.373 118.176C63.124 118.571 65.416 118.901 68.5789 117.41Z" fill="white"/>
<path fill-rule="evenodd" clip-rule="evenodd" d="M60.2858 107.457C80.5925 97.8873 86.8911 74.4227 86.5243 58.7268C86.4169 54.1303 85.4512 50.0624 83.7815 46.637C91.3518 50.1859 96.2276 58.0079 96.4769 68.6794C96.8436 84.3753 88.8863 107.84 68.5796 117.41C65.4167 118.9 63.1247 118.571 60.3737 118.175C58.6858 117.932 56.8251 117.665 54.4844 117.778C52.5555 117.871 51.094 118.17 49.7835 118.438C47.3575 118.934 45.4485 119.325 42.0476 118.107C34.0918 115.259 27.7538 110.4 22.8953 104.561C25.2011 105.967 27.7107 107.179 30.4363 108.154C33.944 109.41 36.6086 108.955 39.6379 108.438C41.1321 108.183 42.7151 107.913 44.5319 107.825C46.8128 107.715 48.8658 107.966 50.8062 108.204C54.1021 108.607 57.0734 108.971 60.2858 107.457Z" fill="#ED4A27"/>
<path d="M84.0996 64.5534C83.8465 66.368 82.1702 67.6339 80.3556 67.3807C78.5409 67.1276 77.2751 65.4513 77.5282 63.6367C77.7814 61.822 79.4576 60.5562 81.2723 60.8093C83.0869 61.0625 84.3528 62.7387 84.0996 64.5534Z" fill="#C53622"/>
<path d="M93.0784 74.158C92.8252 75.9726 91.149 77.2385 89.3343 76.9853C87.5197 76.7322 86.2538 75.0559 86.507 73.2413C86.7601 71.4266 88.4364 70.1608 90.251 70.4139C92.0657 70.6671 93.3315 72.3433 93.0784 74.158Z" fill="#C53622"/>
<path d="M92.8873 61.5921C92.6974 62.9531 91.4402 63.9025 90.0792 63.7126C88.7182 63.5228 87.7689 62.2656 87.9587 60.9046C88.1486 59.5436 89.4058 58.5942 90.7668 58.7841C92.1278 58.9739 93.0771 60.2311 92.8873 61.5921Z" fill="#C53622"/>
<path d="M89.8157 85.6963C89.5625 87.511 87.8863 88.7768 86.0716 88.5237C84.257 88.2705 82.9911 86.5942 83.2443 84.7796C83.4974 82.965 85.1737 81.6991 86.9883 81.9523C88.803 82.2054 90.0688 83.8817 89.8157 85.6963Z" fill="#C53622"/>
<path d="M80.8369 76.0918C80.5838 77.9065 78.9075 79.1723 77.0929 78.9192C75.2782 78.666 74.0124 76.9898 74.2655 75.1751C74.5187 73.3605 76.1949 72.0946 78.0096 72.3478C79.8242 72.6009 81.0901 74.2772 80.8369 76.0918Z" fill="#C53622"/>
<path d="M84.3406 98.2738C84.0874 100.088 82.4112 101.354 80.5965 101.101C78.7819 100.848 77.516 99.1718 77.7692 97.3571C78.0223 95.5425 79.6986 94.2766 81.5132 94.5298C83.3279 94.7829 84.5937 96.4592 84.3406 98.2738Z" fill="#C53622"/>
<path d="M77.6756 88.217C77.4224 90.0316 75.7461 91.2974 73.9315 91.0443C72.1168 90.7912 70.851 89.1149 71.1041 87.3002C71.3573 85.4856 73.0336 84.2197 74.8482 84.4729C76.6629 84.726 77.9287 86.4023 77.6756 88.217Z" fill="#C53622"/>
<path d="M77.7642 105.638C77.5744 106.999 76.3172 107.948 74.9562 107.758C73.5952 107.568 72.6458 106.311 72.8357 104.95C73.0255 103.589 74.2827 102.64 75.6437 102.83C77.0047 103.019 77.9541 104.277 77.7642 105.638Z" fill="#C53622"/>
<path d="M71.5439 17.487C71.5439 17.487 75.2294 32.6837 71.3486 40.9574C66.6712 50.9294 52.5458 51.559 52.5458 51.559C52.5458 51.559 48.269 39.9018 53.9208 29.7656C58.2683 21.9685 71.5439 17.487 71.5439 17.487Z" fill="#7CD623"/>
<path fill-rule="evenodd" clip-rule="evenodd" d="M75.1681 16.6082L71.544 17.4872L70.3513 13.9539C71.3421 13.6194 72.4279 13.7163 73.3438 14.2211C74.2597 14.7258 74.9217 15.5919 75.1681 16.6082ZM68.039 18.8942C70.114 17.9699 71.544 17.4872 71.544 17.4872C71.544 17.4872 71.8961 18.9388 72.268 21.1891C73.0995 26.2196 74.0301 35.241 71.3488 40.9576C66.6713 50.9296 52.546 51.5592 52.546 51.5592C52.546 51.5592 48.2691 39.902 53.9209 29.7658C56.8416 24.5277 63.7916 20.786 68.039 18.8942ZM52.546 51.5592C49.045 52.8437 49.0445 52.8424 49.0441 52.8411L49.0407 52.8318L49.0348 52.8156L49.0186 52.7702C49.0059 52.7343 48.9894 52.6871 48.9696 52.6289C48.9299 52.5126 48.8769 52.3525 48.8142 52.1519C48.6887 51.7509 48.5236 51.1859 48.3481 50.4834C47.9981 49.0826 47.6005 47.1111 47.3988 44.7859C46.9991 40.178 47.3463 33.8995 50.6639 27.9497C53.3812 23.0764 58.5999 19.586 62.5848 17.4246C64.6587 16.2996 66.5778 15.4407 67.9785 14.8624C68.6811 14.5722 69.2592 14.3502 69.6684 14.1985C69.8732 14.1226 70.0361 14.064 70.1516 14.0232C70.2094 14.0028 70.2554 13.9868 70.2889 13.9752L70.3297 13.9612L70.3477 13.9551L70.3513 13.9539C70.3521 13.9536 70.3513 13.9539 71.544 17.4872C75.1681 16.6082 75.1679 16.6075 75.1681 16.6082L75.1701 16.6162L75.1733 16.6298L75.1837 16.6733L75.2189 16.8245C75.2484 16.9531 75.2897 17.1365 75.34 17.3694C75.4405 17.8347 75.5771 18.4991 75.7273 19.3185C76.0269 20.9528 76.3849 23.227 76.6158 25.7845C77.0585 30.6896 77.12 37.4351 74.725 42.5412C71.7628 48.8564 65.9313 51.9809 61.3972 53.5274C59.0809 54.3174 56.9462 54.752 55.3928 54.9909C54.6121 55.1109 53.9674 55.1831 53.5067 55.2259C53.276 55.2473 53.0906 55.2614 52.9564 55.2704C52.8892 55.275 52.8348 55.2782 52.7939 55.2805L52.7426 55.2832L52.7247 55.2841L52.7177 55.2844L52.7147 55.2845C52.7133 55.2846 52.712 55.2847 52.546 51.5592ZM49.045 52.8437L52.546 51.5592L52.712 55.2847C51.0883 55.357 49.6048 54.3695 49.045 52.8437Z" fill="white"/>
<path d="M68.8503 41.0142C72.3332 34.7677 70.2837 22.0633 70.2837 22.0633C59.9308 32.819 57.3247 44.7694 56.7334 49.0847C56.7334 49.0847 65.3673 47.2607 68.8503 41.0142Z" fill="#6FC21C"/>
<path d="M33.0875 35.0447C36.6725 35.9013 48.5583 46.0147 51.8905 52.312C52.1685 52.8374 53.6024 52.0151 53.3664 51.555C51.4663 45.5569 45.4054 31.399 40.5316 27.1322C34.1117 26.997 32.8857 33.6956 33.0875 35.0447Z" fill="#943D31"/>
<path fill-rule="evenodd" clip-rule="evenodd" d="M32.221 38.6718C30.7412 38.3182 29.6246 37.1012 29.3995 35.5965C29.2492 34.5919 29.3968 33.3957 29.6278 32.3874C29.8843 31.2682 30.3454 29.9333 31.1195 28.6288C32.7406 25.8969 35.7881 23.3023 40.6102 23.4039C41.4867 23.4223 42.3286 23.7489 42.9881 24.3264C44.6087 25.7451 46.1279 27.7855 47.4743 29.9059C48.8538 32.0785 50.1941 34.5648 51.4133 37.0541C53.8003 41.9277 55.8339 47.042 56.8665 50.2563C57.6326 52.22 56.5366 53.8281 56.2 54.2539C55.6973 54.8899 55.0884 55.3157 54.6001 55.5806C54.1215 55.8404 53.3868 56.148 52.4996 56.2023C51.6488 56.2544 49.6513 56.0536 48.5944 54.0562C47.2556 51.526 43.8767 47.7893 40.1012 44.4207C38.2687 42.7857 36.4589 41.3411 34.9338 40.2756C34.17 39.7421 33.5152 39.33 32.9918 39.0423C32.5187 38.7823 32.2769 38.6932 32.2271 38.6749C32.2166 38.671 32.2146 38.6703 32.221 38.6718ZM53.3665 51.5551C53.3644 51.5482 53.3622 51.5414 53.36 51.5345C53.1074 50.7385 52.7821 49.8001 52.3964 48.7611C51.9066 47.4415 51.3195 45.9596 50.6605 44.4009C47.9203 37.9202 43.9364 30.1129 40.5317 27.1322C34.1118 26.997 32.8858 33.6956 33.0876 35.0447C35.6722 35.6623 42.5711 41.0911 47.4688 46.4326C48.5053 47.5629 49.4521 48.6894 50.2495 49.7655C50.8429 50.5663 51.3534 51.3392 51.7566 52.0651C51.8027 52.148 51.8474 52.2304 51.8906 52.3121C52.1686 52.8374 53.6025 52.0151 53.3665 51.5551ZM49.7789 52.579C49.8413 52.7981 49.9292 53.0247 50.0484 53.2569C49.9535 53.072 49.8743 52.8794 49.8115 52.6812C49.8008 52.6474 49.7899 52.6134 49.7789 52.579Z" fill="white"/>
<path d="M41.7733 27.2567C42.9446 28.5063 42.1286 31.1743 39.9507 33.2159C37.7727 35.2575 35.0576 35.8996 33.8863 34.6501C32.7149 33.4005 33.5309 30.7325 35.7089 28.6909C37.8868 26.6493 40.602 26.0072 41.7733 27.2567Z" fill="#C26649"/>
<path d="M35.2431 51.5669C40.1749 53.9941 41.2213 61.9587 37.5805 69.3563C33.9397 76.7538 26.9903 80.7831 22.0586 78.3559C17.1269 75.9287 16.0804 67.9641 19.7212 60.5666C23.362 53.169 30.3114 49.1397 35.2431 51.5669Z" fill="#FF896F"/>
<path fill-rule="evenodd" clip-rule="evenodd" d="M29.5338 57.5041C31.1154 58.8233 31.328 61.1749 30.0088 62.7565C29.1497 63.7865 28.5876 64.8734 28.2745 66.0369C27.7395 68.0258 25.6935 69.2043 23.7046 68.6693C21.7158 68.1343 20.5372 66.0882 21.0723 64.0994C21.679 61.844 22.7647 59.7974 24.2814 57.9791C25.6006 56.3975 27.9522 56.1848 29.5338 57.5041Z" fill="white"/>
</g>
<defs>
<filter id="filter0_d_0_888" x="0.904394" y="11.1579" width="122.913" height="138.087" filterUnits="userSpaceOnUse" color-interpolation-filters="sRGB">
<feFlood flood-opacity="0" result="BackgroundImageFix"/>
<feColorMatrix in="SourceAlpha" type="matrix" values="0 0 0 0 0 0 0 0 0 0 0 0 0 0 0 0 0 0 127 0" result="hardAlpha"/>
<feOffset dx="9" dy="12"/>
<feGaussianBlur stdDeviation="7.3"/>
<feComposite in2="hardAlpha" operator="out"/>
<feColorMatrix type="matrix" values="0 0 0 0 0.993115 0 0 0 0 0.743134 0 0 0 0 0.689567 0 0 0 1 0"/>
<feBlend mode="normal" in2="BackgroundImageFix" result="effect1_dropShadow_0_888"/>
<feBlend mode="normal" in="SourceGraphic" in2="effect1_dropShadow_0_888" result="shape"/>
</filter>
</defs>
</svg>
