<svg width="557" height="752" viewBox="0 0 557 752" fill="none" xmlns="http://www.w3.org/2000/svg">
<g filter="url(#filter0_d_0_3889)">
<rect x="47.5635" y="276.926" width="462.564" height="465.597" rx="45.4981" transform="rotate(0.441137 47.5635 276.926)" fill="#FFF5D1"/>
</g>
<path d="M158.313 15.1887L263.164 3.32528L269.899 224.07L203 231.64L158.313 15.1887Z" fill="url(#paint0_linear_0_3889)"/>
<path d="M402.438 14.5382L297.636 2.24754L290.002 222.963L356.869 230.805L402.438 14.5382Z" fill="url(#paint1_linear_0_3889)"/>
<path d="M145.017 49.2681L58.0982 74.9408L126.544 251.713L182.001 235.333L145.017 49.2681Z" fill="url(#paint2_linear_0_3889)"/>
<path d="M415.599 48.6713L502.412 74.698L433.246 251.19L377.856 234.584L415.599 48.6713Z" fill="url(#paint3_linear_0_3889)"/>
<path d="M62.4443 131.538L4.76475 160.929L75.9386 276.113L112.74 257.361L62.4443 131.538Z" fill="url(#paint4_linear_0_3889)"/>
<path d="M497.832 131.276L555.391 160.902L483.749 275.796L447.024 256.894L497.832 131.276Z" fill="url(#paint5_linear_0_3889)"/>
<g filter="url(#filter1_d_0_3889)">
<path d="M35.6462 266.71C23.5787 244.947 17.545 234.065 20.9507 226.994C24.3564 219.923 35.2357 218.091 56.9945 214.427L90.3941 208.802C104.494 206.428 111.544 205.241 116.662 208.883C121.78 212.526 122.968 219.576 125.342 233.676L135.687 295.109C138.062 309.209 139.249 316.259 135.606 321.377C131.964 326.495 124.913 327.683 110.813 330.057L77.7247 335.629C55.9378 339.298 45.0444 341.132 39.5162 335.622C33.988 330.111 36.0336 317.727 40.1249 292.96C41.0883 287.128 41.3927 281.995 40.6023 278.39C39.8944 275.16 38.0926 271.122 35.6462 266.71Z" fill="url(#paint6_linear_0_3889)"/>
</g>
<g filter="url(#filter2_d_0_3889)">
<path d="M521.686 270.453C534.087 248.878 540.288 238.09 536.991 230.967C533.695 223.844 522.845 221.845 501.145 217.846L467.836 211.708C453.774 209.117 446.743 207.821 441.57 211.385C436.396 214.948 435.101 221.979 432.509 236.041L421.22 297.308C418.628 311.369 417.333 318.4 420.896 323.574C424.46 328.747 431.49 330.043 445.552 332.634L478.551 338.715C500.279 342.719 511.143 344.721 516.755 339.296C522.368 333.871 520.513 321.457 516.804 296.63C515.93 290.783 515.705 285.647 516.551 282.054C517.308 278.836 519.172 274.826 521.686 270.453Z" fill="url(#paint7_linear_0_3889)"/>
</g>
<g filter="url(#filter3_d_0_3889)">
<path d="M73.5677 231.827C73.7478 208.429 73.8379 196.73 81.3936 188.215C88.9493 179.7 99.9747 178.293 122.026 175.479C158.15 170.868 212.672 165.965 278.818 166.475C344.964 166.984 399.404 172.726 435.454 177.892C457.459 181.045 468.461 182.622 475.885 191.252C483.308 199.882 483.218 211.581 483.038 234.979L482.872 256.595C482.634 287.491 482.515 302.939 472.769 311.862C463.023 320.786 447.513 319.537 416.493 317.039C371.254 313.397 313.184 309.304 277.721 309.031C242.257 308.758 184.131 311.956 138.842 314.901C107.787 316.921 92.2595 317.931 82.652 308.859C73.0444 299.786 73.1634 284.338 73.4013 253.442L73.5677 231.827Z" fill="url(#paint8_linear_0_3889)"/>
</g>
<g filter="url(#filter4_d_0_3889)">
<rect x="69.1309" y="627.438" width="414.032" height="90.9961" rx="30.332" transform="rotate(0.441137 69.1309 627.438)" fill="#FFDF6D"/>
</g>
<g filter="url(#filter5_d_0_3889)">
<rect x="75.1611" y="632.034" width="401.9" height="75.8301" rx="30.332" transform="rotate(0.441137 75.1611 632.034)" fill="#FFCF25"/>
</g>
<path d="M87.1355 652.811C87.2042 643.9 94.4829 636.733 103.393 636.802L448.75 639.461C457.66 639.529 464.827 646.808 464.758 655.717C464.686 665.045 456.798 672.381 447.492 671.75C412.766 669.397 332.623 664.363 276.45 663.917C219.875 663.468 139.065 667.286 104.152 669.108C94.8365 669.595 87.0637 662.138 87.1355 652.811Z" fill="#FFD84C"/>
<path d="M182.665 691.902C181.662 691.894 180.888 691.613 180.342 691.059C179.829 690.473 179.577 689.662 179.585 688.626L179.698 673.873L180.98 677.62L169.411 661.079C168.995 660.493 168.805 659.877 168.842 659.23C168.912 658.551 169.192 657.987 169.681 657.538C170.17 657.056 170.851 656.819 171.724 656.826C172.371 656.831 172.953 656.997 173.468 657.324C174.015 657.652 174.529 658.158 175.009 658.841L183.601 671.234L182.242 671.224L191.073 658.964C191.596 658.257 192.101 657.759 192.589 657.472C193.076 657.152 193.676 656.995 194.388 657C195.229 657.007 195.874 657.238 196.324 657.694C196.806 658.119 197.044 658.654 197.039 659.301C197.067 659.949 196.835 660.626 196.344 661.335L184.619 677.648L185.91 673.921L185.796 688.674C185.78 690.842 184.736 691.918 182.665 691.902ZM201.482 692.047C200.706 692.041 200.076 691.858 199.594 691.498C199.143 691.139 198.872 690.668 198.779 690.085C198.687 689.469 198.806 688.791 199.135 688.049L212.165 659.758C212.593 658.823 213.1 658.163 213.685 657.78C214.303 657.364 215 657.159 215.777 657.165C216.521 657.17 217.182 657.386 217.761 657.811C218.373 658.204 218.886 658.871 219.299 659.813L231.941 688.302C232.291 689.048 232.415 689.729 232.313 690.343C232.212 690.957 231.933 691.44 231.477 691.792C231.022 692.112 230.422 692.27 229.678 692.264C228.772 692.257 228.062 692.041 227.547 691.617C227.066 691.16 226.634 690.477 226.253 689.568L223.155 682.216L225.762 683.935L205.283 683.777L207.916 682.099L204.754 689.403C204.326 690.338 203.884 691.014 203.428 691.431C202.972 691.848 202.323 692.053 201.482 692.047ZM215.625 664.298L208.706 680.406L207.456 678.843L223.665 678.968L222.44 680.512L215.722 664.299L215.625 664.298ZM248.251 692.407C247.248 692.399 246.474 692.118 245.928 691.564C245.415 690.978 245.162 690.167 245.17 689.131L245.284 674.378L246.565 678.125L234.996 661.584C234.58 660.998 234.391 660.382 234.428 659.735C234.498 659.056 234.777 658.492 235.266 658.043C235.755 657.561 236.436 657.324 237.31 657.331C237.957 657.335 238.538 657.502 239.053 657.829C239.601 658.157 240.114 658.662 240.595 659.346L249.186 671.739L247.828 671.729L256.658 659.469C257.181 658.762 257.686 658.264 258.174 657.976C258.662 657.657 259.262 657.5 259.973 657.505C260.814 657.511 261.46 657.743 261.909 658.199C262.391 658.624 262.63 659.159 262.625 659.806C262.652 660.454 262.421 661.131 261.93 661.839L250.205 678.153L251.495 674.426L251.382 689.179C251.365 691.347 250.321 692.423 248.251 692.407ZM269.702 697.377C269.277 697.891 268.822 698.179 268.336 698.24C267.883 698.333 267.479 698.249 267.125 697.988C266.771 697.726 266.58 697.353 266.551 696.867C266.522 696.414 266.737 695.914 267.194 695.368C267.847 694.564 268.29 693.758 268.523 692.951C268.755 692.144 268.874 691.417 268.879 690.77L269.109 692.422C267.977 692.413 267.057 692.082 266.35 691.43C265.676 690.745 265.343 689.853 265.352 688.753C265.36 687.718 265.69 686.879 266.342 686.237C266.994 685.562 267.87 685.229 268.97 685.238C270.103 685.247 270.989 685.642 271.631 686.423C272.272 687.172 272.587 688.259 272.576 689.682C272.57 690.459 272.483 691.267 272.315 692.107C272.179 692.915 271.898 693.754 271.47 694.624C271.075 695.527 270.486 696.444 269.702 697.377ZM313.004 693.002C309.704 692.977 306.814 692.227 304.334 690.752C301.886 689.277 299.993 687.224 298.655 684.593C297.316 681.929 296.661 678.818 296.688 675.259C296.709 672.574 297.116 670.167 297.908 668.037C298.702 665.876 299.816 664.04 301.251 662.53C302.719 660.989 304.459 659.821 306.471 659.028C308.516 658.202 310.784 657.799 313.275 657.818C316.607 657.844 319.497 658.594 321.945 660.069C324.393 661.512 326.286 663.548 327.625 666.179C328.963 668.81 329.619 671.905 329.592 675.464C329.571 678.15 329.164 680.573 328.371 682.735C327.578 684.896 326.447 686.748 324.979 688.29C323.544 689.832 321.804 691.016 319.759 691.841C317.747 692.635 315.495 693.022 313.004 693.002ZM313.045 687.664C315.148 687.68 316.931 687.209 318.395 686.249C319.89 685.29 321.034 683.892 321.824 682.053C322.647 680.216 323.069 678.019 323.088 675.463C323.118 671.58 322.268 668.565 320.537 666.416C318.839 664.267 316.404 663.181 313.234 663.157C311.163 663.141 309.38 663.612 307.884 664.571C306.389 665.498 305.23 666.881 304.407 668.718C303.616 670.524 303.211 672.721 303.191 675.31C303.161 679.16 304.012 682.175 305.742 684.356C307.473 686.537 309.907 687.64 313.045 687.664ZM341.791 693.127C340.788 693.119 340.013 692.838 339.467 692.284C338.954 691.698 338.702 690.903 338.709 689.9L338.93 661.268C338.938 660.232 339.203 659.458 339.724 658.944C340.278 658.398 341.057 658.129 342.06 658.137C343.063 658.145 343.821 658.426 344.335 658.98C344.881 659.501 345.15 660.28 345.142 661.315L345.046 673.69L345.143 673.691L359.179 659.822C359.701 659.308 360.221 658.924 360.741 658.669C361.261 658.414 361.844 658.289 362.491 658.294C363.429 658.302 364.091 658.549 364.475 659.038C364.892 659.526 365.049 660.094 364.947 660.74C364.878 661.386 364.566 661.983 364.011 662.528L349.733 676.444L349.803 673.63L364.489 688.788C365.163 689.441 365.514 690.123 365.541 690.835C365.568 691.547 365.337 692.144 364.847 692.625C364.391 693.075 363.71 693.296 362.804 693.289C362.028 693.283 361.398 693.116 360.915 692.789C360.465 692.462 359.934 691.989 359.324 691.369L345.118 676.943L345.021 676.942L344.921 689.948C344.913 690.951 344.648 691.742 344.126 692.32C343.604 692.866 342.826 693.135 341.791 693.127ZM377.464 683.161C376.849 683.157 376.365 682.959 376.012 682.568C375.692 682.177 375.502 681.626 375.443 680.913L374.13 662.364C374.042 661.166 374.308 660.213 374.928 659.506C375.549 658.767 376.457 658.402 377.654 658.411C378.819 658.42 379.69 658.799 380.266 659.547C380.876 660.264 381.127 661.22 381.021 662.417L379.422 680.944C379.384 681.655 379.186 682.204 378.827 682.589C378.501 682.975 378.046 683.166 377.464 683.161ZM377.386 693.256C376.286 693.247 375.399 692.9 374.725 692.216C374.083 691.531 373.766 690.655 373.774 689.588C373.782 688.552 374.112 687.714 374.764 687.072C375.449 686.397 376.341 686.065 377.441 686.073C378.574 686.082 379.445 686.428 380.054 687.112C380.696 687.764 381.013 688.608 381.005 689.643C380.997 690.711 380.667 691.582 380.015 692.257C379.395 692.931 378.518 693.264 377.386 693.256Z" fill="white"/>
<path d="M180.342 691.059L179.772 691.558L179.786 691.575L179.802 691.591L180.342 691.059ZM179.698 673.873L180.416 673.628L178.94 673.868L179.698 673.873ZM180.98 677.62L180.358 678.055L181.697 677.375L180.98 677.62ZM169.411 661.079L170.032 660.644L170.029 660.639L169.411 661.079ZM168.842 659.23L168.088 659.152L168.086 659.169L168.085 659.186L168.842 659.23ZM169.681 657.538L170.194 658.096L170.203 658.087L170.213 658.078L169.681 657.538ZM173.468 657.324L173.061 657.964L173.07 657.97L173.078 657.975L173.468 657.324ZM175.009 658.841L175.632 658.409L175.63 658.405L175.009 658.841ZM183.601 671.234L183.595 671.992L185.057 672.004L184.224 670.802L183.601 671.234ZM182.242 671.224L181.627 670.78L180.77 671.971L182.236 671.982L182.242 671.224ZM191.073 658.964L190.463 658.514L190.457 658.521L191.073 658.964ZM192.589 657.472L192.974 658.125L192.989 658.116L193.004 658.106L192.589 657.472ZM196.324 657.694L195.784 658.226L195.802 658.246L195.823 658.264L196.324 657.694ZM197.039 659.301L196.281 659.296L196.281 659.315L196.282 659.334L197.039 659.301ZM196.344 661.335L196.96 661.777L196.968 661.767L196.344 661.335ZM184.619 677.648L183.903 677.4L185.235 678.091L184.619 677.648ZM185.91 673.921L186.668 673.927L185.193 673.673L185.91 673.921ZM182.671 691.144C181.809 691.137 181.25 690.9 180.883 690.527L179.802 691.591C180.527 692.327 181.516 692.651 182.66 692.66L182.671 691.144ZM180.913 690.56C180.558 690.153 180.336 689.544 180.343 688.632L178.826 688.621C178.817 689.78 179.101 690.792 179.772 691.558L180.913 690.56ZM180.343 688.632L180.456 673.879L178.94 673.868L178.826 688.621L180.343 688.632ZM178.981 674.119L180.262 677.866L181.697 677.375L180.416 673.628L178.981 674.119ZM181.601 677.186L170.032 660.644L168.789 661.513L180.358 678.055L181.601 677.186ZM170.029 660.639C169.701 660.178 169.573 659.73 169.6 659.274L168.085 659.186C168.037 660.024 168.288 660.808 168.793 661.518L170.029 660.639ZM169.597 659.308C169.648 658.807 169.845 658.416 170.194 658.096L169.167 656.979C168.538 657.558 168.177 658.295 168.088 659.152L169.597 659.308ZM170.213 658.078C170.522 657.773 170.989 657.578 171.719 657.584L171.73 656.067C170.713 656.059 169.817 656.339 169.149 656.997L170.213 658.078ZM171.719 657.584C172.232 657.588 172.673 657.718 173.061 657.964L173.875 656.684C173.232 656.276 172.511 656.073 171.73 656.067L171.719 657.584ZM173.078 657.975C173.511 658.234 173.952 658.655 174.389 659.277L175.63 658.405C175.106 657.66 174.519 657.07 173.857 656.674L173.078 657.975ZM174.386 659.273L182.978 671.666L184.224 670.802L175.632 658.409L174.386 659.273ZM183.607 670.476L182.248 670.465L182.236 671.982L183.595 671.992L183.607 670.476ZM182.858 671.667L191.688 659.408L190.457 658.521L181.627 670.78L182.858 671.667ZM191.682 659.415C192.175 658.749 192.609 658.34 192.974 658.125L192.203 656.818C191.593 657.178 191.016 657.765 190.463 658.514L191.682 659.415ZM193.004 658.106C193.342 657.884 193.787 657.754 194.382 657.758L194.394 656.242C193.566 656.235 192.811 656.419 192.173 656.837L193.004 658.106ZM194.382 657.758C195.088 657.764 195.515 657.954 195.784 658.226L196.864 657.162C196.233 656.522 195.371 656.249 194.394 656.242L194.382 657.758ZM195.823 658.264C196.138 658.541 196.284 658.867 196.281 659.296L197.798 659.307C197.804 658.442 197.473 657.696 196.825 657.125L195.823 658.264ZM196.282 659.334C196.3 659.769 196.149 660.286 195.721 660.903L196.968 661.767C197.522 660.967 197.833 660.129 197.797 659.269L196.282 659.334ZM195.729 660.892L184.004 677.206L185.235 678.091L196.96 661.777L195.729 660.892ZM185.336 677.896L186.627 674.169L185.193 673.673L183.903 677.4L185.336 677.896ZM185.152 673.915L185.038 688.668L186.555 688.68L186.668 673.927L185.152 673.915ZM185.038 688.668C185.031 689.644 184.793 690.233 184.457 690.579C184.127 690.919 183.581 691.151 182.671 691.144L182.66 692.66C183.821 692.669 184.831 692.371 185.545 691.635C186.253 690.905 186.545 689.872 186.555 688.68L185.038 688.668ZM199.594 691.498L199.12 692.091L199.13 692.099L199.14 692.106L199.594 691.498ZM198.779 690.085L198.029 690.197L198.03 690.204L198.779 690.085ZM199.135 688.049L198.446 687.732L198.442 687.741L199.135 688.049ZM212.165 659.758L212.854 660.075L212.855 660.073L212.165 659.758ZM213.685 657.78L214.101 658.414L214.108 658.409L213.685 657.78ZM217.761 657.811L217.313 658.422L217.332 658.436L217.352 658.449L217.761 657.811ZM219.299 659.813L218.605 660.117L218.606 660.12L219.299 659.813ZM231.941 688.302L231.248 688.609L231.251 688.616L231.254 688.623L231.941 688.302ZM232.313 690.343L231.565 690.219L232.313 690.343ZM231.477 691.792L231.913 692.413L231.927 692.403L231.941 692.392L231.477 691.792ZM227.547 691.617L227.026 692.167L227.045 692.185L227.065 692.201L227.547 691.617ZM226.253 689.568L226.952 689.275L226.952 689.274L226.253 689.568ZM223.155 682.216L223.572 681.583L221.486 680.207L222.456 682.51L223.155 682.216ZM225.762 683.935L225.757 684.693L228.321 684.713L226.18 683.301L225.762 683.935ZM205.283 683.777L204.875 683.137L202.713 684.515L205.277 684.535L205.283 683.777ZM207.916 682.099L208.612 682.4L209.595 680.129L207.509 681.459L207.916 682.099ZM204.754 689.403L205.444 689.718L205.447 689.711L205.45 689.704L204.754 689.403ZM203.428 691.431L202.916 690.871L203.428 691.431ZM215.625 664.298L215.63 663.54L215.127 663.536L214.928 663.999L215.625 664.298ZM208.706 680.406L208.114 680.88L208.904 681.867L209.403 680.705L208.706 680.406ZM207.456 678.843L207.462 678.085L205.869 678.073L206.864 679.317L207.456 678.843ZM223.665 678.968L224.259 679.44L225.226 678.222L223.671 678.21L223.665 678.968ZM222.44 680.512L221.739 680.802L222.233 681.993L223.034 680.983L222.44 680.512ZM215.722 664.299L216.422 664.008L216.23 663.544L215.728 663.54L215.722 664.299ZM201.488 691.288C200.826 691.283 200.367 691.129 200.047 690.89L199.14 692.106C199.785 692.587 200.585 692.798 201.476 692.805L201.488 691.288ZM200.067 690.906C199.768 690.668 199.592 690.367 199.528 689.966L198.03 690.204C198.152 690.968 198.518 691.61 199.12 692.091L200.067 690.906ZM199.529 689.972C199.464 689.537 199.54 689.006 199.828 688.357L198.442 687.741C198.071 688.575 197.91 689.402 198.029 690.197L199.529 689.972ZM199.824 688.366L212.854 660.075L211.476 659.44L198.446 687.732L199.824 688.366ZM212.855 660.073C213.249 659.211 213.678 658.691 214.101 658.414L213.269 657.145C212.521 657.636 211.937 658.435 211.476 659.442L212.855 660.073ZM214.108 658.409C214.594 658.082 215.14 657.918 215.771 657.923L215.782 656.406C214.86 656.399 214.012 656.645 213.262 657.15L214.108 658.409ZM215.771 657.923C216.362 657.928 216.867 658.095 217.313 658.422L218.21 657.2C217.498 656.677 216.68 656.413 215.782 656.406L215.771 657.923ZM217.352 658.449C217.796 658.734 218.228 659.258 218.605 660.117L219.993 659.508C219.544 658.484 218.951 657.674 218.171 657.173L217.352 658.449ZM218.606 660.12L231.248 688.609L232.634 687.994L219.992 659.505L218.606 660.12ZM231.254 688.623C231.56 689.276 231.635 689.798 231.565 690.219L233.062 690.467C233.195 689.659 233.022 688.821 232.628 687.98L231.254 688.623ZM231.565 690.219C231.492 690.661 231.305 690.967 231.013 691.193L231.941 692.392C232.561 691.913 232.931 691.253 233.062 690.467L231.565 690.219ZM231.041 691.172C230.752 691.375 230.322 691.51 229.684 691.506L229.672 693.022C230.522 693.029 231.291 692.85 231.913 692.413L231.041 691.172ZM229.684 691.506C228.89 691.499 228.369 691.311 228.03 691.032L227.065 692.201C227.755 692.771 228.654 693.014 229.672 693.022L229.684 691.506ZM228.069 691.066C227.691 690.708 227.311 690.13 226.952 689.275L225.554 689.861C225.958 690.825 226.44 691.611 227.026 692.167L228.069 691.066ZM226.952 689.274L223.854 681.921L222.456 682.51L225.554 689.863L226.952 689.274ZM222.738 682.849L225.345 684.568L226.18 683.301L223.572 681.583L222.738 682.849ZM225.768 683.176L205.289 683.019L205.277 684.535L225.757 684.693L225.768 683.176ZM205.69 684.416L208.324 682.738L207.509 681.459L204.875 683.137L205.69 684.416ZM207.221 681.797L204.058 689.101L205.45 689.704L208.612 682.4L207.221 681.797ZM204.065 689.087C203.655 689.983 203.264 690.554 202.916 690.871L203.94 691.99C204.505 691.474 204.998 690.692 205.444 689.718L204.065 689.087ZM202.916 690.871C202.646 691.119 202.208 691.294 201.488 691.288L201.476 692.805C202.439 692.812 203.298 692.577 203.94 691.99L202.916 690.871ZM214.928 663.999L208.009 680.107L209.403 680.705L216.321 664.597L214.928 663.999ZM209.298 679.932L208.048 678.37L206.864 679.317L208.114 680.88L209.298 679.932ZM207.45 679.602L223.659 679.726L223.671 678.21L207.462 678.085L207.45 679.602ZM223.071 678.497L221.846 680.04L223.034 680.983L224.259 679.44L223.071 678.497ZM223.141 680.221L216.422 664.008L215.021 664.589L221.739 680.802L223.141 680.221ZM215.728 663.54L215.63 663.54L215.619 665.056L215.716 665.057L215.728 663.54ZM245.928 691.564L245.357 692.063L245.372 692.08L245.387 692.096L245.928 691.564ZM245.284 674.378L246.001 674.133L244.525 674.373L245.284 674.378ZM246.565 678.125L245.944 678.56L247.283 677.88L246.565 678.125ZM234.996 661.584L235.617 661.149L235.614 661.144L234.996 661.584ZM234.428 659.735L233.674 659.657L233.672 659.674L233.671 659.691L234.428 659.735ZM235.266 658.043L235.779 658.601L235.789 658.592L235.798 658.583L235.266 658.043ZM239.053 657.829L238.646 658.469L238.655 658.475L238.664 658.48L239.053 657.829ZM240.595 659.346L241.218 658.914L241.215 658.91L240.595 659.346ZM249.186 671.739L249.181 672.497L250.643 672.509L249.81 671.307L249.186 671.739ZM247.828 671.729L247.212 671.285L246.355 672.476L247.822 672.487L247.828 671.729ZM256.658 659.469L256.048 659.019L256.043 659.026L256.658 659.469ZM258.174 657.976L258.559 658.63L258.575 658.621L258.59 658.611L258.174 657.976ZM261.909 658.199L261.369 658.731L261.388 658.751L261.408 658.769L261.909 658.199ZM262.625 659.806L261.867 659.801L261.866 659.82L261.867 659.838L262.625 659.806ZM261.93 661.839L262.546 662.282L262.553 662.271L261.93 661.839ZM250.205 678.153L249.488 677.905L250.821 678.596L250.205 678.153ZM251.495 674.426L252.254 674.432L250.779 674.178L251.495 674.426ZM248.257 691.649C247.394 691.642 246.835 691.405 246.468 691.032L245.387 692.096C246.112 692.832 247.102 693.156 248.245 693.165L248.257 691.649ZM246.498 691.064C246.143 690.658 245.921 690.049 245.928 689.137L244.412 689.126C244.403 690.285 244.686 691.297 245.357 692.063L246.498 691.064ZM245.928 689.137L246.042 674.384L244.525 674.373L244.412 689.126L245.928 689.137ZM244.566 674.624L245.848 678.371L247.283 677.88L246.001 674.133L244.566 674.624ZM247.186 677.691L235.617 661.149L234.375 662.018L245.944 678.56L247.186 677.691ZM235.614 661.144C235.286 660.683 235.159 660.235 235.185 659.779L233.671 659.691C233.623 660.529 233.874 661.313 234.378 662.023L235.614 661.144ZM235.182 659.813C235.234 659.312 235.431 658.921 235.779 658.601L234.753 657.484C234.124 658.063 233.762 658.8 233.674 659.657L235.182 659.813ZM235.798 658.583C236.107 658.278 236.574 658.083 237.304 658.089L237.316 656.572C236.299 656.564 235.403 656.844 234.734 657.502L235.798 658.583ZM237.304 658.089C237.818 658.093 238.258 658.223 238.646 658.469L239.46 657.189C238.818 656.781 238.096 656.578 237.316 656.572L237.304 658.089ZM238.664 658.48C239.097 658.739 239.537 659.16 239.974 659.782L241.215 658.91C240.692 658.165 240.105 657.575 239.443 657.179L238.664 658.48ZM239.971 659.778L248.563 672.171L249.81 671.307L241.218 658.914L239.971 659.778ZM249.192 670.981L247.833 670.97L247.822 672.487L249.181 672.497L249.192 670.981ZM248.443 672.172L257.273 659.913L256.043 659.026L247.212 671.285L248.443 672.172ZM257.268 659.92C257.76 659.254 258.194 658.845 258.559 658.63L257.789 657.323C257.179 657.683 256.602 658.27 256.048 659.019L257.268 659.92ZM258.59 658.611C258.927 658.389 259.372 658.259 259.967 658.263L259.979 656.747C259.151 656.74 258.396 656.924 257.758 657.342L258.59 658.611ZM259.967 658.263C260.673 658.269 261.101 658.459 261.369 658.731L262.45 657.667C261.819 657.027 260.956 656.754 259.979 656.747L259.967 658.263ZM261.408 658.769C261.724 659.046 261.87 659.372 261.867 659.801L263.383 659.812C263.39 658.947 263.059 658.201 262.41 657.63L261.408 658.769ZM261.867 659.838C261.886 660.274 261.734 660.791 261.307 661.407L262.553 662.271C263.107 661.472 263.419 660.634 263.382 659.774L261.867 659.838ZM261.314 661.397L249.589 677.711L250.821 678.596L262.546 662.282L261.314 661.397ZM250.921 678.401L252.212 674.674L250.779 674.178L249.488 677.905L250.921 678.401ZM250.737 674.42L250.624 689.173L252.14 689.185L252.254 674.432L250.737 674.42ZM250.624 689.173C250.616 690.149 250.378 690.738 250.042 691.084C249.713 691.424 249.166 691.656 248.257 691.649L248.245 693.165C249.406 693.174 250.417 692.876 251.131 692.14C251.839 691.41 252.131 690.377 252.14 689.185L250.624 689.173ZM269.702 697.377L269.121 696.889L269.117 696.894L269.702 697.377ZM268.336 698.24L268.242 697.487L268.212 697.491L268.183 697.497L268.336 698.24ZM266.551 696.867L267.308 696.823L267.308 696.819L266.551 696.867ZM267.194 695.368L267.775 695.854L267.782 695.846L267.194 695.368ZM268.523 692.951L269.251 693.161L268.523 692.951ZM268.879 690.77L269.63 690.665L268.121 690.764L268.879 690.77ZM269.109 692.422L269.103 693.18L269.981 693.187L269.86 692.317L269.109 692.422ZM266.35 691.43L265.81 691.962L265.823 691.975L265.836 691.987L266.35 691.43ZM266.342 686.237L266.874 686.777L266.881 686.771L266.887 686.764L266.342 686.237ZM271.631 686.423L271.044 686.904L271.049 686.91L271.054 686.916L271.631 686.423ZM272.315 692.107L271.571 691.958L271.569 691.97L271.567 691.981L272.315 692.107ZM271.47 694.624L270.79 694.29L270.782 694.305L270.776 694.32L271.47 694.624ZM269.117 696.894C268.77 697.314 268.475 697.458 268.242 697.487L268.431 698.992C269.169 698.9 269.784 698.468 270.287 697.859L269.117 696.894ZM268.183 697.497C267.928 697.55 267.746 697.504 267.576 697.378L266.674 698.598C267.212 698.995 267.837 699.117 268.49 698.982L268.183 697.497ZM267.576 697.378C267.423 697.265 267.325 697.11 267.308 696.823L265.794 696.912C265.835 697.595 266.119 698.187 266.674 698.598L267.576 697.378ZM267.308 696.819C267.297 696.645 267.375 696.333 267.775 695.854L266.612 694.881C266.098 695.495 265.748 696.183 265.794 696.915L267.308 696.819ZM267.782 695.846C268.485 694.981 268.985 694.086 269.251 693.161L267.794 692.741C267.595 693.43 267.209 694.147 266.605 694.889L267.782 695.846ZM269.251 693.161C269.498 692.306 269.632 691.509 269.638 690.776L268.121 690.764C268.117 691.325 268.013 691.982 267.794 692.741L269.251 693.161ZM268.128 690.875L268.358 692.526L269.86 692.317L269.63 690.665L268.128 690.875ZM269.115 691.664C268.136 691.656 267.409 691.375 266.865 690.873L265.836 691.987C266.705 692.79 267.818 693.17 269.103 693.18L269.115 691.664ZM266.891 690.898C266.378 690.378 266.103 689.689 266.11 688.759L264.594 688.747C264.584 690.017 264.974 691.113 265.81 691.962L266.891 690.898ZM266.11 688.759C266.117 687.896 266.384 687.259 266.874 686.777L265.81 685.697C264.995 686.499 264.603 687.539 264.594 688.747L266.11 688.759ZM266.887 686.764C267.37 686.265 268.033 685.989 268.965 685.996L268.976 684.48C267.708 684.47 266.618 684.86 265.797 685.71L266.887 686.764ZM268.965 685.996C269.902 686.003 270.564 686.319 271.044 686.904L272.217 685.942C271.415 684.965 270.303 684.49 268.976 684.48L268.965 685.996ZM271.054 686.916C271.534 687.476 271.828 688.356 271.818 689.676L273.334 689.688C273.346 688.161 273.01 686.869 272.207 685.93L271.054 686.916ZM271.818 689.676C271.812 690.4 271.731 691.16 271.571 691.958L273.058 692.256C273.235 691.373 273.328 690.517 273.334 689.688L271.818 689.676ZM271.567 691.981C271.445 692.705 271.19 693.474 270.79 694.29L272.151 694.958C272.605 694.034 272.913 693.124 273.063 692.232L271.567 691.981ZM270.776 694.32C270.415 695.143 269.869 696 269.121 696.889L270.282 697.865C271.102 696.889 271.735 695.911 272.165 694.928L270.776 694.32ZM304.334 690.752L303.943 691.401L303.946 691.403L304.334 690.752ZM298.655 684.593L297.977 684.933L297.979 684.937L298.655 684.593ZM297.908 668.037L298.619 668.302L298.62 668.299L297.908 668.037ZM301.251 662.53L300.702 662.008L300.702 662.008L301.251 662.53ZM306.471 659.028L306.749 659.733L306.755 659.731L306.471 659.028ZM321.945 660.069L321.554 660.719L321.56 660.722L321.945 660.069ZM327.625 666.179L328.301 665.836L327.625 666.179ZM328.371 682.735L327.659 682.474L328.371 682.735ZM324.979 688.29L324.43 687.767L324.424 687.773L324.979 688.29ZM319.759 691.841L320.037 692.547L320.043 692.544L319.759 691.841ZM318.395 686.249L317.985 685.611L317.979 685.615L318.395 686.249ZM321.824 682.053L321.132 681.743L321.128 681.754L321.824 682.053ZM320.537 666.416L319.942 666.886L319.947 666.892L320.537 666.416ZM307.884 664.571L308.284 665.216L308.294 665.21L307.884 664.571ZM304.407 668.718L303.714 668.409L303.712 668.414L304.407 668.718ZM305.742 684.356L306.336 683.885L305.742 684.356ZM313.01 692.244C309.825 692.22 307.07 691.497 304.722 690.1L303.946 691.403C306.558 692.957 309.583 693.734 312.998 693.761L313.01 692.244ZM304.725 690.102C302.403 688.703 300.607 686.758 299.33 684.249L297.979 684.937C299.38 687.69 301.369 689.851 303.943 691.401L304.725 690.102ZM299.332 684.252C298.057 681.715 297.42 678.727 297.446 675.265L295.93 675.254C295.902 678.91 296.575 682.144 297.977 684.933L299.332 684.252ZM297.446 675.265C297.466 672.653 297.862 670.335 298.619 668.302L297.198 667.773C296.369 669.999 295.951 672.496 295.93 675.254L297.446 675.265ZM298.62 668.299C299.382 666.224 300.444 664.48 301.801 663.053L300.702 662.008C299.188 663.6 298.022 665.528 297.197 667.776L298.62 668.299ZM301.8 663.053C303.191 661.593 304.838 660.487 306.749 659.733L306.193 658.322C304.08 659.156 302.247 660.385 300.702 662.008L301.8 663.053ZM306.755 659.731C308.696 658.947 310.864 658.558 313.269 658.577L313.281 657.06C310.703 657.04 308.335 657.457 306.187 658.325L306.755 659.731ZM313.269 658.577C316.488 658.601 319.241 659.325 321.554 660.719L322.336 659.42C319.754 657.864 316.726 657.087 313.281 657.06L313.269 658.577ZM321.56 660.722C323.878 662.089 325.673 664.016 326.949 666.523L328.301 665.836C326.899 663.081 324.907 660.935 322.33 659.416L321.56 660.722ZM326.949 666.523C328.222 669.026 328.86 671.996 328.833 675.458L330.35 675.47C330.378 671.815 329.705 668.595 328.301 665.836L326.949 666.523ZM328.833 675.458C328.813 678.071 328.418 680.406 327.659 682.474L329.083 682.996C329.911 680.74 330.329 678.228 330.35 675.47L328.833 675.458ZM327.659 682.474C326.899 684.546 325.821 686.306 324.43 687.767L325.529 688.813C327.074 687.19 328.257 685.247 329.083 682.996L327.659 682.474ZM324.424 687.773C323.068 689.23 321.422 690.352 319.475 691.138L320.043 692.544C322.186 691.679 324.02 690.434 325.534 688.807L324.424 687.773ZM319.481 691.136C317.572 691.888 315.419 692.263 313.01 692.244L312.998 693.761C315.572 693.781 317.922 693.381 320.037 692.547L319.481 691.136ZM313.039 688.422C315.261 688.44 317.198 687.94 318.81 686.884L317.979 685.615C316.664 686.477 315.035 686.921 313.051 686.906L313.039 688.422ZM318.804 686.888C320.443 685.837 321.678 684.312 322.521 682.353L321.128 681.754C320.389 683.471 319.338 684.744 317.985 685.611L318.804 686.888ZM322.516 682.363C323.392 680.408 323.826 678.102 323.847 675.469L322.33 675.457C322.311 677.935 321.902 680.023 321.132 681.744L322.516 682.363ZM323.847 675.469C323.877 671.481 323.005 668.272 321.128 665.94L319.947 666.892C321.53 668.858 322.359 671.679 322.33 675.457L323.847 675.469ZM321.132 665.946C319.268 663.587 316.599 662.424 313.24 662.398L313.228 663.915C316.209 663.938 318.41 664.948 319.942 666.886L321.132 665.946ZM313.24 662.398C311.047 662.381 309.114 662.882 307.475 663.933L308.294 665.21C309.646 664.342 311.28 663.9 313.228 663.915L313.24 662.398ZM307.485 663.927C305.843 664.945 304.59 666.453 303.715 668.409L305.099 669.028C305.869 667.308 306.935 666.052 308.284 665.216L307.485 663.927ZM303.712 668.414C302.87 670.339 302.453 672.643 302.433 675.304L303.949 675.315C303.969 672.799 304.363 670.71 305.101 669.023L303.712 668.414ZM302.433 675.304C302.402 679.261 303.275 682.467 305.148 684.828L306.336 683.885C304.748 681.883 303.921 679.058 303.949 675.315L302.433 675.304ZM305.148 684.828C307.04 687.213 309.705 688.397 313.039 688.422L313.051 686.906C310.109 686.883 307.905 685.862 306.336 683.885L305.148 684.828ZM339.467 692.284L338.897 692.784L338.912 692.8L338.927 692.816L339.467 692.284ZM339.724 658.944L339.192 658.404L339.724 658.944ZM344.335 658.98L343.778 659.495L343.794 659.512L343.811 659.528L344.335 658.98ZM345.046 673.69L344.288 673.685L344.282 674.443L345.04 674.449L345.046 673.69ZM345.143 673.691L345.138 674.45L345.452 674.452L345.676 674.231L345.143 673.691ZM359.179 659.822L358.647 659.282L358.646 659.282L359.179 659.822ZM360.741 658.669L360.407 657.988L360.741 658.669ZM364.475 659.038L363.879 659.507L363.889 659.518L363.898 659.53L364.475 659.038ZM364.947 660.74L364.198 660.622L364.195 660.64L364.193 660.659L364.947 660.74ZM364.011 662.528L364.541 663.071L364.544 663.069L364.011 662.528ZM349.733 676.444L348.975 676.425L348.928 678.287L350.262 676.987L349.733 676.444ZM349.803 673.63L350.348 673.102L349.09 671.804L349.045 673.611L349.803 673.63ZM364.489 688.788L363.944 689.316L363.953 689.325L363.962 689.333L364.489 688.788ZM365.541 690.835L366.298 690.806L366.298 690.806L365.541 690.835ZM364.847 692.625L365.38 693.165L364.847 692.625ZM360.915 692.789L360.47 693.403L360.479 693.41L360.49 693.417L360.915 692.789ZM359.324 691.369L359.865 690.837L359.324 691.369ZM345.118 676.943L345.659 676.411L345.438 676.187L345.124 676.184L345.118 676.943ZM345.021 676.942L345.027 676.184L344.269 676.178L344.263 676.936L345.021 676.942ZM344.126 692.32L344.675 692.844L344.682 692.836L344.689 692.828L344.126 692.32ZM341.796 692.369C340.934 692.362 340.375 692.125 340.008 691.752L338.927 692.816C339.652 693.552 340.642 693.877 341.785 693.885L341.796 692.369ZM340.038 691.785C339.679 691.374 339.461 690.778 339.468 689.906L337.951 689.894C337.942 691.028 338.23 692.021 338.897 692.784L340.038 691.785ZM339.468 689.906L339.688 661.273L338.171 661.262L337.951 689.894L339.468 689.906ZM339.688 661.273C339.695 660.355 339.928 659.807 340.256 659.484L339.192 658.404C338.477 659.108 338.18 660.11 338.171 661.262L339.688 661.273ZM340.256 659.484C340.629 659.117 341.191 658.889 342.054 658.895L342.066 657.379C340.923 657.37 339.928 657.679 339.192 658.404L340.256 659.484ZM342.054 658.895C342.92 658.902 343.449 659.14 343.778 659.495L344.891 658.464C344.193 657.711 343.206 657.388 342.066 657.379L342.054 658.895ZM343.811 659.528C344.156 659.858 344.39 660.403 344.383 661.31L345.9 661.321C345.909 660.157 345.605 659.145 344.858 658.431L343.811 659.528ZM344.383 661.31L344.288 673.685L345.805 673.696L345.9 661.321L344.383 661.31ZM345.04 674.449L345.138 674.45L345.149 672.933L345.052 672.932L345.04 674.449ZM345.676 674.231L359.712 660.361L358.646 659.282L344.61 673.152L345.676 674.231ZM359.711 660.362C360.189 659.891 360.645 659.561 361.075 659.35L360.407 657.988C359.798 658.287 359.212 658.725 358.647 659.282L359.711 660.362ZM361.075 659.35C361.477 659.153 361.942 659.048 362.485 659.053L362.497 657.536C361.746 657.53 361.044 657.676 360.407 657.988L361.075 659.35ZM362.485 659.053C363.313 659.059 363.698 659.276 363.879 659.507L365.071 658.568C364.483 657.822 363.545 657.544 362.497 657.536L362.485 659.053ZM363.898 659.53C364.168 659.846 364.267 660.189 364.198 660.622L365.696 660.858C365.832 659.998 365.616 659.206 365.052 658.545L363.898 659.53ZM364.193 660.659C364.146 661.099 363.934 661.54 363.479 661.988L364.544 663.069C365.197 662.425 365.609 661.674 365.701 660.821L364.193 660.659ZM363.482 661.985L349.204 675.901L350.262 676.987L364.541 663.071L363.482 661.985ZM350.491 676.463L350.561 673.649L349.045 673.611L348.975 676.425L350.491 676.463ZM349.258 674.158L363.944 689.316L365.033 688.261L350.348 673.102L349.258 674.158ZM363.962 689.333C364.541 689.894 364.766 690.402 364.783 690.863L366.298 690.806C366.262 689.843 365.785 688.987 365.016 688.243L363.962 689.333ZM364.783 690.863C364.802 691.372 364.646 691.759 364.315 692.085L365.38 693.165C366.027 692.528 366.333 691.722 366.298 690.806L364.783 690.863ZM364.315 692.085C364.053 692.343 363.599 692.537 362.81 692.531L362.798 694.047C363.821 694.055 364.729 693.806 365.38 693.165L364.315 692.085ZM362.81 692.531C362.134 692.525 361.665 692.381 361.341 692.161L360.49 693.417C361.131 693.852 361.921 694.04 362.798 694.047L362.81 692.531ZM361.361 692.175C360.957 691.882 360.46 691.441 359.865 690.837L358.784 691.901C359.409 692.536 359.972 693.041 360.47 693.403L361.361 692.175ZM359.865 690.837L345.659 676.411L344.578 677.475L358.784 691.901L359.865 690.837ZM345.124 676.184L345.027 676.184L345.015 677.7L345.112 677.701L345.124 676.184ZM344.263 676.936L344.163 689.942L345.679 689.954L345.78 676.948L344.263 676.936ZM344.163 689.942C344.156 690.814 343.929 691.407 343.563 691.812L344.689 692.828C345.368 692.076 345.671 691.088 345.679 689.954L344.163 689.942ZM343.578 691.796C343.248 692.141 342.703 692.376 341.796 692.369L341.785 693.885C342.949 693.894 343.961 693.591 344.675 692.844L343.578 691.796ZM376.012 682.568L375.426 683.049L375.437 683.063L375.449 683.076L376.012 682.568ZM375.443 680.913L374.686 680.967L374.687 680.976L375.443 680.913ZM374.13 662.364L374.886 662.31L374.886 662.308L374.13 662.364ZM374.928 659.506L375.498 660.006L375.504 660L375.509 659.994L374.928 659.506ZM380.266 659.547L379.666 660.01L379.677 660.025L379.689 660.039L380.266 659.547ZM381.021 662.417L380.265 662.35L380.265 662.351L381.021 662.417ZM379.422 680.944L378.667 680.879L378.666 680.891L378.665 680.904L379.422 680.944ZM378.827 682.589L378.272 682.073L378.26 682.086L378.248 682.099L378.827 682.589ZM374.725 692.216L374.172 692.735L374.178 692.741L374.184 692.748L374.725 692.216ZM374.764 687.072L374.232 686.531L374.764 687.072ZM380.054 687.112L379.488 687.617L379.501 687.631L379.514 687.644L380.054 687.112ZM380.015 692.257L379.469 691.729L379.463 691.736L379.456 691.743L380.015 692.257ZM377.47 682.403C377.029 682.4 376.762 682.266 376.575 682.06L375.449 683.076C375.969 683.651 376.67 683.914 377.458 683.92L377.47 682.403ZM376.599 682.087C376.408 681.855 376.25 681.471 376.198 680.85L374.687 680.976C374.754 681.781 374.975 682.499 375.426 683.049L376.599 682.087ZM376.199 680.86L374.886 662.31L373.373 662.417L374.686 680.967L376.199 680.86ZM374.886 662.308C374.809 661.254 375.046 660.521 375.498 660.006L374.358 659.006C373.569 659.905 373.275 661.078 373.373 662.419L374.886 662.308ZM375.509 659.994C375.95 659.469 376.618 659.161 377.648 659.169L377.66 657.653C376.296 657.642 375.147 658.065 374.347 659.019L375.509 659.994ZM377.648 659.169C378.64 659.177 379.264 659.489 379.666 660.01L380.867 659.085C380.115 658.109 378.998 657.663 377.66 657.653L377.648 659.169ZM379.689 660.039C380.132 660.56 380.359 661.297 380.265 662.35L381.776 662.484C381.895 661.144 381.619 659.967 380.844 659.056L379.689 660.039ZM380.265 662.351L378.667 680.879L380.178 681.009L381.776 662.482L380.265 662.351ZM378.665 680.904C378.633 681.5 378.473 681.857 378.272 682.073L379.382 683.106C379.899 682.551 380.135 681.81 380.179 680.984L378.665 680.904ZM378.248 682.099C378.09 682.286 377.865 682.406 377.47 682.403L377.458 683.92C378.227 683.926 378.911 683.664 379.406 683.079L378.248 682.099ZM377.392 692.497C376.461 692.49 375.777 692.204 375.265 691.684L374.184 692.748C375.02 693.597 376.111 694.004 377.38 694.014L377.392 692.497ZM375.278 691.697C374.788 691.175 374.526 690.496 374.533 689.594L373.016 689.582C373.007 690.815 373.378 691.888 374.172 692.735L375.278 691.697ZM374.533 689.594C374.539 688.731 374.807 688.094 375.296 687.612L374.232 686.531C373.418 687.334 373.025 688.374 373.016 689.582L374.533 689.594ZM375.296 687.612C375.817 687.1 376.505 686.824 377.436 686.831L377.447 685.315C376.178 685.305 375.081 685.695 374.232 686.531L375.296 687.612ZM377.436 686.831C378.408 686.839 379.054 687.129 379.488 687.617L380.62 686.608C379.836 685.727 378.739 685.325 377.447 685.315L377.436 686.831ZM379.514 687.644C379.996 688.134 380.254 688.775 380.247 689.638L381.764 689.649C381.773 688.442 381.397 687.395 380.594 686.58L379.514 687.644ZM380.247 689.638C380.24 690.54 379.967 691.214 379.469 691.729L380.56 692.784C381.366 691.95 381.754 690.883 381.764 689.649L380.247 689.638ZM379.456 691.743C379.014 692.224 378.364 692.505 377.392 692.497L377.38 694.014C378.672 694.024 379.775 693.638 380.573 692.77L379.456 691.743Z" fill="white"/>
<path d="M109.434 640.277C112.311 643.725 109.725 650.625 105.354 654.273C100.983 657.921 93.7318 659.231 90.8541 655.783C87.9764 652.335 89.8027 646.069 94.9332 641.787C100.064 637.505 106.556 636.829 109.434 640.277Z" fill="#FFE588"/>
<path d="M215.483 538.181L224.025 524.272C227.162 519.164 233.193 516.609 239.044 517.909L239.694 518.054L247.289 520.079C248.018 520.273 248.761 520.409 249.511 520.484L259.97 521.529L271.557 521.529L279.084 521.529C279.858 521.529 280.63 521.465 281.393 521.338L294.15 519.212L303.964 516.759C307.859 515.786 311.961 517.202 314.426 520.371L316.682 523.529C317.109 524.126 317.488 524.755 317.816 525.411L319.64 529.059L323.116 534.852L325.837 538.932C326.339 539.686 326.768 540.486 327.116 541.322L328.109 543.704C329.005 545.854 329.184 548.236 328.618 550.496C328.427 551.263 328.152 552.006 327.798 552.713L327.612 553.086C326.936 554.437 326.048 555.669 324.98 556.737L324.1 557.617C323.446 558.271 322.729 558.859 321.959 559.372L321.465 559.701C320.256 560.507 318.929 561.121 317.532 561.52L315.585 562.076L313.003 562.937C312.411 563.134 311.791 563.235 311.167 563.235C309.53 563.235 308.278 564.693 308.527 566.311L308.633 567C308.983 569.27 310.689 571.093 312.931 571.591L313.705 571.763C314.185 571.869 314.674 571.923 315.165 571.923L318.482 571.923L321.958 571.923L324.043 571.923C324.968 571.923 325.89 571.832 326.797 571.65L329.793 571.051C330.746 570.861 331.677 570.572 332.571 570.189L335.282 569.027L339.917 566.71L343.579 564.269C344.609 563.582 345.543 562.763 346.359 561.831L348.3 559.612C348.889 558.939 349.412 558.212 349.863 557.44L352.604 552.741C353.028 552.015 353.385 551.253 353.673 550.463L355.037 546.711C355.383 545.759 355.626 544.771 355.76 543.767L356.717 536.59L358.455 526.742L360.037 516.194C360.141 515.504 360.193 514.807 360.193 514.11L360.193 511.427C360.193 510.06 360.392 508.7 360.785 507.39L361.931 503.573L362.784 499.733C362.987 498.82 363.281 497.929 363.661 497.074L365.407 493.147L366.227 490.96C366.833 489.342 367.733 487.85 368.881 486.559L371.779 483.3L374.679 479.571C375.446 478.586 376.341 477.707 377.339 476.958L380.469 474.611L384.746 471.617C385.752 470.913 386.847 470.344 388.001 469.924L392.635 468.239L399.007 465.922L402.716 465.098C403.716 464.876 404.738 464.764 405.763 464.764L408.856 464.764L411.369 464.764C412.394 464.764 413.416 464.876 414.416 465.098L416.752 465.617C417.665 465.82 418.555 466.114 419.41 466.493L423.339 468.239L427.128 469.923C428.073 470.343 428.956 470.892 429.75 471.554L430.593 472.256C431.534 473.04 432.255 474.055 432.685 475.202L432.844 475.627C433.432 477.195 433.341 478.937 432.592 480.435C432.22 481.178 431.694 481.84 431.056 482.372C429.498 483.671 427.385 484.125 425.435 483.567L425.103 483.473C424.7 483.358 424.308 483.205 423.933 483.018L422.106 482.104C421.384 481.743 420.633 481.445 419.86 481.214L415.228 479.824L410.67 478.581C409.466 478.253 408.223 478.086 406.974 478.086L404.545 478.086C403.178 478.086 401.818 478.286 400.508 478.679L398.373 479.319C397.255 479.654 396.184 480.128 395.183 480.728L390.897 483.3L387.061 486.176C386.529 486.575 386.026 487.011 385.556 487.481L382.497 490.539C381.919 491.118 381.391 491.746 380.922 492.417L378.657 495.651C377.937 496.68 377.358 497.8 376.936 498.983L374.676 505.311L372.938 512.261L371.779 520.371L370.314 527.695C370.133 528.602 370.041 529.525 370.041 530.451L370.041 537.164C370.041 537.938 369.977 538.711 369.85 539.474L368.484 547.666C368.364 548.39 368.187 549.103 367.955 549.799L365.894 555.979C365.57 556.951 365.14 557.886 364.613 558.765L361.931 563.235L359.345 567.544C358.754 568.529 358.044 569.438 357.232 570.25L354.4 573.082L350.084 576.438C349.486 576.903 348.851 577.318 348.186 577.681L342.813 580.612L338.179 582.349L334.897 583.662C333.238 584.325 331.467 584.666 329.68 584.666L325.434 584.666L318.482 584.666L313.847 584.666L312.109 584.666C310.509 584.666 309.213 585.963 309.213 587.563L309.213 593.441C309.213 595.296 308.845 597.133 308.132 598.845L306.316 603.202L302.261 610.732L299.897 614.278C298.425 616.485 296.244 618.144 293.727 618.982C291.764 619.637 289.62 619.578 287.699 618.81C286.149 618.19 285.406 616.422 286.048 614.882L286.532 613.72C287.354 611.748 287.778 609.632 287.778 607.495L287.778 605.519L287.778 602.218C287.778 600.974 287.389 599.762 286.666 598.75C285.546 597.182 283.738 596.251 281.811 596.251L275.612 596.251L264.026 596.251L258.296 596.251C256.417 596.251 254.632 597.072 253.41 598.498C252.41 599.665 251.86 601.15 251.86 602.687L251.86 607.435C251.86 609.615 252.252 611.778 253.018 613.82L253.518 615.153C254.397 617.498 252.664 620 250.159 620C249.383 620 248.628 619.748 248.007 619.283L246.689 618.294C243.597 615.976 240.961 613.106 238.913 609.83L236.218 605.519L230.75 594.584C229.774 592.633 229.266 590.482 229.266 588.3L229.266 571.725C229.266 567.457 227.326 563.42 223.993 560.754L218.679 556.503C213.145 552.076 211.774 544.22 215.483 538.181Z" fill="#D2714C" stroke="#D2714C" stroke-width="0.351213"/>
<circle cx="173.001" cy="434.876" r="29.0006" fill="#D2714C"/>
<g filter="url(#filter6_f_0_3889)">
<circle cx="174.813" cy="434.877" r="21.7504" fill="#FFE1C2"/>
</g>
<g filter="url(#filter7_f_0_3889)">
<ellipse cx="169.567" cy="445.775" rx="12.5596" ry="10.9896" fill="#D2714C" fill-opacity="0.51"/>
</g>
<circle cx="29.0006" cy="29.0006" r="29.0006" transform="matrix(-1 0 0 1 388.69 405.876)" fill="#D2714C"/>
<g filter="url(#filter8_f_0_3889)">
<circle cx="21.7504" cy="21.7504" r="21.7504" transform="matrix(-1 0 0 1 379.628 413.126)" fill="#FFE1C2"/>
</g>
<g filter="url(#filter9_f_0_3889)">
<ellipse cx="12.3353" cy="10.9896" rx="12.3353" ry="10.9896" transform="matrix(-1 0 0 1 375.453 434.785)" fill="#D2714C" fill-opacity="0.51"/>
</g>
<g filter="url(#filter10_f_0_3889)">
<path d="M420.758 477.174C420.758 480.271 423.369 482.781 426.59 482.781C429.81 482.781 432.421 480.271 432.421 477.174C432.421 474.078 429.81 471.567 426.59 471.567C423.369 471.567 420.758 474.078 420.758 477.174Z" fill="white" fill-opacity="0.9"/>
</g>
<path fill-rule="evenodd" clip-rule="evenodd" d="M279.511 337.549C284.214 339.261 286.639 344.461 284.927 349.165L278.108 367.9C276.641 371.93 272.614 374.287 268.532 373.803C267.862 374.29 267.114 374.693 266.296 374.99C261.593 376.702 256.393 374.277 254.681 369.574L247.862 350.838C246.15 346.135 248.575 340.935 253.278 339.223C257.981 337.511 263.182 339.936 264.894 344.639L266.09 347.925L267.895 342.965C269.607 338.262 274.808 335.837 279.511 337.549Z" fill="#D2714C"/>
<path d="M359.693 444.214C359.693 487.107 317.901 521.878 266.348 521.878C214.794 521.878 173.002 487.107 173.002 444.214C173.002 401.322 214.794 353.312 266.348 353.312C317.901 353.312 359.693 401.322 359.693 444.214Z" fill="#D2714C"/>
<path fill-rule="evenodd" clip-rule="evenodd" d="M188.168 486.666C189.021 469.602 203.067 454.815 221.69 454.815L311.16 454.815C329.713 454.815 343.727 469.493 344.672 486.48C328.028 507.787 299.166 521.878 266.347 521.878C233.624 521.878 204.834 507.869 188.168 486.666Z" fill="#FFE1C2"/>
<g filter="url(#filter11_f_0_3889)">
<path d="M340.917 416.871C340.917 441.34 305.07 420.477 265.824 420.477C226.578 420.477 187.959 441.765 187.959 416.871C187.959 391.978 224.302 363.648 263.304 359.177C290.267 356.086 340.917 389.827 340.917 416.871Z" fill="url(#paint9_linear_0_3889)"/>
</g>
<path fill-rule="evenodd" clip-rule="evenodd" d="M302.551 482.762C324.099 482.762 341.566 462.899 341.566 438.397C341.566 413.895 324.099 394.033 302.551 394.033C286.956 394.033 273.497 404.438 267.252 419.477C261.007 404.438 247.549 394.033 231.953 394.033C210.406 394.033 192.938 413.896 192.938 438.397C192.938 462.899 210.406 482.762 231.953 482.762C247.549 482.762 261.008 472.356 267.252 457.318C273.497 472.356 286.956 482.762 302.551 482.762Z" fill="#FFE1C2"/>
<path d="M321.63 447.565C321.63 457.575 315.138 447.565 307.13 447.565C299.122 447.565 292.63 457.575 292.63 447.565C292.63 437.554 299.122 429.439 307.13 429.439C315.138 429.439 321.63 437.554 321.63 447.565Z" fill="#562B30"/>
<path d="M312.456 443.418C312.456 446.922 310.022 443.418 307.019 443.418C304.016 443.418 301.581 446.922 301.581 443.418C301.581 439.915 304.016 437.075 307.019 437.075C310.022 437.075 312.456 439.915 312.456 443.418Z" fill="white"/>
<path d="M246.936 447.732C246.936 457.742 240.444 447.732 232.436 447.732C224.428 447.732 217.936 457.742 217.936 447.732C217.936 437.721 224.428 429.606 232.436 429.606C240.444 429.606 246.936 437.721 246.936 447.732Z" fill="#562B30"/>
<path d="M237.762 443.585C237.762 447.089 235.327 443.585 232.324 443.585C229.321 443.585 226.887 447.089 226.887 443.585C226.887 440.082 229.321 437.241 232.324 437.241C235.327 437.241 237.762 440.082 237.762 443.585Z" fill="white"/>
<path d="M281.179 465.956C281.179 469.341 275.848 471.525 269.272 471.525C262.695 471.525 257.364 469.341 257.364 465.956C257.364 462.571 262.695 458.441 269.272 458.441C275.848 458.441 281.179 462.571 281.179 465.956Z" fill="#562B30"/>
<circle cx="274.735" cy="463.118" r="1.68103" fill="white"/>
<path d="M269.218 461.892L269.218 474.284C269.218 478.331 272.499 481.612 276.545 481.612L277.569 481.612C281.051 481.612 283.873 478.789 283.873 475.308V475.308" stroke="#562B30" stroke-width="3.08189" stroke-linecap="round" stroke-linejoin="round"/>
<path d="M269.218 461.891L269.218 474.283C269.218 478.33 265.937 481.611 261.89 481.611L260.866 481.611C257.385 481.611 254.562 478.788 254.562 475.307V475.307" stroke="#562B30" stroke-width="3.08189" stroke-linecap="round" stroke-linejoin="round"/>
<g filter="url(#filter12_f_0_3889)">
<ellipse cx="317.283" cy="478.397" rx="13.594" ry="9.96895" fill="#FFB99B"/>
</g>
<g filter="url(#filter13_f_0_3889)">
<ellipse cx="222.637" cy="478.397" rx="13.594" ry="9.96895" fill="#FFB99B"/>
</g>
<g filter="url(#filter14_f_0_3889)">
<ellipse cx="223.29" cy="551.231" rx="9.88915" ry="5.12503" transform="rotate(41.3313 223.29 551.231)" fill="#A14724" fill-opacity="0.63"/>
</g>
<g filter="url(#filter15_f_0_3889)">
<ellipse cx="269.359" cy="558.981" rx="20.1821" ry="25.6914" transform="rotate(1.97407 269.359 558.981)" fill="#FFE1C2" fill-opacity="0.9"/>
</g>
<path d="M285.014 474.473C287.93 485.239 281.385 500.265 269.315 500.265C259.901 500.265 250.027 484.79 253.84 474.473C254.617 472.37 258.607 490.192 269.315 478.744C281.932 487.276 280.039 478.066 285.014 474.473Z" fill="#562B30"/>
<path d="M324.54 548.241L328.091 546.111C330.545 544.147 332.498 541.629 333.787 538.762L335.131 535.777C335.167 535.697 335.186 535.609 335.186 535.521L335.186 528.628C335.186 528.583 335.182 528.538 335.176 528.493C334.213 521.752 335.159 514.804 337.925 508.581C338.076 508.242 338.413 508.023 338.785 508.023L341.16 508.023L343.331 508.023C345.081 508.023 346.792 508.541 348.248 509.511C348.253 509.515 348.258 509.517 348.263 509.52L351.858 511.179C352.545 511.496 352.839 512.316 352.509 512.998L351.574 514.929C348.898 520.46 347.508 526.524 347.508 532.668L347.893 538.051C348.133 541.414 347.87 544.793 347.112 548.078C346.386 551.223 345.115 554.216 343.356 556.922L342.534 558.187C341.624 559.587 340.496 560.832 339.192 561.875C335.632 564.723 331.208 566.275 326.648 566.275L324.349 566.275C321.407 566.275 318.506 565.59 315.875 564.274L313.154 562.914L315.768 558.433L319.876 553.205L324.211 548.509C324.308 548.404 324.419 548.314 324.54 548.241Z" fill="#D2714C" stroke="#D2714C" stroke-width="0.746824"/>
<circle cx="344.521" cy="507.649" r="11.5758" fill="#D2714C"/>
<circle cx="344.521" cy="507.649" r="11.5758" fill="#D2714C"/>
<circle cx="344.521" cy="507.649" r="11.5758" fill="#D2714C"/>
<g filter="url(#filter16_f_0_3889)">
<circle cx="344.148" cy="507.276" r="7.46824" fill="#D2714C"/>
<circle cx="344.148" cy="507.276" r="7.46824" fill="#D2714C"/>
<circle cx="344.148" cy="507.276" r="7.46824" fill="#F9D1B2"/>
</g>
<path d="M364.144 491.92C364.234 490.383 363.914 489.038 363.315 487.931C362.822 487.021 362.685 485.934 362.908 484.889C362.923 484.816 362.941 484.743 362.96 484.671L363.701 481.857C364.122 480.261 363.316 478.606 361.846 478.172C360.322 477.722 358.712 478.718 358.279 480.362L357.872 481.906C357.504 483.301 356.517 484.437 355.237 484.932C353.987 485.415 352.815 486.314 351.887 487.688C348.67 492.45 344.536 496.524 339.704 499.585C334.871 502.646 329.575 504.546 324.183 505.237C320.811 505.669 318.65 508.292 318.074 511.206C317.496 514.132 318.516 517.351 321.515 518.938C325.156 520.865 329.234 521.961 333.512 522.055C344.748 522.302 355.343 515.59 360.701 504.832C362.743 500.732 363.884 496.325 364.144 491.92Z" fill="#EEBF00"/>
<path d="M362.908 484.889C362.923 484.816 362.941 484.743 362.96 484.671L363.349 483.195L363.701 481.857C364.122 480.261 363.316 478.606 361.846 478.172C360.322 477.722 358.712 478.718 358.279 480.362L357.903 481.789L357.872 481.906C357.504 483.301 356.517 484.437 355.237 484.932C353.987 485.415 352.815 486.314 351.887 487.688C348.67 492.45 344.536 496.524 339.704 499.585C334.871 502.646 329.575 504.546 324.183 505.237C320.811 505.669 318.65 508.292 318.074 511.206C327.088 514.598 337.177 513.633 345.768 508.557C354.302 503.515 360.536 494.9 362.908 484.889Z" fill="#FFD422"/>
<path d="M363.942 481.162L364.295 479.824C364.716 478.228 363.91 476.573 362.44 476.139C360.915 475.688 359.306 476.685 358.873 478.329L358.496 479.756C360.155 480.712 362.029 481.196 363.942 481.162Z" fill="#AA6100"/>
<path d="M331.806 518.817C331.561 519.701 329.326 520.318 326.817 519.622C324.309 518.927 322.476 517.182 322.721 516.298C322.966 515.414 325.199 515.26 327.707 515.956C330.216 516.651 332.051 517.932 331.806 518.817Z" fill="white"/>
<path d="M351.935 491.097C351.461 490.631 351.939 488.915 353.369 487.458C354.799 486.001 356.641 485.355 357.115 485.82C357.588 486.285 356.813 487.844 355.383 489.301C353.953 490.758 352.409 491.562 351.935 491.097Z" fill="white" fill-opacity="0.85"/>
<defs>
<filter id="filter0_d_0_3889" x="44.5859" y="277.534" width="464.92" height="473.995" filterUnits="userSpaceOnUse" color-interpolation-filters="sRGB">
<feFlood flood-opacity="0" result="BackgroundImageFix"/>
<feColorMatrix in="SourceAlpha" type="matrix" values="0 0 0 0 0 0 0 0 0 0 0 0 0 0 0 0 0 0 127 0" result="hardAlpha"/>
<feOffset dy="6.06641"/>
<feComposite in2="hardAlpha" operator="out"/>
<feColorMatrix type="matrix" values="0 0 0 0 1 0 0 0 0 0.787333 0 0 0 0 0.468333 0 0 0 1 0"/>
<feBlend mode="normal" in2="BackgroundImageFix" result="effect1_dropShadow_0_3889"/>
<feBlend mode="normal" in="SourceGraphic" in2="effect1_dropShadow_0_3889" result="shape"/>
</filter>
<filter id="filter1_d_0_3889" x="20.0078" y="206.568" width="117.914" height="138.6" filterUnits="userSpaceOnUse" color-interpolation-filters="sRGB">
<feFlood flood-opacity="0" result="BackgroundImageFix"/>
<feColorMatrix in="SourceAlpha" type="matrix" values="0 0 0 0 0 0 0 0 0 0 0 0 0 0 0 0 0 0 127 0" result="hardAlpha"/>
<feOffset dy="6.06641"/>
<feComposite in2="hardAlpha" operator="out"/>
<feColorMatrix type="matrix" values="0 0 0 0 0.886275 0 0 0 0 0.419608 0 0 0 0 0.117647 0 0 0 1 0"/>
<feBlend mode="normal" in2="BackgroundImageFix" result="effect1_dropShadow_0_3889"/>
<feBlend mode="normal" in="SourceGraphic" in2="effect1_dropShadow_0_3889" result="shape"/>
</filter>
<filter id="filter2_d_0_3889" x="418.711" y="209.199" width="119.156" height="139.473" filterUnits="userSpaceOnUse" color-interpolation-filters="sRGB">
<feFlood flood-opacity="0" result="BackgroundImageFix"/>
<feColorMatrix in="SourceAlpha" type="matrix" values="0 0 0 0 0 0 0 0 0 0 0 0 0 0 0 0 0 0 127 0" result="hardAlpha"/>
<feOffset dy="6.06641"/>
<feComposite in2="hardAlpha" operator="out"/>
<feColorMatrix type="matrix" values="0 0 0 0 0.886275 0 0 0 0 0.419608 0 0 0 0 0.117647 0 0 0 1 0"/>
<feBlend mode="normal" in2="BackgroundImageFix" result="effect1_dropShadow_0_3889"/>
<feBlend mode="normal" in="SourceGraphic" in2="effect1_dropShadow_0_3889" result="shape"/>
</filter>
<filter id="filter3_d_0_3889" x="73.335" y="166.438" width="409.753" height="158.495" filterUnits="userSpaceOnUse" color-interpolation-filters="sRGB">
<feFlood flood-opacity="0" result="BackgroundImageFix"/>
<feColorMatrix in="SourceAlpha" type="matrix" values="0 0 0 0 0 0 0 0 0 0 0 0 0 0 0 0 0 0 127 0" result="hardAlpha"/>
<feOffset dy="6.06641"/>
<feComposite in2="hardAlpha" operator="out"/>
<feColorMatrix type="matrix" values="0 0 0 0 0.886275 0 0 0 0 0.419608 0 0 0 0 0.117647 0 0 0 1 0"/>
<feBlend mode="normal" in2="BackgroundImageFix" result="effect1_dropShadow_0_3889"/>
<feBlend mode="normal" in="SourceGraphic" in2="effect1_dropShadow_0_3889" result="shape"/>
</filter>
<filter id="filter4_d_0_3889" x="68.7402" y="627.747" width="414.102" height="99.6282" filterUnits="userSpaceOnUse" color-interpolation-filters="sRGB">
<feFlood flood-opacity="0" result="BackgroundImageFix"/>
<feColorMatrix in="SourceAlpha" type="matrix" values="0 0 0 0 0 0 0 0 0 0 0 0 0 0 0 0 0 0 127 0" result="hardAlpha"/>
<feOffset dy="6.06641"/>
<feComposite in2="hardAlpha" operator="out"/>
<feColorMatrix type="matrix" values="0 0 0 0 1 0 0 0 0 0.835982 0 0 0 0 0.251667 0 0 0 1 0"/>
<feBlend mode="normal" in2="BackgroundImageFix" result="effect1_dropShadow_0_3889"/>
<feBlend mode="normal" in="SourceGraphic" in2="effect1_dropShadow_0_3889" result="shape"/>
</filter>
<filter id="filter5_d_0_3889" x="74.8418" y="632.299" width="401.942" height="84.4587" filterUnits="userSpaceOnUse" color-interpolation-filters="sRGB">
<feFlood flood-opacity="0" result="BackgroundImageFix"/>
<feColorMatrix in="SourceAlpha" type="matrix" values="0 0 0 0 0 0 0 0 0 0 0 0 0 0 0 0 0 0 127 0" result="hardAlpha"/>
<feOffset dy="6.06641"/>
<feComposite in2="hardAlpha" operator="out"/>
<feColorMatrix type="matrix" values="0 0 0 0 0.929167 0 0 0 0 0.72458 0 0 0 0 0 0 0 0 1 0"/>
<feBlend mode="normal" in2="BackgroundImageFix" result="effect1_dropShadow_0_3889"/>
<feBlend mode="normal" in="SourceGraphic" in2="effect1_dropShadow_0_3889" result="shape"/>
</filter>
<filter id="filter6_f_0_3889" x="148.487" y="408.551" width="52.6515" height="52.6514" filterUnits="userSpaceOnUse" color-interpolation-filters="sRGB">
<feFlood flood-opacity="0" result="BackgroundImageFix"/>
<feBlend mode="normal" in="SourceGraphic" in2="BackgroundImageFix" result="shape"/>
<feGaussianBlur stdDeviation="2.28764" result="effect1_foregroundBlur_0_3889"/>
</filter>
<filter id="filter7_f_0_3889" x="143.596" y="421.374" width="51.9428" height="48.8029" filterUnits="userSpaceOnUse" color-interpolation-filters="sRGB">
<feFlood flood-opacity="0" result="BackgroundImageFix"/>
<feBlend mode="normal" in="SourceGraphic" in2="BackgroundImageFix" result="shape"/>
<feGaussianBlur stdDeviation="6.70593" result="effect1_foregroundBlur_0_3889"/>
</filter>
<filter id="filter8_f_0_3889" x="331.552" y="408.551" width="52.6515" height="52.6514" filterUnits="userSpaceOnUse" color-interpolation-filters="sRGB">
<feFlood flood-opacity="0" result="BackgroundImageFix"/>
<feBlend mode="normal" in="SourceGraphic" in2="BackgroundImageFix" result="shape"/>
<feGaussianBlur stdDeviation="2.28764" result="effect1_foregroundBlur_0_3889"/>
</filter>
<filter id="filter9_f_0_3889" x="337.774" y="421.777" width="50.6872" height="47.9955" filterUnits="userSpaceOnUse" color-interpolation-filters="sRGB">
<feFlood flood-opacity="0" result="BackgroundImageFix"/>
<feBlend mode="normal" in="SourceGraphic" in2="BackgroundImageFix" result="shape"/>
<feGaussianBlur stdDeviation="6.50408" result="effect1_foregroundBlur_0_3889"/>
</filter>
<filter id="filter10_f_0_3889" x="411.205" y="462.013" width="30.7706" height="30.3224" filterUnits="userSpaceOnUse" color-interpolation-filters="sRGB">
<feFlood flood-opacity="0" result="BackgroundImageFix"/>
<feBlend mode="normal" in="SourceGraphic" in2="BackgroundImageFix" result="shape"/>
<feGaussianBlur stdDeviation="4.77713" result="effect1_foregroundBlur_0_3889"/>
</filter>
<filter id="filter11_f_0_3889" x="171.811" y="342.831" width="185.254" height="102.271" filterUnits="userSpaceOnUse" color-interpolation-filters="sRGB">
<feFlood flood-opacity="0" result="BackgroundImageFix"/>
<feBlend mode="normal" in="SourceGraphic" in2="BackgroundImageFix" result="shape"/>
<feGaussianBlur stdDeviation="8.07403" result="effect1_foregroundBlur_0_3889"/>
</filter>
<filter id="filter12_f_0_3889" x="296.108" y="460.847" width="42.3497" height="35.0991" filterUnits="userSpaceOnUse" color-interpolation-filters="sRGB">
<feFlood flood-opacity="0" result="BackgroundImageFix"/>
<feBlend mode="normal" in="SourceGraphic" in2="BackgroundImageFix" result="shape"/>
<feGaussianBlur stdDeviation="3.79031" result="effect1_foregroundBlur_0_3889"/>
</filter>
<filter id="filter13_f_0_3889" x="201.462" y="460.847" width="42.3497" height="35.0991" filterUnits="userSpaceOnUse" color-interpolation-filters="sRGB">
<feFlood flood-opacity="0" result="BackgroundImageFix"/>
<feBlend mode="normal" in="SourceGraphic" in2="BackgroundImageFix" result="shape"/>
<feGaussianBlur stdDeviation="3.79031" result="effect1_foregroundBlur_0_3889"/>
</filter>
<filter id="filter14_f_0_3889" x="211.258" y="539.78" width="24.0642" height="22.9013" filterUnits="userSpaceOnUse" color-interpolation-filters="sRGB">
<feFlood flood-opacity="0" result="BackgroundImageFix"/>
<feBlend mode="normal" in="SourceGraphic" in2="BackgroundImageFix" result="shape"/>
<feGaussianBlur stdDeviation="1.93452" result="effect1_foregroundBlur_0_3889"/>
</filter>
<filter id="filter15_f_0_3889" x="235.189" y="519.314" width="68.3412" height="79.3339" filterUnits="userSpaceOnUse" color-interpolation-filters="sRGB">
<feFlood flood-opacity="0" result="BackgroundImageFix"/>
<feBlend mode="normal" in="SourceGraphic" in2="BackgroundImageFix" result="shape"/>
<feGaussianBlur stdDeviation="6.99057" result="effect1_foregroundBlur_0_3889"/>
</filter>
<filter id="filter16_f_0_3889" x="333.692" y="496.82" width="20.9111" height="20.9111" filterUnits="userSpaceOnUse" color-interpolation-filters="sRGB">
<feFlood flood-opacity="0" result="BackgroundImageFix"/>
<feBlend mode="normal" in="SourceGraphic" in2="BackgroundImageFix" result="shape"/>
<feGaussianBlur stdDeviation="1.49365" result="effect1_foregroundBlur_0_3889"/>
</filter>
<linearGradient id="paint0_linear_0_3889" x1="210.739" y1="9.257" x2="235.485" y2="227.964" gradientUnits="userSpaceOnUse">
<stop stop-color="#FFDF6E" stop-opacity="0"/>
<stop offset="1" stop-color="#FFCD1B" stop-opacity="0.5"/>
</linearGradient>
<linearGradient id="paint1_linear_0_3889" x1="350.037" y1="8.39288" x2="324.4" y2="226.998" gradientUnits="userSpaceOnUse">
<stop stop-color="#FFDF6E" stop-opacity="0"/>
<stop offset="1" stop-color="#FFCD1B" stop-opacity="0.5"/>
</linearGradient>
<linearGradient id="paint2_linear_0_3889" x1="101.557" y1="62.1044" x2="155.072" y2="243.286" gradientUnits="userSpaceOnUse">
<stop stop-color="#FFDF6E" stop-opacity="0"/>
<stop offset="1" stop-color="#FFCD1B" stop-opacity="0.5"/>
</linearGradient>
<linearGradient id="paint3_linear_0_3889" x1="459.005" y1="61.6846" x2="404.752" y2="242.647" gradientUnits="userSpaceOnUse">
<stop stop-color="#FFDF6E" stop-opacity="0"/>
<stop offset="1" stop-color="#FFCD1B" stop-opacity="0.5"/>
</linearGradient>
<linearGradient id="paint4_linear_0_3889" x1="33.6045" y1="146.233" x2="94.8703" y2="266.467" gradientUnits="userSpaceOnUse">
<stop stop-color="#FFDF6E" stop-opacity="0"/>
<stop offset="1" stop-color="#FFCD1B" stop-opacity="0.5"/>
</linearGradient>
<linearGradient id="paint5_linear_0_3889" x1="526.612" y1="146.089" x2="464.856" y2="266.072" gradientUnits="userSpaceOnUse">
<stop stop-color="#FFDF6E" stop-opacity="0"/>
<stop offset="1" stop-color="#FFCD1B" stop-opacity="0.5"/>
</linearGradient>
<linearGradient id="paint6_linear_0_3889" x1="47.702" y1="144.221" x2="71.7268" y2="274.079" gradientUnits="userSpaceOnUse">
<stop stop-color="#FFCF25"/>
<stop offset="1" stop-color="#FD8C43"/>
</linearGradient>
<linearGradient id="paint7_linear_0_3889" x1="511.518" y1="147.792" x2="485.496" y2="277.265" gradientUnits="userSpaceOnUse">
<stop stop-color="#FFCF25"/>
<stop offset="1" stop-color="#FD8C43"/>
</linearGradient>
<linearGradient id="paint8_linear_0_3889" x1="279.437" y1="86.097" x2="278.188" y2="248.369" gradientUnits="userSpaceOnUse">
<stop stop-color="#FFCF25"/>
<stop offset="1" stop-color="#FD8C43"/>
</linearGradient>
<linearGradient id="paint9_linear_0_3889" x1="264.438" y1="358.979" x2="264.438" y2="428.954" gradientUnits="userSpaceOnUse">
<stop stop-color="#8F3B1B"/>
<stop offset="0.280912" stop-color="#A24A29" stop-opacity="0.94"/>
<stop offset="1" stop-color="#D2714C" stop-opacity="0.78"/>
</linearGradient>
</defs>
</svg>
