<?xml version="1.0" encoding="UTF-8" standalone="no"?>
<!-- Created with Inkscape (http://www.inkscape.org/) -->

<svg
   xmlns:dc="http://purl.org/dc/elements/1.1/"
   xmlns:cc="http://creativecommons.org/ns#"
   xmlns:rdf="http://www.w3.org/1999/02/22-rdf-syntax-ns#"
   xmlns:svg="http://www.w3.org/2000/svg"
   xmlns="http://www.w3.org/2000/svg"
   xmlns:xlink="http://www.w3.org/1999/xlink"
   xmlns:sodipodi="http://sodipodi.sourceforge.net/DTD/sodipodi-0.dtd"
   xmlns:inkscape="http://www.inkscape.org/namespaces/inkscape"
   id="svg2"
   sodipodi:docname="greengrapes.svg"
   viewBox="0 0 407.5 312.86"
   version="1.1"
   inkscape:version="0.91 r13725">
  <defs
     id="defs6">
    <linearGradient
       inkscape:collect="always"
       id="linearGradient4094">
      <stop
         offset="0"
         style="stop-color:#7fff2a"
         id="stop10474" />
      <stop
         offset="1"
         style="stop-color:#71c837"
         id="stop10476" />
    </linearGradient>
    <linearGradient
       id="linearGradient10478"
       inkscape:collect="always">
      <stop
         id="stop4098"
         style="stop-color:#7fff2a"
         offset="0" />
      <stop
         id="stop4096"
         style="stop-color:#1a7437;stop-opacity:1"
         offset="1" />
    </linearGradient>
    <clipPath
       id="clipPath4090"
       clipPathUnits="userSpaceOnUse">
      <path
         id="path4092"
         style="fill:#5aa02c"
         inkscape:connector-curvature="0"
         d="m73.781-114.62c-0.75174-0.00074-1.4651 0.0318-2.1875 0.125-3.1595 0.15807-6.5157 1.7723-9.25 4.7188-2.3782 3.5088-2.8696 6.8354-2.2812 9.4062 0.14115 0.82914 0.31977 1.6065 0.5 2.3125 0.44799 1.7549 0.99091 3.2165 1.4688 4.4375 0.41265 1.2114 0.78808 2.189 1.0312 3-0.10788-0.01829-0.16431-0.04421-0.28125-0.0625-1.1688-0.24892-2.6737-0.61135-4.5312-0.8125-1.7451-0.29203-4.0484-0.05823-6.6562 0.96875-2.4129 1.101-4.6892 2.6511-6.6875 4.625-2.0926 1.9236-3.7708 4.7383-4.5 8.2812-0.36587 3.919 0.60856 7.0919 2.125 9.25 1.1612 1.8568 2.3706 3.3494 3.4688 4.625-1.5866 0.26739-3.1697 0.84892-4.5312 1.9375-1.665 1.3989-2.701 3.3822-3.1562 5.4375-0.55474 1.875-0.40889 4.3373 1.375 6.125 2.7543 2.1626 6.4996 2.0121 9.4062 0.8125 0.381-0.13145 0.77791-0.27297 1.1562-0.4375-0.15829 0.32323-0.35314 0.66028-0.53125 1-0.87948 1.5685-2.0275 3.1346-3.125 4.7812-1.1698 1.6981-2.2982 3.6269-3.0625 5.7188-0.88138 2.3613-0.85682 4.9009-0.125 7.0938 0.84156 1.9849 2.0245 3.0152 3.0312 3.5625 1.4444 0.9158 2.7125 1.4166 3.7812 1.75 2.9082 0.66822 4.5061 0.80695 4.6562 0.40625 0.10425-0.27825-1.2752-1.0534-3.875-2.2812-0.89745-0.50782-1.9318-1.1268-2.9375-2-0.69646-0.60619-1.4268-1.3707-1.6562-2.3438-0.36716-1.4634-0.16445-3.1696 0.5625-4.7812 0.69758-1.5449 1.7979-3.0049 3.0312-4.5625 1.1696-1.4687 2.4787-3.0016 3.6875-4.7812 1.0451-1.5241 2.029-3.3101 2.4062-5.4062 0.23068-1.3013 0.46649-2.6857 0.53125-4.1562 0.79701-2.0836 0.54231-4.3295-0.375-6.1562-0.99804-2.0381-2.3782-3.7222-3.6875-5.2812-1.3514-1.6421-2.6897-3.1726-3.6562-4.8438-0.78102-1.4315-1.3911-2.9521-1.0938-4.2188 0.21529-1.4807 1.2188-2.8861 2.4375-4.125 1.284-1.2634 2.8629-2.2859 4.5625-3.0625 0.67103-0.35281 1.634-0.35534 2.6875-0.28125 1.159 0.11356 2.385 0.44085 3.7188 0.71875 1.2226 0.27369 2.5937 0.52882 4.125 0.46875 1.4572-0.04992 2.9603-0.65058 4.125-1.8438 1.4821-1.7774 1.9028-3.9906 1.5938-5.9375-0.29927-2.1715-1.0279-4.098-1.6875-5.875-0.65807-1.8453-1.3378-3.5633-1.5625-5.2188-0.12989-1.319-0.0518-2.6189 0.625-3.2812 0.78663-1.0871 2.4091-1.6242 4.0625-1.875 1.7656-0.19363 3.5844 0.00031 5.125 0.6875 0.87403 0.34975 1.6366 1.1496 2.2812 2.0625 0.71241 1.0294 1.2446 2.2907 1.8125 3.625 1.0449 2.7044 2.2798 5.9227 5.0938 8.2188 2.5552 1.8685 5.4479 2.6788 8.0938 3.2188 2.7422 0.61479 5.3241 1.0066 7.4375 2.0312 6.2057 2.9058 11.811 6.601 17.062 10.25 1.8187 1.2638 3.7145 2.6208 5.7188 4.0625 3.2279 2.3311 6.7219 4.879 10.562 7.4375 3.8406 2.5585 8.0216 5.1257 12.719 7.375 6.2644 2.9773 13.305 5.1674 20.688 6.8125 7.2121 1.6278 14.971 2.9503 23.188 2.8438 7.2845-0.14219 14.453-1.7668 21.375-3.375 6.7054-1.5081 13.315-3.0413 19.719-2.9375 4.0415 0.0054 8.3034 0.97566 12.812 2 4.4874 1.0664 9.292 2.2392 14.531 2.5938 10.209 0.63727 20.406 0.08628 30.281-1.1562 6.0205-0.73035 12.106-1.5439 18.125-2.75 6.0194-1.2061 11.956-2.8117 17.688-5.0312 4.0422-1.6414 7.4219-3.7416 10.406-5.7812 0.64303 0.28769 1.2151 0.64162 1.625 1.125 0.86365 0.88842 1.503 2.1376 1.875 3.5625 0.36299 1.3905 0.4713 2.9965 0.5 4.75 0.009 1.6034-0.0934 3.3404-0.0937 5.2188-0.00036 1.8784 0.0895 3.8799 0.53125 6.0312 0.46903 2.1816 0.67705 4.6526 1.1875 7.3438 0.4394 2.4861 1.2424 5.1962 2.9688 7.75 1.9067 2.6615 4.2894 4.9494 6.9375 6.9375 2.6482 1.9881 5.558 3.6895 8.4688 5.2188 2.7186 1.484 5.5026 2.88 8.125 4.4062s5.084 3.1976 7.1875 5.2188c2.3614 2.2178 4.7914 4.0974 6.7188 6.1562 1.748 1.9655 3.263 3.9725 3.4688 6 0.23312 0.95838-0.15816 2.2272-0.71875 3.5625-0.68488 1.5061-1.7652 3.0212-2.9062 4.7188-1.1307 1.632-2.3738 3.4658-3.3438 5.6562-0.9548 2.0685-1.3827 4.6008-0.84375 7.25 0.70752 2.9256 2.2227 5.5131 4.2188 7.5625 0.96816 1.0416 2.2128 2.013 3.7188 2.7188 1.4308 0.68064 3.1392 0.9031 4.9375 0.5625 1.5644-0.35887 2.9052-1.1968 3.9062-2.4062 0.96889-1.2523 1.5253-2.5351 1.8125-3.6875 0.75759-2.8227 0.86421-5.4539 0.96875-7.7812 0.16516-2.4214 0.18838-4.5629 0.75-6.25 0.23567-0.60654 0.38014-1.0449 0.5625-1.1562 0.003-0.03942 0.0436-0.09298 0.125-0.125 0.38623 0.67712 0.56115 1.733 0.875 3.0312 0.27774 1.3524 0.60573 2.9413 1.2812 4.5938 0.2861 0.72827 0.75353 1.5339 1.4375 2.3125 0.68775 0.76227 1.6056 1.3266 2.6875 1.625 3.2786 0.69496 6.269-0.20344 8.5-1.6875 2.4378-1.4013 4.5117-3.7543 5.3438-6.7188 0.30024-1.2522 0.22233-2.5034-0.125-3.6562-0.37689-1.1892-0.91432-2.1689-1.5312-2.9688-1.47-1.9269-3.1202-3.3238-4.5625-4.5625-1.5478-1.377-2.9697-2.5361-3.875-3.8125-0.38466-0.55254-0.67342-1.0376-0.78125-1.5-0.12225-0.4185-0.12555-0.89496 0-1.3125 0.1498-0.78938 0.72971-1.4472 1.4688-2 0.73905-0.55285 1.6594-1.0158 2.5312-1.375 2.4176-0.87003 4.769-1.017 6.75-0.8125 0.62905 0.017131 1.3124 0.40716 1.9688 0.78125 0.89841 0.53374 1.638 1.1296 2.2812 1.6562 1.7216 1.6058 2.7301 2.3611 2.9375 2.2188 0.18112-0.17245-0.435-1.2644-1.8438-3.25-0.55373-0.68697-1.2559-1.45-2.2188-2.25-0.64845-0.56087-1.4891-1.1676-2.7188-1.4688-2.2571-0.5211-5.067-0.67811-8.0938 0.125-1.177 0.27041-2.4359 0.77777-3.5938 1.5938-1.1578 0.81598-2.2027 1.9578-2.9062 3.5312-0.40261 1.0449-0.5346 2.2082-0.3125 3.375 0.23427 1.1124 0.69403 2.1026 1.25 2.9375 1.2104 1.8443 2.761 3.3624 4.2188 4.75 1.4001 1.3757 2.8166 2.6383 3.75 4.0625 0.36648 0.57134 0.6554 1.0882 0.75 1.5625 0.0906 0.39249 0.0851 0.82118-0.0312 1.1562-0.29779 1.3408-1.6597 2.5581-3.25 3.5625-1.5964 0.80172-3.3385 1.3929-4.5625 0.90625 0.0269 0.02153-0.011-0.04029-0.0625-0.09375-0.11494-0.10299-0.23459-0.36766-0.40625-0.75-0.39129-0.93589-0.58084-2.1763-0.875-3.625-0.20505-1.2501-0.48389-2.8048-1.2812-4.5312-0.30339-0.713-0.88643-1.514-1.8125-2.25-1.0422-0.69683-2.1682-0.98876-3.25-0.90625-1.4764 0.07247-2.9231 0.68793-4.125 1.8125-1.0788 1.1456-1.7205 2.3634-2.0312 3.4688-0.84483 2.7191-0.99332 5.3335-1.125 7.625-0.19527 2.4329-0.26217 4.6604-0.84375 6.5-0.24461 0.69898-0.42394 1.2579-0.6875 1.5-0.12706 0.15852-0.35447 0.29548-0.53125 0.3125-0.22719 0.09666-0.69114-0.03927-1.1562-0.21875-0.57964-0.24036-1.1612-0.75283-1.7812-1.375-1.2743-1.3765-2.2411-3.036-2.625-4.75-0.29027-0.87602 0.0147-2.0797 0.5-3.3438 0.61204-1.4705 1.6362-2.9583 2.75-4.625 1.1294-1.6393 2.3893-3.4492 3.4062-5.5938 0.99975-2.0119 1.5407-4.4835 1.1875-7.1562-0.74439-3.857-2.8016-6.9513-5.125-9.25-2.3862-2.4589-4.9218-4.3921-7.0625-6.3438-5.2963-4.759-11.378-7.5169-16.75-10.219-2.8304-1.4823-5.5545-2.956-7.9375-4.5938-2.383-1.6377-4.4126-3.4311-5.9375-5.5312-1.2089-1.5191-1.8377-3.621-2.375-5.7812-0.55248-2.3654-0.90983-4.8776-1.5625-7.375-0.46173-1.6175-0.6053-3.3401-0.6875-5.0938s-0.11501-3.5268-0.25-5.2812c-0.12691-1.8884-0.38519-3.8066-0.96875-5.5938-0.62329-1.9163-1.7055-3.5975-3.0938-4.8438-0.33021-0.27768-0.69379-0.50749-1.0312-0.71875 2.4506-1.6576 4.7491-3.1995 6.9375-4.2188 2.1151-1.037 4.3956-1.8926 6.75-2.7188 0.0337 0.03041 0.0938 0.09829 0.125 0.125 0.13155 0.1128 0.226 0.20401 0.3125 0.25 0.0443 0.02353 0.0923 0.02545 0.125 0.03125 0.0729-0.02034 0.0615-0.001 0.0625 0-0.0005-0.0014 0.0141-0.03553 0.0625-0.09375 0.008-0.03238 0.004-0.07446 0-0.125-0.008-0.09825-0.0399-0.20886-0.0937-0.375-0.002-0.0063 0.002-0.02482 0-0.03125 0.66194-0.22944 1.3273-0.4591 2-0.6875 3.2817-1.1143 6.6868-2.2444 10.031-3.6562 8.5073-3.6105 15.967-7.4094 22.531-10.812 4.9403-2.5498 9.11-5.0958 12.75-7.3125s6.7599-4.1057 9.375-5.6562c2.1572-1.3088 4.141-2.3798 5.625-3.375 1.0406-0.70042 1.8523-1.3517 2.375-1.9375 0.29146-0.32664 0.50597-0.61403 0.625-0.90625 0.0622-0.15284 0.0801-0.32525 0.0937-0.46875 0.0218-0.0235 0.0677 0.0257 0.0937 0.0625-0.0138-0.0324 0.002-0.0428-0.0312-0.125-0.0589-0.14736-0.16945-0.39825-0.3125-0.78125-0.0928-0.1206-0.19999-0.23319-0.34375-0.34375-0.20358-0.15735-0.4731-0.30134-0.78125-0.4375-0.0491-0.0217-0.14206-0.0373-0.28125-0.0312-0.46402 0.0215-1.426 0.194-2.8438 0.53125-0.79494 0.18744-1.7391 0.44238-2.8438 0.75s-2.3737 0.67783-3.7812 1.1875c-2.9697 1.0799-6.466 2.5742-10.406 4.4375-3.9402 1.8633-8.3057 4.113-13.125 6.25-6.7219 2.984-14.228 6.4303-22.531 9.6875-2.895 1.1363-6.09 2.1011-9.4688 3.1875-1.4068 0.45233-2.8453 0.9192-4.3125 1.4375-0.22033-0.27417-0.449-0.53095-0.6875-0.8125-0.99755-1.1908-2.2097-2.4978-3.875-3.6562-1.2989-0.8533-2.7625-1.485-4.3125-1.9375s-3.193-0.73049-4.7812-0.96875c-2.9886-0.47803-6.1536-0.42436-9.3125-0.28125-2.8395 0.10676-5.6914 0.2784-8.4375-0.15625-1.136-0.0981-2.4823-1.0003-4.375-1.8438-0.84551-0.416-1.8753-0.83488-3.0938-1.0938-1.1864-0.2541-2.518-0.20602-3.875 0.28125-2.0302 0.81689-3.6894 2.23-4.8125 3.9375-1.2055 1.5684-1.9195 3.8477-1.4375 6.4688 0.23733 0.85642 0.61723 1.5973 1.0938 2.25-1.4106-0.36926-2.9026-0.79692-4.5-1.1562-2.7822-0.69797-6.0274-1.0038-9.4062-0.09375-1.9388 0.77507-3.3548 1.8909-4.375 3 0.18358-1.2943 0.093-2.7052-0.375-4.125-0.65079-1.7032-1.7654-3.0433-3.0938-3.9375-1.2248-1.0146-3.1021-1.6066-5.3438-1.2812-1.1894 0.31469-2.2482 0.81428-3.1875 1.4375 0.0509-0.18897 0.10448-0.37273 0.15625-0.5625 0.006-0.37752 0.50642-0.87813 1.0938-1.5625 0.70592-0.73028 1.5902-1.4387 2.5-2.25 0.79871-0.66029 1.737-1.5711 2.5-2.8438 0.77133-1.3946 0.72578-3.0418-0.0937-4.5-0.60345-0.96657-1.5553-1.7291-2.75-2.125-1.2013-0.30609-2.2707-0.23573-3.125 0-2.3319 0.5892-4.0834 1.65-5.5938 2.5312-1.9411 1.086-3.5779 2.0671-5.1562 2.625-0.75463 0.26059-1.4535 0.46305-2.0625 0.46875-0.57436 0.01178-1.1205-0.12275-1.5312-0.375-0.43779-0.15511-0.7115-0.8137-1-1.4688-0.37161-0.95805-0.53062-1.9312-0.65625-2.7812-0.15875-2.5906-0.38668-3.9325-0.65625-3.9375-0.26837-0.005-0.57662 1.3166-0.9375 3.9375-0.055 0.92498-0.0843 2.0317 0.1875 3.3438 0.14896 0.88842 0.54488 2.006 1.625 2.9375 0.79375 0.61004 1.7768 0.97833 2.8438 1.0625 1.03 0.07799 2.0649-0.05298 3.0312-0.3125 1.9925-0.52123 3.988-1.4501 5.9375-2.375 1.6554-0.75493 3.2284-1.5938 4.7812-1.8125 0.51416-0.04888 0.9157-0.09601 1.0938 0.03125 0.1136 0.01563 0.29327 0.21157 0.4375 0.4375-0.0124 0.01005-0.0795 0.09642-0.125 0.125-0.23973 0.45388-0.87443 0.91586-1.6562 1.5938-0.84521 0.67464-1.8336 1.414-2.8438 2.3438-0.89088 0.74551-1.8266 1.85-2.4375 3.5-0.69281 2.0711-1.3662 4.3676-1.5938 6.9688-0.23061 1.8286 0.0175 3.9587 1.0625 5.9688 0.0517 0.30251 0.10687 0.59832 0.1875 0.90625 1.2694 3.1064 3.7276 4.9984 6.1875 5.6875 2.4353 0.86958 5.1156 1.1309 7.75 0.71875 1.6722-0.33022 2.9996-1.0649 3.9688-2 1.001-0.9318 1.7516-1.8527 2.3438-2.6562 1.3804-1.5116 2.0762-2.9168 2.6875-2.7812 1.6983-0.60429 3.9008-0.24076 6.2812 0.21875 2.4641 0.55034 5.1505 1.4307 8.1875 1.9062 1.0352 0.11651 2.2389 0.63463 3.6562 1.2188 1.5054 0.65338 3.0803 1.4325 4.8125 2.125 1.3178 0.60088 3.107 1.2017 5.3125 1.2188 0.93809 0.01254 2.0054-0.29305 3.0938-0.96875 1.1095-0.84584 1.7978-1.8336 2.0938-2.8125 0.50095-1.1377 0.48144-2.6366-0.21875-4.2812-0.86933-1.3777-1.8658-2.1934-2.75-2.5312-2.3402-1.0975-4.5547-1.4326-6.3438-1.7188-2.1821-0.41645-4.1507-0.71467-5.7812-1.3438-0.68291-0.27822-1.2394-0.51751-1.5625-0.8125-0.22521-0.21009-0.40825-0.41918-0.40625-0.53125-0.27414-0.3387 0.14647-1.1789 0.59375-2.0938 0.63788-0.93831 1.4098-1.7359 2.25-2.0625 0.19591-0.13135 0.60044-0.13571 1.0312-0.09375 0.53576 0.06226 1.157 0.32097 1.9062 0.625 1.5182 0.69656 3.4288 1.7104 5.8438 2.0625 3.4222 0.3474 6.5528 0.02612 9.375-0.25 3.1451-0.28325 5.9704-0.54182 8.5-0.28125 1.6166 0.1907 3.1107 0.34291 4.4375 0.59375s2.4744 0.61392 3.4375 1.1875c1.3349 0.73514 2.4909 1.7744 3.5625 2.7812-1.1786 0.46141-2.3631 0.94716-3.5625 1.5-3.8353 1.8203-7.2574 4.1379-10.469 6.3125-3.1014 2.0505-6.0376 4.0098-9.0938 5.1562-4.9431 1.9531-10.279 3.3764-15.875 4.5-5.5958 1.1236-11.447 1.9559-17.469 2.7812-9.3127 1.2393-18.877 1.8877-28.406 1.4062-4.0237-0.16923-8.3041-1.1777-12.938-2.1562-4.5774-1.0206-9.5594-1.9863-14.969-1.9688-7.1996 0.13472-13.954 1.6328-20.281 3.2188-0.35964-0.61011-0.7124-1.2405-1.0625-1.9062-0.0926-0.17602-0.19286-0.35193-0.28125-0.53125 1.8267 0.45271 3.8348 0.54105 5.9062 0.0625 2.9404-0.97864 4.9665-3.0317 6-5.25 1.2968-2.097 1.7731-5.0245 0.6875-8.0312-1.5431-2.9652-4.1029-4.5455-6.5-5-2.439-0.74576-5.3389-0.56347-7.9062 0.875-2.2526 1.6065-3.3863 3.7344-3.8438 5.75-0.13648-0.24002-0.26476-0.47183-0.375-0.71875-0.2723-0.34689-0.24566-1.079-0.125-1.875 0.20038-1.0238 0.73867-2.1404 1.2812-3.375 0.60241-1.3126 1.2654-2.7335 1.7188-4.2812 0.50243-1.584 0.59384-3.4258 0.125-5.1562-0.6127-1.8427-1.5967-3.0822-2.5-4.0312-1.2521-1.3751-2.4868-2.3973-3.5625-3.1875-1.3453-0.9915-2.4682-1.6312-3.3125-2.0312-0.47919-0.22713-0.89624-0.37407-1.1875-0.4375-0.1547-0.03401-0.276-0.04105-0.375-0.03125-0.0914 0.06079-0.12425 0.08297-0.15625 0.09375-0.0317 0.0107-0.0615 0.000716-0.0625 0 0.001 0.00096 0.00078-0.0022 0 0.03125-0.0008 0.03379-0.00005 0.11316-0.0312 0.21875 0.0181 0.09702 0.0548 0.20659 0.125 0.34375 0.13419 0.26043 0.37398 0.59068 0.6875 1 0.55256 0.72148 1.379 1.6644 2.375 2.875 0.79828 0.9723 1.6996 2.0952 2.5312 3.4062 0.59079 0.9769 1.1982 1.955 1.2812 2.8438 0.14114 0.66424-0.10755 1.5225-0.46875 2.5312-0.4076 1.0367-1.0868 2.1451-1.8125 3.4688-0.66936 1.1711-1.4001 2.5462-1.9375 4.2812-0.51586 1.584-0.60224 3.5161 0.125 5.5312 1.2176 2.977 3.3464 5.5816 5.9688 7.4688 0.01 0.04089 0.0211 0.08436 0.0312 0.125 0.55499 2.1102 1.5119 3.7079 2.4688 5 0.20758 0.2803 0.41775 0.55983 0.625 0.8125-6.0921 1.4907-11.911 2.8685-17.438 3-6.9746 0.25692-14.082-0.81295-21.188-2.25-6.7928-1.4165-13.244-3.2356-19-5.9062-7.8457-3.5598-14.994-8.7425-22.125-13.812-3.8678-2.7847-7.777-5.5572-11.75-8.125s-8.0354-4.9392-12.219-6.9375c-3.5661-1.5757-6.6582-2.1476-9.0625-2.625-2.4418-0.66674-4.3042-1.0176-5.0625-1.8125-0.74765-0.000642-1.1617-2.2386-2.5938-5-0.57121-1.4465-1.3713-3.1726-2.5625-5-1.2124-1.9191-3.1174-3.6315-5.625-4.8438-2.3427-0.99912-4.7135-1.4353-6.9688-1.4375zm-9.031 24.214c0.06298-0.01819 0.11139-0.02263 0.15625 0-0.043 0.01723-0.10966 0.03272-0.1875 0.03125 0.01137-0.0042 0.02059-0.02817 0.03125-0.03125zm210.28 8.1875c0.0908 0.04362 0.33823 0.17513 0.6875 0.3125 0.49725 0.38227 0.92732 0.7917 1.0312 1.1562 0.24005 0.46746 0.16771 1.2345 0 2.0312-0.2697 0.7584-0.53383 1.4452-0.90625 1.625-0.58278 0.50366-1.6729 0.6342-2.7812 0.625-0.6392-0.08251-1.2103-0.22186-1.6875-0.40625-0.10993-0.69039 0.35001-1.8011 0.875-2.9062 0.88303-1.242 1.8545-2.3469 2.7812-2.4375zm-60.906 6.1875c0.61279 0.02284 1.3107 0.12277 2.0312 0.28125 1.255 0.54578 2.4658 1.0882 2.4688 1.7188 0.37555 0.39041-0.0879 1.5297-0.5625 2.75-0.7496 1.121-1.5348 2.1386-2.25 2.1875-1.3981 0.58816-3.4268-0.19406-5.3438-1.2188 0.0403-0.71559 0.13121-1.4521 0.28125-2.1562 0.44865-1.533 0.96534-3.0587 1.875-3.25 0.35704-0.25123 0.88721-0.33534 1.5-0.3125zm-165.9 18.03c0.58172 0.02627 1.1297 0.03043 1.5938 0.09375-0.55066 0.6615-1.8066 1.339-3.125 2.0625-0.80231 0.10054-1.4853 0.28034-2 0.4375 0.23503-0.78431 0.47984-1.4557 0.78125-1.6562 0.33687-0.53854 1.4813-0.76281 2.75-0.9375zm-4.25 2.75c0.0091 0.02612 0.02224 0.03757 0.03125 0.0625-0.12875 0.03392-0.16917 0.03963-0.03125-0.0625z" />
    </clipPath>
    <filter
       id="filter4776"
       height="1.9939"
       width="2.1426"
       color-interpolation-filters="sRGB"
       y="-.49697"
       x="-.57129"
       inkscape:collect="always">
      <feGaussianBlur
         id="feGaussianBlur4778"
         stdDeviation="0.92991509"
         inkscape:collect="always" />
    </filter>
    <filter
       id="filter4780"
       height="2.1514"
       width="1.7656"
       color-interpolation-filters="sRGB"
       y="-.57570"
       x="-.38278"
       inkscape:collect="always">
      <feGaussianBlur
         id="feGaussianBlur4782"
         stdDeviation="0.92991509"
         inkscape:collect="always" />
    </filter>
    <filter
       id="filter4784"
       height="1.8101"
       width="2.1267"
       color-interpolation-filters="sRGB"
       y="-.40505"
       x="-.56333"
       inkscape:collect="always">
      <feGaussianBlur
         id="feGaussianBlur4786"
         stdDeviation="0.92991509"
         inkscape:collect="always" />
    </filter>
    <filter
       id="filter4788"
       height="1.9502"
       width="1.7191"
       color-interpolation-filters="sRGB"
       y="-.47509"
       x="-.35956"
       inkscape:collect="always">
      <feGaussianBlur
         id="feGaussianBlur4790"
         stdDeviation="0.92991509"
         inkscape:collect="always" />
    </filter>
    <filter
       id="filter4792"
       height="1.9697"
       width="1.5767"
       color-interpolation-filters="sRGB"
       y="-.48484"
       x="-.28836"
       inkscape:collect="always">
      <feGaussianBlur
         id="feGaussianBlur4794"
         stdDeviation="0.92991509"
         inkscape:collect="always" />
    </filter>
    <filter
       id="filter4796"
       height="2.0014"
       width="1.5355"
       color-interpolation-filters="sRGB"
       y="-.50070"
       x="-.26776"
       inkscape:collect="always">
      <feGaussianBlur
         id="feGaussianBlur4798"
         stdDeviation="0.92991509"
         inkscape:collect="always" />
    </filter>
    <filter
       id="filter4800"
       height="1.808"
       width="1.6456"
       color-interpolation-filters="sRGB"
       y="-0.404"
       x="-.32281"
       inkscape:collect="always">
      <feGaussianBlur
         id="feGaussianBlur4802"
         stdDeviation="0.92991509"
         inkscape:collect="always" />
    </filter>
    <filter
       id="filter4804"
       height="1.9652"
       width="1.7594"
       color-interpolation-filters="sRGB"
       y="-.48260"
       x="-.37970"
       inkscape:collect="always">
      <feGaussianBlur
         id="feGaussianBlur4806"
         stdDeviation="0.92991509"
         inkscape:collect="always" />
    </filter>
    <filter
       id="filter4808"
       height="1.9449"
       width="1.5726"
       color-interpolation-filters="sRGB"
       y="-.47247"
       x="-.28628"
       inkscape:collect="always">
      <feGaussianBlur
         id="feGaussianBlur4810"
         stdDeviation="0.92991509"
         inkscape:collect="always" />
    </filter>
    <filter
       id="filter4812"
       height="3.2318"
       width="2.7053"
       color-interpolation-filters="sRGB"
       y="-1.1159"
       x="-.85266"
       inkscape:collect="always">
      <feGaussianBlur
         id="feGaussianBlur4814"
         stdDeviation="0.92991509"
         inkscape:collect="always" />
    </filter>
    <filter
       id="filter4816"
       height="2.2958"
       width="1.6711"
       color-interpolation-filters="sRGB"
       y="-.64789"
       x="-.33556"
       inkscape:collect="always">
      <feGaussianBlur
         id="feGaussianBlur4818"
         stdDeviation="0.92991509"
         inkscape:collect="always" />
    </filter>
    <filter
       id="filter4820"
       height="2.5029"
       width="1.6839"
       color-interpolation-filters="sRGB"
       y="-.75145"
       x="-.34193"
       inkscape:collect="always">
      <feGaussianBlur
         id="feGaussianBlur4822"
         stdDeviation="0.92991509"
         inkscape:collect="always" />
    </filter>
    <filter
       id="filter4824"
       height="1.9742"
       width="1.5927"
       color-interpolation-filters="sRGB"
       y="-.48708"
       x="-.29634"
       inkscape:collect="always">
      <feGaussianBlur
         id="feGaussianBlur4826"
         stdDeviation="0.92991509"
         inkscape:collect="always" />
    </filter>
    <filter
       id="filter4828"
       height="2.7437"
       width="1.8927"
       color-interpolation-filters="sRGB"
       y="-.87183"
       x="-.44636"
       inkscape:collect="always">
      <feGaussianBlur
         id="feGaussianBlur4830"
         stdDeviation="0.92991509"
         inkscape:collect="always" />
    </filter>
    <filter
       id="filter4832"
       height="2.2216"
       width="1.8994"
       color-interpolation-filters="sRGB"
       y="-.61082"
       x="-.44972"
       inkscape:collect="always">
      <feGaussianBlur
         id="feGaussianBlur4834"
         stdDeviation="0.92991509"
         inkscape:collect="always" />
    </filter>
    <filter
       id="filter4836"
       height="2.3922"
       width="2.7812"
       color-interpolation-filters="sRGB"
       y="-.69609"
       x="-.89061"
       inkscape:collect="always">
      <feGaussianBlur
         id="feGaussianBlur4838"
         stdDeviation="0.92991509"
         inkscape:collect="always" />
    </filter>
    <radialGradient
       id="radialGradient5135"
       xlink:href="#linearGradient4094"
       gradientUnits="userSpaceOnUse"
       cy="67.058998"
       cx="39.446999"
       r="13.525"
       inkscape:collect="always"
       gradientTransform="matrix(0.77223678,0,0,0.83659639,-229.35934,-249.27208)" />
    <radialGradient
       id="radialGradient5139"
       xlink:href="#linearGradient10478"
       gradientUnits="userSpaceOnUse"
       cy="-119.32"
       cx="367.28"
       gradientTransform="matrix(-1,0,0,-0.95839,552.20229,3.35566)"
       r="57.536999"
       inkscape:collect="always" />
    <radialGradient
       id="radialGradient5145"
       xlink:href="#linearGradient10478"
       gradientUnits="userSpaceOnUse"
       cy="-94.759003"
       cx="134.74001"
       gradientTransform="matrix(-0.59379879,0.27424279,-0.40909622,-0.88577752,303.78247,-11.607863)"
       r="67.57"
       inkscape:collect="always"
       fx="134.74001"
       fy="-94.759003" />
    <radialGradient
       id="radialGradient5147"
       xlink:href="#linearGradient4094"
       gradientUnits="userSpaceOnUse"
       cy="67.058998"
       cx="39.446999"
       gradientTransform="matrix(0.91952376,-0.18051655,0.20869085,1.0630467,-95.401064,198.7626)"
       r="13.525"
       inkscape:collect="always" />
    <radialGradient
       inkscape:collect="always"
       xlink:href="#linearGradient4094"
       id="radialGradient10331"
       gradientUnits="userSpaceOnUse"
       cx="39.446999"
       cy="67.058998"
       r="13.525"
       gradientTransform="matrix(1.0000028,0,0,1.0833392,-186.51954,164.16407)" />
    <radialGradient
       inkscape:collect="always"
       xlink:href="#linearGradient4094"
       id="radialGradient10333"
       gradientUnits="userSpaceOnUse"
       cx="39.446999"
       cy="67.058998"
       r="13.525"
       gradientTransform="matrix(0.77223678,0,0,0.83659639,-216.55321,-244.38049)" />
    <radialGradient
       inkscape:collect="always"
       xlink:href="#linearGradient4094"
       id="radialGradient10335"
       gradientUnits="userSpaceOnUse"
       cx="39.446999"
       cy="67.058998"
       r="13.525"
       gradientTransform="matrix(1.0000028,0,0,1.0833392,-192.17065,84.70684)" />
    <radialGradient
       inkscape:collect="always"
       xlink:href="#linearGradient4094"
       id="radialGradient10337"
       gradientUnits="userSpaceOnUse"
       gradientTransform="matrix(0.91951932,-0.18051939,0.20868985,1.0630634,-323.50649,-41.659924)"
       cx="39.446999"
       cy="67.058998"
       r="13.525" />
    <radialGradient
       inkscape:collect="always"
       xlink:href="#linearGradient4094"
       id="radialGradient10339"
       gradientUnits="userSpaceOnUse"
       gradientTransform="matrix(0.91951932,-0.18051939,0.20868985,1.0630634,-315.25749,-62.610524)"
       cx="39.446999"
       cy="67.058998"
       r="13.525" />
    <radialGradient
       inkscape:collect="always"
       xlink:href="#linearGradient4094"
       id="radialGradient10341"
       gradientUnits="userSpaceOnUse"
       cx="39.446999"
       cy="67.058998"
       r="13.525"
       gradientTransform="matrix(0.772241,0,0,0.83659111,212.47357,-125.09034)" />
    <radialGradient
       inkscape:collect="always"
       xlink:href="#linearGradient4094"
       id="radialGradient10343"
       gradientUnits="userSpaceOnUse"
       gradientTransform="matrix(0.9195196,-0.1805158,0.20868991,1.0630423,-292.51086,-47.557067)"
       cx="39.446999"
       cy="67.058998"
       r="13.525" />
    <radialGradient
       inkscape:collect="always"
       xlink:href="#linearGradient4094"
       id="radialGradient10345"
       gradientUnits="userSpaceOnUse"
       cx="39.446999"
       cy="67.058998"
       r="13.525"
       gradientTransform="matrix(0.772241,0,0,0.83659111,-126.88868,158.00524)" />
    <radialGradient
       inkscape:collect="always"
       xlink:href="#linearGradient4094"
       id="radialGradient10347"
       gradientUnits="userSpaceOnUse"
       cx="39.446999"
       cy="67.058998"
       r="13.525"
       gradientTransform="matrix(0.77223678,0,0,0.83659639,-195.24356,-236.04357)" />
    <radialGradient
       inkscape:collect="always"
       xlink:href="#linearGradient4094"
       id="radialGradient10349"
       gradientUnits="userSpaceOnUse"
       gradientTransform="matrix(0.919517,-0.18051559,0.20868932,1.0630411,-121.98039,151.01842)"
       cx="39.446999"
       cy="67.058998"
       r="13.525" />
    <radialGradient
       inkscape:collect="always"
       xlink:href="#linearGradient4094"
       id="radialGradient10351"
       gradientUnits="userSpaceOnUse"
       gradientTransform="matrix(0.91951658,-0.18051796,0.20868922,1.063055,-213.45227,87.096721)"
       cx="39.446999"
       cy="67.058998"
       r="13.525" />
    <radialGradient
       inkscape:collect="always"
       xlink:href="#linearGradient4094"
       id="radialGradient10353"
       gradientUnits="userSpaceOnUse"
       cx="39.446999"
       cy="67.058998"
       r="13.525"
       gradientTransform="matrix(0.772241,0,0,0.83659111,-116.79876,171.38098)" />
    <radialGradient
       inkscape:collect="always"
       xlink:href="#linearGradient4094"
       id="radialGradient10355"
       gradientUnits="userSpaceOnUse"
       cx="39.446999"
       cy="67.058998"
       r="13.525"
       gradientTransform="matrix(0.772241,0,0,0.83659111,-285.1344,11.243569)" />
    <radialGradient
       inkscape:collect="always"
       xlink:href="#linearGradient4094"
       id="radialGradient10357"
       gradientUnits="userSpaceOnUse"
       cx="39.446999"
       cy="67.058998"
       r="13.525"
       gradientTransform="matrix(0.77223678,0,0,0.83659639,-228.88718,-214.67994)" />
    <radialGradient
       inkscape:collect="always"
       xlink:href="#linearGradient4094"
       id="radialGradient10359"
       gradientUnits="userSpaceOnUse"
       cx="39.446999"
       cy="67.058998"
       r="13.525"
       gradientTransform="matrix(1.0000028,0,0,1.0833392,-183.05791,131.82839)" />
    <radialGradient
       inkscape:collect="always"
       xlink:href="#linearGradient4094"
       id="radialGradient10361"
       gradientUnits="userSpaceOnUse"
       cx="39.446999"
       cy="67.058998"
       r="13.525"
       gradientTransform="matrix(1.0000028,0,0,1.0833392,245.32656,-45.540715)" />
    <radialGradient
       inkscape:collect="always"
       xlink:href="#linearGradient4094"
       id="radialGradient10363"
       gradientUnits="userSpaceOnUse"
       cx="39.446999"
       cy="67.058998"
       r="13.525"
       gradientTransform="matrix(0.68920688,0,0,0.74663767,-200.44855,-247.73845)" />
    <radialGradient
       inkscape:collect="always"
       xlink:href="#linearGradient4094"
       id="radialGradient10365"
       gradientUnits="userSpaceOnUse"
       cx="39.446999"
       cy="67.058998"
       r="13.525"
       gradientTransform="matrix(0.68920428,0,0,0.74664085,-308.255,-115.61962)" />
    <radialGradient
       inkscape:collect="always"
       xlink:href="#linearGradient4094"
       id="radialGradient10367"
       gradientUnits="userSpaceOnUse"
       cx="39.446999"
       cy="67.058998"
       r="13.525"
       gradientTransform="matrix(0.68920428,0,0,0.74664085,162.95054,-275.87405)" />
    <radialGradient
       inkscape:collect="always"
       xlink:href="#linearGradient4094"
       id="radialGradient10369"
       gradientUnits="userSpaceOnUse"
       cx="39.446999"
       cy="67.058998"
       r="13.525"
       gradientTransform="matrix(0.68920428,0,0,0.74664085,-282.85006,-153.59019)" />
    <radialGradient
       inkscape:collect="always"
       xlink:href="#linearGradient4094"
       id="radialGradient10371"
       gradientUnits="userSpaceOnUse"
       cx="39.446999"
       cy="67.058998"
       r="13.525"
       gradientTransform="matrix(0.68920428,0,0,0.74664085,-303.91954,-143.50848)" />
    <radialGradient
       inkscape:collect="always"
       xlink:href="#linearGradient4094"
       id="radialGradient10373"
       gradientUnits="userSpaceOnUse"
       cx="39.446999"
       cy="67.058998"
       r="13.525"
       gradientTransform="matrix(0.68920428,0,0,0.74664085,-297.99694,-162.46258)" />
  </defs>
  <sodipodi:namedview
     id="namedview4"
     fit-margin-left="1"
     inkscape:zoom="3.0567476"
     borderopacity="1"
     inkscape:current-layer="svg2"
     inkscape:cx="221.01297"
     inkscape:cy="152.91497"
     inkscape:window-maximized="1"
     showgrid="false"
     fit-margin-right="1"
     bordercolor="#666666"
     inkscape:window-x="1920"
     guidetolerance="10"
     objecttolerance="10"
     inkscape:window-y="0"
     fit-margin-bottom="1"
     inkscape:window-width="1920"
     inkscape:pageopacity="0"
     inkscape:pageshadow="2"
     pagecolor="#ffffff"
     gridtolerance="10"
     inkscape:window-height="1095"
     fit-margin-top="1" />
  <path
     d="m 304.80643,77.022731 c 0,0 -14.453,-1.7668 -21.375,-3.375 -6.7054,-1.5081 -13.315,-3.0413 -19.719,-2.9375 -4.0415,0.005 -8.3034,0.97566 -12.812,2 -4.4874,1.0664 -9.292,2.2392 -14.531,2.5938 -10.209,0.63727 -20.406,0.0863 -30.281,-1.1562 -6.0205,-0.73035 -12.106,-1.5439 -18.125,-2.75 -6.0194,-1.2061 -11.956,-2.8117 -17.688,-5.0312 -4.0422,-1.6414 -7.4219,-3.7416 -10.406,-5.7812 -0.64303,0.28769 -1.2151,0.64162 -1.625,1.125 -0.86365,0.88842 -1.875,3.5625 -1.875,3.5625 l -3.40665,-1.0001 c 0,0 1.7055,-3.5975 3.0938,-4.8438 0.33021,-0.27768 0.69379,-0.50749 1.0312,-0.71875 -2.4506,-1.6576 -4.7491,-3.1995 -6.9375,-4.2188 -2.1151,-1.037 -4.3956,-1.8926 -6.75,-2.7188 -0.0337,0.0304 -0.0938,0.0983 -0.125,0.125 -0.13155,0.1128 -0.226,0.20401 -0.3125,0.25 -0.0443,0.0235 -0.0923,0.0254 -0.125,0.0312 -0.0729,-0.0203 -0.0615,-10e-4 -0.0625,0 5e-4,-10e-4 -0.0141,-0.0355 -0.0625,-0.0937 -0.008,-0.0324 -0.004,-0.0745 0,-0.125 0.008,-0.0983 0.0399,-0.20886 0.0937,-0.375 0.002,-0.006 0,-0.0312 0,-0.0312 l 1.25015,-10.43685 4.3125,1.4375 2.7186,1.0316 c 0,0 2.3631,0.94716 3.5625,1.5 3.8353,1.8203 7.2574,4.1379 10.469,6.3125 3.1014,2.0505 6.0376,4.0098 9.0938,5.1562 4.9431,1.9531 10.279,3.3764 15.875,4.5 5.5958,1.1236 11.447,1.9559 17.469,2.7812 9.3127,1.2393 18.877,1.8877 28.406,1.4062 4.0237,-0.16923 8.3041,-1.1777 12.938,-2.1562 4.5774,-1.0206 9.5594,-1.9863 14.969,-1.9688 7.1996,0.13472 13.954,1.6328 20.281,3.2188 0.35964,-0.61011 0.7124,-1.2405 1.0625,-1.9062 0.0926,-0.17602 0.19286,-0.35193 0.28125,-0.53125 -1.8267,0.45271 -3.8348,0.54105 -5.9062,0.0625 -2.9404,-0.97864 -4.9665,-3.0317 -6,-5.25 -1.2968,-2.097 -1.7731,-5.0245 -0.6875,-8.0312 1.5431,-2.9652 4.1029,-4.5455 6.5,-5 2.439,-0.74576 5.3389,-0.56347 7.9062,0.875 2.2526,1.6065 3.3863,3.7344 3.8438,5.75 0.13648,-0.24002 0.26476,-0.47183 0.375,-0.71875 0.2723,-0.34689 0.24566,-1.079 0.125,-1.875 -0.20038,-1.0238 -0.73867,-2.1404 -1.2812,-3.375 -0.60241,-1.3126 -1.2654,-2.7335 -1.7188,-4.2812 -0.50243,-1.584 -0.59384,-3.4258 -0.125,-5.1562 0.6127,-1.8427 1.5967,-3.0822 2.5,-4.0312 1.2521,-1.3751 2.4868,-2.3973 3.5625,-3.1875 1.3453,-0.9915 2.4682,-1.6312 3.3125,-2.0312 0.47919,-0.22713 0.89624,-0.37407 1.1875,-0.4375 0.1547,-0.03401 0.276,-0.04105 0.375,-0.03125 0.0914,0.06079 0.12425,0.08297 0.15625,0.09375 0.0317,0.0107 0.0615,7.16e-4 0.0625,0 -10e-4,9.6e-4 -7.8e-4,-0.0022 0,0.03125 8e-4,0.03379 5e-5,0.11316 0.0312,0.21875 -0.0181,0.09702 -0.0548,0.20659 -0.125,0.34375 -0.13419,0.26043 -0.37398,0.59068 -0.6875,1 -0.55256,0.72148 -1.379,1.6644 -2.375,2.875 -0.79828,0.9723 -1.6996,2.0952 -2.5312,3.4062 -0.59079,0.9769 -1.1982,1.955 -1.2812,2.8438 -0.14114,0.66424 0.10755,1.5225 0.46875,2.5312 0.4076,1.0367 1.0868,2.1451 1.8125,3.4688 0.66936,1.1711 1.4001,2.5462 1.9375,4.2812 0.51586,1.584 0.60224,3.5161 -0.125,5.5312 -1.2176,2.977 -3.3464,5.5816 -5.9688,7.4688 -0.01,0.0409 -0.0211,0.0844 -0.0312,0.125 -0.55499,2.1102 -1.5119,3.7079 -2.4688,5 -0.20758,0.2803 -0.41775,0.55983 -0.625,0.8125 6.0921,1.4907 17.438,3 17.438,3 z m -21.84255,-27.97375 c -0.61279,0.0228 -1.3107,0.12277 -2.0312,0.28125 -1.255,0.54578 -2.4658,1.0882 -2.4688,1.7188 -0.37555,0.39041 0.0879,1.5297 0.5625,2.75 0.7496,1.121 1.5348,2.1386 2.25,2.1875 1.3981,0.58816 3.4268,-0.19406 5.3438,-1.2188 -0.0403,-0.71559 -0.13121,-1.4521 -0.28125,-2.1562 -0.44865,-1.533 -0.96534,-3.0587 -1.875,-3.25 -0.35704,-0.25123 -0.88721,-0.33534 -1.5,-0.3125 z"
     inkscape:connector-curvature="0"
     style="fill:#5a172c;fill-opacity:1"
     id="path2995"
     sodipodi:nodetypes="ccccccccccccccccccccccccccccccsccccccccccccccccccccccccccccccccccccccsccccccccccccc" />
  <g
     transform="matrix(-1,0,0,1,438.03615,182.66299)"
     style="fill:#44aa00"
     id="g3235" />
  <path
     d="m 192.34229,100.92046 c 0.64197,-0.1043 1.5994,-0.95264 2.1462,-2.1056 0.44531,-0.93898 0.65587,-1.7735 0.46797,-1.8505 -0.50907,-0.20862 -3.3989,3.0111 -3.225,3.5932 0.0922,0.30823 0.31903,0.41033 0.61084,0.36294 z"
     inkscape:connector-curvature="0"
     style="fill:#000000"
     id="path3186" />
  <path
     d="m 133.85229,81.83246 c -0.0846,0.0086 -0.17317,1.52e-4 -0.28223,-0.02891 -0.43625,-0.11645 -0.88527,-0.51728 -0.99611,-0.88503 -0.11083,-0.36775 0.15683,-0.56871 0.59308,-0.45226 0.43626,0.11645 0.88528,0.51728 0.99611,0.88503 0.0831,0.27582 -0.0571,0.45523 -0.31085,0.48116 z"
     inkscape:connector-curvature="0"
     style="fill:#000000"
     id="path3190" />
  <path
     d="m 186.61229,172.83046 c -0.34527,0.0801 -0.60058,-0.0772 -0.91069,-0.42069 -0.97905,-1.0842 -2.5204,-7.4154 -2.2785,-9.3661 0.12923,-1.0423 -0.16387,-1.669 -0.95449,-2.1112 -0.62004,-0.34682 -1.1145,-1.1875 -1.1156,-1.862 -0.001,-0.67448 -0.50171,-1.4866 -1.0999,-1.8213 -0.81992,-0.45865 -0.97288,-0.95323 -0.63627,-1.9533 0.33821,-1.0048 0.19781,-1.4315 -0.59382,-1.7826 -1.73,-0.76709 -2.2225,-3.2095 -0.98827,-4.9284 1.0172,-1.4167 0.97871,-1.9745 -0.31728,-4.4621 -1.195,-2.2938 -1.2891,-2.8944 -0.46658,-3.2116 0.55976,-0.21587 1.3183,-1.5188 1.6693,-2.8892 0.35097,-1.3703 1.0569,-2.653 1.5879,-2.8577 1.3597,-0.52433 4.1042,-3.7322 3.8207,-4.4673 -0.12978,-0.33656 -0.9753,-0.70534 -1.8825,-0.81781 -1.4494,-0.17969 -1.849,0.29172 -3.2823,3.862 -0.89708,2.2346 -2.1171,4.2547 -2.6942,4.4772 -0.61782,0.23824 -0.91685,1.1998 -0.73437,2.3415 0.17043,1.0664 0.20238,2.8758 0.0552,4.0252 -0.14717,1.1494 -0.0787,2.5861 0.1548,3.1915 0.23346,0.60541 -0.12223,1.4859 -0.7864,1.9639 -0.70605,0.50814 -1.2335,2.0812 -1.2549,3.7819 -0.0201,1.5998 -0.44175,3.0707 -0.94039,3.263 -0.49865,0.19229 -0.97992,0.1277 -1.0844,-0.14321 -0.10449,-0.27088 -1.2149,-0.53766 -2.4526,-0.59795 -1.6754,-0.0816 -2.5264,0.20129 -3.3129,1.1138 -0.58102,0.67415 -2.5608,1.88 -4.4146,2.6847 -2.8964,1.2574 -3.409,1.2941 -3.6223,0.2508 -0.21499,-1.0514 -0.80728,-0.99853 -4.4307,0.39874 -4.3336,1.6711 -6.3506,1.4424 -6.3541,-0.70736 -10e-4,-0.76418 -0.73929,-1.0298 -2.3965,-0.87691 -1.3104,0.12085 -2.8724,-0.28191 -3.4744,-0.88223 -0.60207,-0.60031 -2.8702,-1.2416 -5.048,-1.4449 -2.7299,-0.25482 -4.7221,-0.99889 -6.4104,-2.3697 -3.6877,-2.9942 -3.5436,-3.7419 1.2138,-6.0114 l 4.1097,-1.959 -0.70999,-3.8428 c -0.61746,-3.3921 -0.50795,-3.9427 0.88756,-4.5524 2.8784,-1.2576 3.1466,-1.4844 2.7664,-2.4702 -0.20729,-0.53757 0.0629,-1.147 0.60049,-1.3543 0.53756,-0.20729 0.88378,-0.61961 0.77322,-0.90631 -0.38935,-1.0097 -1.478,-1.3228 -2.8714,-1.1381 l 2.8463,-7.904 c 0.0956,-0.0764 0.19151,-0.13703 0.28653,-0.22745 1.0889,-1.0365 1.6442,-2.0883 1.7473,-3.2935 l 3.5694,-3.4815 -2.0061,-4.2318 c 0.0407,-0.22519 0.10296,-0.45875 0.20309,-0.68646 l 2.6073,-1.7305 4.7213,-1.2827 c 0.0783,0.74547 0.43638,0.67376 1.4637,0.27762 0.7235,-0.27899 3.3132,-0.26718 5.7425,0.031 3.0116,0.36969 5.7725,0.0791 7.6722,-0.66634 1.4776,-0.57982 2.4219,-1.434 2.5518,-2.481 0.23455,-1.8918 -1.0366,-3.3871 -2.4766,-2.9043 -0.5989,0.20086 -3.1984,1.2464 -5.7796,2.2989 -3.9926,1.6279 -4.8157,1.75 -5.5756,0.88699 -0.3859,-0.43825 -0.96616,-0.88471 -1.433,-1.1081 l -0.21626,-1.8346 -7.0728,-1.9038 -1.4212,-3.6855 -6.2355,-3.0687 -7.2795,-3.5316 -0.003,-0.06897 c 0.13183,-0.13884 0.12705,-0.35043 0.037,-0.69257 l -0.008,-0.02042 0.10727,-2.7546 c 0.31496,-1.21 0.46548,-3.6974 0.17023,-4.229 l 0.0475,-1.2112 -1.117,-10.539 -2.1737,-4.1204 c 0.21235,-0.0199 0.42468,-0.0532 0.62975,-0.12594 0.4173,-0.14782 0.7192,-1.2644 0.6794,-2.484 -0.0854,-2.6165 1.4302,-3.4962 2.8862,-1.6743 1.8834,2.3567 5.8037,4.3112 7.4112,3.6913 0.84079,-0.32422 2.0491,-0.16165 2.6702,0.37371 1.5925,1.3725 3.6441,1.242 3.8573,-0.24779 0.20936,-1.4628 4.5312,-3.3527 4.9838,-2.1791 0.22704,0.58876 0.40247,0.53904 0.74874,-0.24194 0.73769,-1.6637 4.5686,-0.86769 7.2276,1.5167 1.2775,1.1455 2.6087,1.9879 2.9598,1.8526 0.3511,-0.13539 0.77843,0.12084 0.9453,0.57107 0.16689,0.45023 1.6644,2.0121 3.3326,3.4864 2.8265,2.498 3.0735,2.5811 3.7097,1.1891 0.37549,-0.82154 0.81544,-3.1488 0.96848,-5.1918 l 0.28974,-3.7372 2.4875,1.0523 c 1.3723,0.57366 2.9461,1.669 3.4915,2.4428 0.61706,0.87551 1.4713,1.2337 2.2539,0.93187 1.9097,-0.73642 6.4845,2.3979 7.4344,5.0857 0.59305,1.6781 1.2225,2.2803 2.4746,2.4139 0.92371,0.0985 2.6883,0.60313 3.9337,1.1027 0.35669,0.1431 0.77576,0.24744 1.224,0.32327 l 3.7957,6.3251 c -0.55499,0.37486 -0.65651,0.84505 -0.38409,1.5515 0.27532,0.71398 -0.0713,2.4356 -0.77696,3.8081 -1.4212,2.7639 -1.3808,3.7837 0.13437,3.1994 0.96543,-0.37229 3.1853,-5.0692 3.8431,-7.5633 l 1.8436,-10.059 c 0.46571,-0.38991 2.6203,-1.1182 3.4809,-1.4501 1.6274,-0.62754 5.2322,-1.5544 5.4284,-1.0459 0.10035,0.25999 -3.9854,11.719 -4.4734,12.098 l 0.6408,-0.03663 c -0.96212,1.2152 -1.7665,2.7054 -2.6439,4.6683 -1.253,2.8032 -1.2466,2.9834 0.0868,2.4693 0.87493,-0.33738 1.7615,-0.11095 2.2583,0.57933 0.44923,0.6242 1.7786,1.0966 2.9575,1.0582 1.1789,-0.03847 2.2714,0.24933 2.4198,0.63402 0.14833,0.3847 1.1458,0.75734 2.235,0.8222 1.5888,0.09463 2.0416,0.48118 2.294,1.9456 0.2259,1.3108 0.77111,1.9067 1.8946,2.123 0.926,0.17828 1.8414,1.0225 2.2518,2.0788 0.50458,1.2988 1.3386,1.8772 3.0697,2.1376 2.5264,0.37998 3.9285,2.377 2.5446,3.6266 -0.7143,0.645 -0.58229,0.98061 1.0646,2.7003 1.033,1.0787 1.7892,2.3274 1.704,2.7812 -0.0851,0.45379 0.48314,0.99029 1.2577,1.1991 1.3328,0.35929 1.9522,1.2748 4.912,7.1577 1.1631,2.3118 3.223,3.5988 5.835,3.6676 1.4735,0.0388 -0.74129,3.6534 -3.1605,5.1483 -1.3344,0.82453 -3.2491,1.3035 -5.2446,1.3207 -1.9967,0.0172 -4.0545,0.54136 -5.6676,1.437 -2.3622,1.3116 -2.7302,1.2803 -5.2491,-0.26805 -1.487,-0.91403 -3.0813,-1.5016 -3.55,-1.3209 -0.46874,0.18076 -1.191,-0.13014 -1.6003,-0.69272 -0.63026,-0.86624 -0.72815,-0.7712 -0.64812,0.62417 0.0516,0.90622 -0.26342,1.7856 -0.71748,1.9607 -1.0056,0.38777 -7.435,-2.7823 -7.8548,-3.8711 -0.21754,-0.5641 -0.41992,-0.49973 -0.73622,0.21376 -0.31634,0.71342 -0.0831,1.305 0.86519,2.1223 0.72117,0.6216 1.3124,1.6324 1.3134,2.2535 9.5e-4,0.62114 1.0819,2.5657 2.4104,4.3098 1.3285,1.7441 2.5191,3.9734 2.6413,4.9693 0.19764,1.6103 -0.0235,1.8504 -2.0866,2.2314 -2.2155,0.40915 -2.2749,0.50796 -1.3144,2.0506 0.61637,0.98986 0.75108,2.0389 0.35961,2.6915 -0.35135,0.5857 -0.58984,2.0565 -0.53928,3.272 0.0649,1.56 -0.48184,2.6686 -1.8424,3.7746 -1.0601,0.86171 -2.1109,2.2313 -2.3319,3.0511 -0.221,0.81977 -0.90455,1.7468 -1.5212,2.0601 -0.61661,0.31336 -1.7305,1.1535 -2.4834,1.8698 -2.5189,2.3965 -5.9571,4.0661 -6.7032,3.2398 -0.40674,-0.45045 -1.2795,-0.39861 -2.1292,0.11936 -0.78656,0.47946 -1.7504,0.62971 -2.14,0.33403 -0.46298,-0.35134 -1.0214,0.0896 -1.6049,1.2972 -0.49095,1.0162 -1.5749,2.465 -2.4274,3.2282 -0.62623,0.56066 -1.0609,0.88316 -1.4062,0.96327 z"
     inkscape:connector-curvature="0"
     sodipodi:nodetypes="ccsccssssscsscssssccsscccssssssssscccsssscccccccccssscccscccccccccccccccssscsccsccsscccsssssccsssccscccsssscscscsscccsssssssscsscccsccssssscssccsscc"
     style="fill:url(#radialGradient5139);fill-opacity:1.0"
     id="path3172" />
  <g
     transform="matrix(-1,0,0,-1,562.07439,-3.37334)"
     style="fill:#44aa00"
     id="g4053">
    <path
       d="m 373.8,-162.6 c 0.63169,-0.32845 0.20583,3.2801 -0.73069,5.6678 l -0.85011,2.1708 1.6994,-0.0335 c 1.6647,-0.0311 1.3956,0.19611 -1.7143,1.4968 -1.8611,0.77836 -3.6867,3.8733 -4.1174,6.9848 -0.18129,1.3097 0.21034,4.8417 0.8628,7.8543 1.8577,8.5778 2.6985,15.687 2.305,19.295 -0.19868,1.8216 -0.55816,3.1858 -0.81345,3.0487 -0.25531,-0.13707 -0.34755,-1.4987 -0.18781,-3.0433 0.41227,-3.9862 -0.86902,-7.5696 -3.8892,-10.863 -2.6695,-2.9107 -6.5601,-10.382 -4.5973,-8.8258 0.54982,0.43604 1.2453,1.5801 1.5417,2.5441 0.57474,1.8676 6.0976,8.7063 6.4713,8.0102 0.12213,-0.22751 -1.0842,-5.2085 -2.675,-11.069 -1.5908,-5.8605 -2.6891,-11.01 -2.4497,-11.456 0.26893,-0.50099 0.68744,0.43931 1.0943,2.4965 l 0.66267,3.3332 0.69754,-2.1476 c 0.38454,-1.1834 2.0205,-4.58 3.6297,-7.5444 1.6092,-2.9643 2.79,-5.7927 2.6405,-6.2889 -0.14955,-0.49623 -0.0264,-1.1808 0.27191,-1.5179 0.0516,-0.0584 0.10615,-0.0911 0.14827,-0.11303 z"
       inkscape:connector-curvature="0"
       style="fill:#44aa00"
       id="path3178" />
    <path
       d="m 338.81,-129.7 c 0.30668,-0.0699 2.6216,1.2868 5.146,3.0077 2.5244,1.7209 6.7429,4.2831 9.376,5.6989 l 4.7859,2.5692 -0.38817,-2.8005 -0.40905,-2.7942 0.85386,2.455 c 0.78286,2.2789 2.5202,3.8215 7.8097,6.8547 0.60621,0.34763 1.1758,0.83219 1.2597,1.0791 0.084,0.24691 0.75801,1.481 1.4939,2.7636 0.73586,1.2826 1.0872,2.4075 0.79748,2.4948 -0.65879,0.19855 -1.8506,-1.3 -2.3512,-2.9611 -0.52109,-1.729 -5.443,-4.7045 -8.8279,-5.317 -1.5352,-0.27781 -4.3124,-0.28048 -6.1581,-0.0131 -2.3949,0.34696 -3.2041,0.22646 -2.8455,-0.44163 0.35865,-0.66809 1.2143,-0.89977 2.9714,-0.80436 1.3542,0.0736 2.6015,0.0821 2.7885,0.0257 0.95618,-0.28816 -9.9222,-5.6838 -11.979,-5.9401 -1.3192,-0.16441 -2.482,-0.52144 -2.5658,-0.79943 -0.2383,-0.7907 0.73147,-0.86471 2.692,-0.21873 2.598,0.85604 1.9921,-0.0201 -1.7423,-2.5292 -1.7942,-1.2055 -3.0145,-2.2595 -2.7078,-2.3294 z"
       inkscape:connector-curvature="0"
       style="fill:#44aa00"
       id="path3180" />
    <path
       d="m 415.05,-149.53 c 0.91177,-0.2532 1.7826,-0.43682 2.5704,-0.54674 l 4.4432,-0.60972 -6.0971,1.9287 c -7.0408,2.2284 -8.662,3.0636 -12.22,6.4181 -4.4811,4.2245 -4.3193,4.991 0.90484,4.7418 l 4.5148,-0.22101 -5.5126,1.2967 -5.5126,1.2967 -3.1122,5.1775 c -1.7108,2.8501 -3.6799,5.8923 -4.3874,6.7698 -0.94119,1.1675 -1.0087,1.5927 -0.24672,1.6015 0.57272,0.007 2.0762,0.0435 3.3467,0.0626 1.2704,0.0191 4.02,-0.65907 6.1123,-1.5002 2.4568,-0.9877 4.7015,-1.4426 6.3132,-1.2873 2.2992,0.22157 1.8892,0.41423 -5.1662,2.4459 -5.6102,1.6156 -8.3156,2.0759 -10.096,1.7436 -2.2474,-0.4195 -2.8388,-0.22314 -7.9485,2.4411 -3.5513,1.8517 -6.0868,3.6496 -7.0777,5.0278 -2.0239,2.8154 -3.0225,3.1132 -1.7343,0.52268 0.95749,-1.9255 6.5305,-6.0709 9.2932,-6.9035 0.68721,-0.2071 2.3276,-1.3689 3.6443,-2.5799 2.1664,-1.9923 2.3972,-2.6158 2.3225,-6.5122 -0.0454,-2.3683 0.19094,-4.6133 0.52462,-4.9902 0.41589,-0.4699 0.6189,-0.13613 0.63889,1.0611 0.10887,6.5165 0.722,6.9529 3.1466,2.1971 0.86884,-1.7042 2.5614,-4.3186 3.7594,-5.8284 1.3348,-1.6822 2.4173,-4.1714 2.7824,-6.4229 0.50995,-3.1446 0.68421,-3.4592 1.2995,-2.1923 0.52835,1.0879 0.98983,1.264 1.7128,0.69181 2.7665,-2.1893 7.0987,-4.361 10.863,-5.5531 0.31358,-0.0996 0.61544,-0.19277 0.91939,-0.27708 z"
       inkscape:connector-curvature="0"
       style="fill:#44aa00"
       id="path3182" />
    <path
       d="m 370.43,-106.63 2.1382,-0.16574 c 1.466,-0.11072 5.2019,1.5408 11.834,5.2317 8.2966,4.6175 10.074,5.3324 12.454,5.0219 4.6446,-0.60596 4.9976,-0.56848 2.6027,0.24127 l -2.3005,0.7617 5.638,1.9933 c 5.1312,1.7991 11.421,5.1496 11.755,6.2581 0.0734,0.24363 0.7196,0.75411 1.4375,1.1395 0.71788,0.38538 1.4046,1.0641 1.5236,1.501 0.119,0.43693 -0.80656,0.10176 -2.064,-0.72273 -3.7708,-2.4724 -9.5034,-5.5184 -12,-6.3895 l -2.3443,-0.82061 1.584,1.3232 c 1.894,1.589 4.6862,6.7747 4.3434,8.0589 -0.1339,0.5016 -0.83246,-0.42061 -1.5703,-2.034 -1.8525,-4.0505 -4.7629,-6.8733 -9.3531,-9.1019 -2.1437,-1.0408 -4.0522,-1.8558 -4.2352,-1.8007 -0.18299,0.05516 0.18688,0.7837 0.82981,1.6189 1.4764,1.9179 2.7959,6.1702 1.5406,4.9605 -0.47566,-0.45838 -1.3722,-1.8664 -2.0148,-3.1308 -0.64262,-1.2645 -2.3855,-3.2961 -3.8665,-4.5102 -3.4723,-2.8463 -11.377,-7.3069 -15.053,-8.5011 l -2.8795,-0.93281 z"
       inkscape:connector-curvature="0"
       style="fill:#44aa00"
       id="path3184" />
    <path
       d="m 376.83,-102.25 c 0.21575,-0.016 0.59512,0.68896 1.0542,2.2123 0.46532,1.5439 0.76665,4.8645 0.67615,7.3863 -0.0905,2.5219 0.23633,5.8967 0.70765,7.4908 0.54155,1.8318 0.54433,2.6362 0.0195,2.1823 -0.45676,-0.39503 -1.1697,-1.8584 -1.5906,-3.2359 -0.72228,-2.3617 -0.90303,-2.4728 -2.9749,-1.9298 l -2.192,0.59225 1.8737,-1.0433 c 2.295,-1.2645 3.5912,-6.3226 2.6479,-10.348 -0.48971,-2.0899 -0.49895,-3.2857 -0.22159,-3.3066 z"
       inkscape:connector-curvature="0"
       style="fill:#44aa00"
       id="path3188" />
  </g>
  <path
     d="m 237.41845,99.89399 c -0.74302,-0.14135 -1.8294,-1.1575 -2.429,-2.5149 -0.48827,-1.1055 -0.70691,-2.0822 -0.48607,-2.1659 0.59833,-0.22658 3.857,3.6068 3.6365,4.278 -0.1168,0.35543 -0.38372,0.46702 -0.72146,0.40279 z"
     inkscape:connector-curvature="0"
     style="fill:#000000"
     id="path3074" />
  <path
     d="m 258.54845,186.84599 c 0.40556,0.0736 0.69326,-0.1235 1.0342,-0.53988 1.0762,-1.3145 2.5104,-8.7551 2.1197,-11.007 -0.20874,-1.2035 0.0965,-1.9479 0.98992,-2.506 0.70071,-0.43773 1.2278,-1.4421 1.1911,-2.2256 -0.0366,-0.78352 0.49914,-1.755 1.1752,-2.1774 0.92658,-0.57887 1.0764,-1.162 0.62918,-2.3046 -0.44938,-1.1482 -0.3103,-1.6517 0.58948,-2.1039 1.9664,-0.98833 2.401,-3.853 0.87069,-5.7802 -1.2612,-1.5884 -1.2479,-2.2384 0.11751,-5.2008 1.259,-2.7315 1.3346,-3.4345 0.36129,-3.7567 -0.66234,-0.21925 -1.6168,-1.69 -2.1015,-3.262 -0.48475,-1.572 -1.3769,-3.0221 -2.0051,-3.2301 -1.6089,-0.53255 -4.9772,-4.1043 -4.6893,-4.974 0.13182,-0.39823 1.0932,-0.87415 2.1406,-1.0558 1.6735,-0.29027 2.1641,0.23482 4.0298,4.3012 1.1677,2.5451 2.6985,4.823 3.3813,5.049 0.73103,0.24197 1.1325,1.3421 0.98473,2.6785 -0.138,1.2482 -0.0733,3.3517 0.16229,4.6785 0.23561,1.3268 0.23688,2.9995 -2.3e-4,3.7158 -0.23712,0.71635 0.22557,1.7191 1.0239,2.237 0.8487,0.55052 1.5499,2.348 1.6703,4.3223 0.11335,1.8571 0.68585,3.5419 1.2759,3.7372 0.59002,0.1953 1.1454,0.0932 1.2515,-0.22734 0.10609,-0.32053 1.3809,-0.69287 2.8152,-0.83252 1.9415,-0.18905 2.9459,0.0917 3.9108,1.1073 0.71282,0.75036 3.0803,2.0396 5.2788,2.8701 3.4351,1.2976 4.0325,1.3114 4.2216,0.0875 0.19057,-1.2334 0.88153,-1.2053 5.1689,0.21387 5.1277,1.6973 7.4577,1.3182 7.3409,-1.1791 -0.0415,-0.88771 0.80079,-1.2378 2.7343,-1.1534 1.5289,0.0667 3.3206,-0.48904 3.9861,-1.2202 0.66557,-0.73117 3.2641,-1.6037 5.7823,-1.9623 3.1566,-0.44956 5.4288,-1.4259 7.3128,-3.1132 4.115,-3.6854 3.9056,-4.5458 -1.748,-6.9143 l -4.8838,-2.0443 0.60852,-4.5036 c 0.52638,-3.9748 0.36821,-4.6083 -1.287,-5.238 -3.4142,-1.2988 -3.7384,-1.5472 -3.3523,-2.7136 0.21054,-0.63607 -0.13762,-1.3287 -0.77368,-1.5393 -0.63606,-0.21054 -1.0614,-0.67 -0.94913,-1.0092 0.39546,-1.1947 1.6424,-1.6197 3.2713,-1.4836 l -3.7508,-9.0208 c -0.11529,-0.0834 -0.23016,-0.14839 -0.34562,-0.24807 -1.3231,-1.1427 -2.0273,-2.3332 -2.2148,-3.7272 l -4.3418,-3.8432 2.0921,-5.0284 c -0.0599,-0.25927 -0.1454,-0.52707 -0.27452,-0.78593 l -3.1258,-1.8634 -5.5562,-1.2243 c -0.049,0.87031 -0.46897,0.80715 -1.6845,0.4048 -0.85609,-0.28336 -3.8635,-0.12396 -6.6685,0.35908 -3.4773,0.59882 -6.7006,0.41666 -8.9492,-0.34239 -1.7489,-0.59036 -2.8939,-1.5294 -3.1036,-2.7382 -0.37886,-2.1842 1.0135,-3.9927 2.7133,-3.5128 0.70696,0.19962 3.7852,1.2678 6.8427,2.3452 4.7292,1.6663 5.6921,1.7618 6.5263,0.71664 0.4236,-0.53077 1.0725,-1.082 1.6022,-1.3677 l 0.14799,-2.1431 8.1083,-2.6092 1.4435,-4.3609 7.0703,-3.9152 8.2568,-4.5116 -1.6e-4,-0.0803 c -0.16095,-0.15385 -0.1673,-0.3999 -0.0819,-0.80238 l 0.008,-0.0241 -0.27956,-3.1936 c -0.43391,-1.3877 -0.74866,-4.2685 -0.43563,-4.9027 l -0.12333,-1.4042 0.70452,-12.305 2.293,-4.9084 c -0.24778,-0.0112 -0.49628,-0.0379 -0.73858,-0.11085 -0.49304,-0.14823 -0.90652,-1.4282 -0.9289,-2.8471 -0.048,-3.0441 -1.858,-3.9806 -3.4467,-1.7825 -2.0551,2.8434 -6.4988,5.3341 -8.4009,4.7045 -0.99486,-0.3293 -2.3892,-0.0725 -3.0806,0.58429 -1.7725,1.6839 -4.163,1.6476 -4.4944,-0.0708 -0.32547,-1.6873 -5.4519,-3.6395 -5.9115,-2.2508 -0.2306,0.69665 -0.43716,0.64876 -0.88331,-0.23891 -0.95046,-1.891 -5.3556,-0.75087 -8.3099,2.1683 -1.4194,1.4025 -2.9183,2.4558 -3.3338,2.3183 -0.41543,-0.13751 -0.89738,0.18416 -1.0659,0.7165 -0.16852,0.53235 -1.8201,2.4309 -3.6748,4.2372 -3.1426,3.0606 -3.4249,3.171 -4.2422,1.5899 -0.48235,-0.93314 -1.1243,-3.6116 -1.417,-5.9761 l -0.54678,-4.3246 -2.8302,1.3622 c -1.5618,0.74353 -3.3282,2.1044 -3.9181,3.0338 -0.66751,1.0517 -1.6396,1.5157 -2.5656,1.2092 -2.2596,-0.74796 -7.3972,3.1501 -8.3493,6.3256 -0.59446,1.9825 -1.2917,2.7175 -2.7386,2.9431 -1.0674,0.16643 -3.0887,0.8518 -4.5072,1.5022 -0.40626,0.18628 -0.88717,0.33105 -1.4035,0.44435 l -4.0531,7.5605 c 0.66574,0.4042 0.81011,0.94464 0.53342,1.7805 -0.27963,0.84481 0.21977,2.8251 1.1167,4.3796 1.8062,3.1305 1.8168,4.3173 0.0239,3.7238 -1.1423,-0.37812 -3.985,-5.709 -4.8894,-8.569 l -2.7073,-11.58 c -0.56288,-0.42671 -3.1066,-1.1515 -4.1248,-1.4885 -1.9256,-0.63737 -6.165,-1.5112 -6.3642,-0.9095 -0.10188,0.30764 5.2885,13.388 5.8766,13.801 l -0.74639,-0.007 c 1.1859,1.3574 2.2041,3.0431 3.3336,5.2738 1.6131,3.1856 1.6158,3.3953 0.0381,2.8731 -1.0353,-0.34267 -2.0524,-0.0298 -2.5906,0.79996 -0.48669,0.75031 -2.0043,1.3739 -3.3758,1.3955 -1.3715,0.0216 -2.6243,0.41738 -2.775,0.87257 -0.15066,0.45519 -1.2883,0.94416 -2.5498,1.0808 -1.8402,0.19928 -2.3444,0.67376 -2.5551,2.3889 -0.18865,1.5353 -0.78842,2.2581 -2.0812,2.5725 -1.0656,0.25917 -2.0814,1.2912 -2.4986,2.5413 -0.51304,1.537 -1.4492,2.2558 -3.4454,2.6556 -2.9132,0.5835 -4.4294,2.982 -2.7516,4.3556 0.86598,0.70901 0.73152,1.1063 -1.0847,3.1965 -1.1393,1.311 -1.9473,2.8041 -1.8228,3.3264 0.12444,0.5223 -0.50548,1.1775 -1.3934,1.4636 -1.5279,0.49231 -2.1959,1.5906 -5.3029,8.5904 -1.221,2.7507 -3.5412,4.3616 -6.5713,4.5883 -1.7094,0.12793 1.0666,4.2019 3.9607,5.8022 1.5963,0.88268 3.8473,1.3313 6.1662,1.239 2.3202,-0.0923 4.7399,0.40074 6.664,1.3504 2.8176,1.3906 3.2434,1.3335 6.0821,-0.60664 1.6758,-1.1453 3.4946,-1.9176 4.0492,-1.734 0.55465,0.18359 1.3761,-0.21817 1.8199,-0.89465 0.68335,-1.0416 0.80241,-0.93675 0.78794,0.68854 -0.009,1.0555 0.40643,2.0593 0.94369,2.2372 1.1898,0.39384 8.4796,-3.6501 8.906,-4.9383 0.22094,-0.66747 0.45964,-0.60408 0.86718,0.20688 0.40757,0.81088 0.16994,1.5112 -0.88557,2.5138 -0.80272,0.76259 -1.4326,1.9699 -1.3988,2.6915 0.0338,0.72154 -1.1124,3.0411 -2.5574,5.1417 -1.445,2.1006 -2.7025,4.757 -2.7885,5.9207 -0.13903,1.8816 0.13138,2.1481 2.5493,2.4745 2.5965,0.35062 2.671,0.46205 1.642,2.3079 -0.66026,1.1844 -0.75771,2.4106 -0.26628,3.1466 0.44105,0.66056 0.80081,2.3556 0.81046,3.7703 0.0124,1.8157 0.7098,3.0726 2.3524,4.2807 1.2799,0.94129 2.5775,2.4731 2.8803,3.4128 0.30282,0.93978 1.149,1.9781 1.8828,2.3074 0.73385,0.32929 2.0749,1.2425 2.9898,2.0322 3.0606,2.642 7.1482,4.3879 7.9684,3.3861 0.44711,-0.5461 1.4638,-0.53497 2.4799,0.0189 0.9406,0.51267 2.0686,0.63297 2.5045,0.26761 0.51801,-0.43416 1.1915,0.0466 1.9371,1.4165 0.62743,1.1527 1.968,2.7747 3.0011,3.6132 0.75894,0.61602 1.282,0.96616 1.6876,1.0398 z"
     style="fill:url(#radialGradient5145);fill-opacity:1.0"
     sodipodi:nodetypes="ccsccssssscsscssssccsscccssssssssscccsssscccccccccssscccscccccccccccccccssscsccsccsscccsssssccsssccscccsssscscscsscccsssssssscsscccsccssssscssccsscc"
     inkscape:connector-curvature="0"
     id="path3086" />
  <g
     transform="matrix(-1,0,0,-1,397.72517,11.81519)"
     style="fill:#44aa00"
     id="g4028">
    <path
       d="m 145.53,-155.99 c -0.72405,-0.4016 -0.34199,3.8066 0.67195,6.6116 l 0.92026,2.5502 -1.9745,-0.0922 c -1.9342,-0.0883 -1.6286,0.18427 1.9459,1.7936 2.1391,0.96312 4.1645,4.6181 4.5678,8.2487 0.16973,1.5282 -0.39613,5.6218 -1.249,9.1036 -2.4282,9.9135 -3.6282,18.151 -3.2837,22.358 0.17392,2.1238 0.54909,3.7209 0.85016,3.5696 0.30109,-0.15134 0.45095,-1.7314 0.31362,-3.5319 -0.35443,-4.6468 1.2473,-8.7724 4.8613,-12.506 3.1945,-3.3001 7.9512,-11.864 5.6207,-10.116 -0.65282,0.48967 -1.4972,1.7978 -1.8719,2.9092 -0.72661,2.153 -7.3611,9.9301 -7.7737,9.1092 -0.13486,-0.26831 1.4235,-6.0209 3.4563,-12.784 2.0328,-6.763 3.4709,-12.715 3.2065,-13.241 -0.29694,-0.59082 -0.81291,0.48917 -1.3503,2.8679 l -0.87472,3.8541 -0.74364,-2.5184 c -0.40997,-1.3878 -2.2054,-5.3875 -3.9832,-8.8839 -1.7778,-3.4964 -3.062,-6.8213 -2.8726,-7.3935 0.18939,-0.57218 0.0677,-1.3719 -0.26856,-1.7731 -0.0582,-0.0695 -0.12055,-0.10929 -0.16883,-0.13604 z"
       inkscape:connector-curvature="0"
       style="fill:#44aa00"
       id="path3082" />
    <path
       d="m 185.17,-116.65 c -0.35432,-0.0908 -3.0878,1.4138 -6.0764,3.3353 -2.9885,1.9215 -7.9728,4.7679 -11.078,6.3313 l -5.644,2.8368 0.53894,-3.2434 0.56302,-3.2355 -1.0695,2.8272 c -0.98144,2.6246 -3.0494,4.3636 -9.2934,7.724 -0.7156,0.38514 -1.3929,0.9306 -1.4982,1.215 -0.10538,0.2844 -0.92756,1.698 -1.8232,3.1659 -0.8956,1.4679 -1.3392,2.7647 -1.0052,2.8752 0.75962,0.25144 2.192,-1.4533 2.826,-3.3686 0.6599,-1.9936 6.4748,-5.2985 10.429,-5.9046 1.7933,-0.27488 5.0219,-0.19102 7.1591,0.1776 2.7732,0.47834 3.7177,0.3636 3.3217,-0.42428 -0.39601,-0.78789 -1.3835,-1.084 -3.429,-1.0281 -1.5765,0.0431 -3.0268,0.014 -3.2424,-0.0574 -1.1025,-0.36493 11.712,-6.2967 14.111,-6.5303 1.5387,-0.14982 2.9017,-0.52845 3.0078,-0.84899 0.30178,-0.91172 -0.82325,-1.0281 -3.1226,-0.33857 -3.047,0.91379 -2.3152,-0.0857 2.1047,-2.8856 2.1235,-1.3452 3.5751,-2.5322 3.2208,-2.6231 z"
       inkscape:connector-curvature="0"
       style="fill:#44aa00"
       id="path3080" />
    <path
       d="m 97.168,-142.09 c -1.052,-0.3229 -2.0586,-0.56362 -2.9709,-0.71607 l -5.1461,-0.84794 7.0274,2.433 c 8.1152,2.811 9.9736,3.8327 14.005,7.8437 5.0769,5.0513 4.8649,5.9372 -1.2004,5.4839 l -5.2415,-0.39831 6.3678,1.68 6.3678,1.68 3.4558,6.1162 c 1.8996,3.3668 4.0934,6.965 4.8883,8.0072 1.0576,1.3867 1.1227,1.883 0.23666,1.8694 -0.666,-0.0102 -2.415,-0.0144 -3.8924,-0.032 -1.4775,-0.0176 -4.6526,-0.89205 -7.0585,-1.9354 -2.825,-1.2251 -5.4203,-1.8243 -7.2988,-1.6941 -2.6797,0.18558 -2.2091,0.42238 5.9291,3.0052 6.4712,2.0537 9.6018,2.6736 11.682,2.343 2.6258,-0.41729 3.3071,-0.1705 9.1636,3.0867 4.0704,2.2638 6.9616,4.4332 8.0703,6.0664 2.2646,3.3363 3.4161,3.7137 1.9997,0.66193 -1.0528,-2.2683 -7.4015,-7.2619 -10.587,-8.3163 -0.79239,-0.26228 -2.6629,-1.6642 -4.1557,-3.1132 -2.456,-2.3839 -2.7048,-3.1159 -2.4959,-7.6431 0.12696,-2.7518 -0.0775,-5.3689 -0.4536,-5.8176 -0.46875,-0.55928 -0.7152,-0.17763 -0.77593,1.2135 -0.33063,7.572 -1.057,8.0601 -3.7267,2.4556 -0.95666,-2.0083 -2.8423,-5.1005 -4.1877,-6.8932 -1.499,-1.9974 -2.6795,-4.9249 -3.0334,-7.5537 -0.49435,-3.6715 -0.68707,-4.0427 -1.442,-2.5892 -0.64827,1.2481 -1.1903,1.4384 -2.0128,0.75059 -3.1475,-2.6317 -8.1156,-5.2919 -12.454,-6.7956 -0.36141,-0.12565 -0.7094,-0.24337 -1.0601,-0.3509 z"
       inkscape:connector-curvature="0"
       style="fill:#44aa00"
       id="path3078" />
    <path
       d="m 147.7,-90.823 -2.4804,-0.25963 c -1.7007,-0.17462 -6.0955,1.6283 -13.92,5.7113 -9.7893,5.108 -11.878,5.8834 -14.635,5.4479 -5.3804,-0.84987 -5.7918,-0.81735 -3.0332,0.19897 l 2.6504,0.95751 -6.6166,2.1406 c -6.0213,1.9307 -13.439,5.6287 -13.862,6.9069 -0.09298,0.28092 -0.86015,0.85412 -1.7068,1.2796 -0.8466,0.42552 -1.6662,1.193 -1.8182,1.6972 -0.15201,0.5042 0.93444,0.14356 2.4221,-0.77553 4.4609,-2.756 11.22,-6.1175 14.15,-7.052 l 2.7509,-0.88055 -1.8829,1.4887 c -2.2516,1.7878 -5.6599,7.7288 -5.3016,9.2324 0.13995,0.5873 0.9809,-0.46288 1.8892,-2.3153 2.2803,-4.6507 5.752,-7.841 11.158,-10.288 2.5247,-1.1428 4.7687,-2.0305 4.9797,-1.9606 0.21099,0.06985 -0.24179,0.90519 -1.0154,1.856 -1.7764,2.1834 -3.4434,7.0852 -1.9462,5.7183 0.56731,-0.51798 1.6536,-2.1267 2.4403,-3.5765 0.78664,-1.4498 2.8763,-3.757 4.636,-5.122 4.1256,-3.2001 13.455,-8.1379 17.765,-9.4111 l 3.3766,-0.99421 z"
       inkscape:connector-curvature="0"
       style="fill:#44aa00"
       id="path3076" />
    <path
       d="m 140.12,-85.928 c -0.25031,-0.02529 -0.7134,0.78228 -1.2948,2.5388 -0.58927,1.7802 -1.0436,5.6309 -1.0173,8.5654 0.0262,2.9345 -0.45939,6.8474 -1.0572,8.6858 -0.68691,2.1125 -0.71533,3.0475 -0.091,2.5363 0.54335,-0.44491 1.4179,-2.1238 1.9504,-3.7119 0.91361,-2.7229 1.1272,-2.8463 3.5187,-2.1502 l 2.5296,0.75712 -2.1455,-1.2716 c -2.6283,-1.5418 -3.9767,-7.4624 -2.7541,-12.113 0.63472,-2.4141 0.68291,-3.804 0.36114,-3.837 z"
       inkscape:connector-curvature="0"
       style="fill:#44aa00"
       id="path3072" />
  </g>
  <metadata
     id="metadata9789">
    <rdf:RDF>
      <cc:Work>
        <dc:format>image/svg+xml</dc:format>
        <dc:type
           rdf:resource="http://purl.org/dc/dcmitype/StillImage" />
        <cc:license
           rdf:resource="http://creativecommons.org/licenses/publicdomain/" />
        <dc:publisher>
          <cc:Agent
             rdf:about="http://openclipart.org/">
            <dc:title>Openclipart</dc:title>
          </cc:Agent>
        </dc:publisher>
        <dc:title></dc:title>
        <dc:date>2012-01-17T19:17:47</dc:date>
        <dc:description />
        <dc:source>https://openclipart.org/detail/167194/grapes-by-gnokii</dc:source>
        <dc:creator>
          <cc:Agent>
            <dc:title>gnokii</dc:title>
          </cc:Agent>
        </dc:creator>
        <dc:subject>
          <rdf:Bag>
            <rdf:li>alcohol</rdf:li>
            <rdf:li>dark</rdf:li>
            <rdf:li>drink</rdf:li>
            <rdf:li>fruit</rdf:li>
            <rdf:li>fruits</rdf:li>
            <rdf:li>grapes</rdf:li>
            <rdf:li>green</rdf:li>
            <rdf:li>leaves</rdf:li>
            <rdf:li>purple</rdf:li>
            <rdf:li>vine</rdf:li>
            <rdf:li>wine</rdf:li>
          </rdf:Bag>
        </dc:subject>
      </cc:Work>
      <cc:License
         rdf:about="http://creativecommons.org/licenses/publicdomain/">
        <cc:permits
           rdf:resource="http://creativecommons.org/ns#Reproduction" />
        <cc:permits
           rdf:resource="http://creativecommons.org/ns#Distribution" />
        <cc:permits
           rdf:resource="http://creativecommons.org/ns#DerivativeWorks" />
      </cc:License>
    </rdf:RDF>
  </metadata>
  <g
     id="g10489"
     transform="matrix(1.3377537,0,0,1.2704451,-73.519269,-23.337583)">
    <ellipse
       ry="14.651718"
       rx="13.524628"
       id="path4270"
       style="color:#000000;fill:url(#radialGradient10331);fill-opacity:1"
       transform="matrix(-0.92851737,0.37128895,0.37128723,0.92851806,0,0)"
       cx="-147.07271"
       cy="236.81218" />
    <ellipse
       ry="11.314623"
       rx="10.444185"
       id="path4266"
       style="color:#000000;fill:url(#radialGradient10333);fill-opacity:1"
       transform="matrix(-0.98012684,0.1983718,-0.19837523,-0.98012615,0,0)"
       cx="-186.091"
       cy="-188.27884" />
    <ellipse
       ry="14.651718"
       rx="13.524628"
       id="path4160"
       style="color:#000000;fill:url(#radialGradient10335);fill-opacity:1"
       transform="matrix(-0.92851737,0.37128895,0.37128723,0.92851806,0,0)"
       cx="-152.72382"
       cy="157.35495" />
    <ellipse
       ry="14.651927"
       rx="13.524579"
       id="path4206"
       style="color:#000000;fill:url(#radialGradient10337);fill-opacity:1"
       transform="matrix(-0.9399507,-0.34131025,-0.3413102,0.93995072,0,0)"
       cx="-273.23981"
       cy="22.507746" />
    <ellipse
       ry="14.651927"
       rx="13.524579"
       id="path4198"
       style="color:#000000;fill:url(#radialGradient10339);fill-opacity:1"
       transform="matrix(-0.9399507,-0.34131025,-0.3413102,0.93995072,0,0)"
       cx="-264.99078"
       cy="1.557138" />
    <ellipse
       ry="11.314551"
       rx="10.444242"
       id="path4194"
       style="color:#000000;fill:url(#radialGradient10341);fill-opacity:1"
       transform="matrix(0.76904749,0.63919165,-0.63918919,0.76904953,0,0)"
       cx="242.93593"
       cy="-68.989021" />
    <ellipse
       ry="14.651636"
       rx="13.524584"
       id="path4158"
       style="color:#000000;fill:url(#radialGradient10343);fill-opacity:1"
       transform="matrix(-0.95363041,-0.30098013,-0.30097851,0.95363092,0,0)"
       cx="-242.24417"
       cy="16.609318" />
    <ellipse
       ry="11.314551"
       rx="10.444242"
       id="path4162"
       style="color:#000000;fill:url(#radialGradient10345);fill-opacity:1"
       transform="matrix(-0.76904749,0.63919165,0.63918919,0.76904953,0,0)"
       cx="-96.4263"
       cy="214.10655" />
    <ellipse
       ry="11.314623"
       rx="10.444185"
       id="path4234"
       style="color:#000000;fill:url(#radialGradient10347);fill-opacity:1"
       transform="matrix(-0.98012684,0.1983718,-0.19837523,-0.98012615,0,0)"
       cx="-164.78134"
       cy="-179.94189" />
    <ellipse
       ry="14.651619"
       rx="13.524546"
       id="path4202"
       style="color:#000000;fill:url(#radialGradient10349);fill-opacity:1"
       transform="matrix(-0.77808254,0.62816205,0.62816391,0.77808104,0,0)"
       cx="-71.713837"
       cy="215.18474" />
    <ellipse
       ry="14.651811"
       rx="13.524539"
       id="path4190"
       style="color:#000000;fill:url(#radialGradient10351);fill-opacity:1"
       transform="matrix(-0.97023361,0.2421709,0.24216638,0.97023474,0,0)"
       cx="-163.18573"
       cy="151.26389" />
    <ellipse
       ry="11.314551"
       rx="10.444242"
       id="path4210"
       style="color:#000000;fill:url(#radialGradient10353);fill-opacity:1"
       transform="matrix(-0.76904749,0.63919165,0.63918919,0.76904953,0,0)"
       cx="-86.336388"
       cy="227.48232" />
    <ellipse
       ry="11.314551"
       rx="10.444242"
       id="path4214"
       style="color:#000000;fill:url(#radialGradient10355);fill-opacity:1"
       transform="matrix(-0.76904749,-0.63919165,0.63918919,-0.76904953,0,0)"
       cx="-254.67201"
       cy="67.344887" />
    <ellipse
       ry="14.651697"
       rx="13.524645"
       id="path4230"
       style="color:#000000;fill:url(#radialGradient5147);fill-opacity:1"
       transform="matrix(-0.6347874,0.77268684,0.77268615,0.63478824,0,0)"
       cx="-45.13414"
       cy="262.92926" />
    <ellipse
       ry="11.314623"
       rx="10.444185"
       id="path4218"
       style="color:#000000;fill:url(#radialGradient10357);fill-opacity:1"
       transform="matrix(-0.98012684,0.1983718,-0.19837523,-0.98012615,0,0)"
       cx="-198.42499"
       cy="-158.57826" />
    <ellipse
       ry="14.651718"
       rx="13.524628"
       id="path4222"
       style="color:#000000;fill:url(#radialGradient10359);fill-opacity:1"
       transform="matrix(-0.92851737,0.37128895,0.37128723,0.92851806,0,0)"
       cx="-143.6111"
       cy="204.47649" />
    <ellipse
       ry="14.651718"
       rx="13.524628"
       id="path4226"
       style="color:#000000;fill:url(#radialGradient10361);fill-opacity:1"
       transform="matrix(0.92851737,0.37128895,-0.37128723,0.92851806,0,0)"
       cx="284.77341"
       cy="27.107386" />
    <ellipse
       ry="10.097968"
       rx="9.3212404"
       id="path4238"
       style="color:#000000;fill:url(#radialGradient10363);fill-opacity:1"
       transform="matrix(-0.98012661,0.19837295,-0.19836931,-0.98012735,0,0)"
       cx="-173.2616"
       cy="-197.66934" />
    <ellipse
       ry="10.098011"
       rx="9.3212051"
       id="path4242"
       style="color:#000000;fill:url(#radialGradient10365);fill-opacity:1"
       transform="matrix(-0.95514497,-0.29613862,0.2961397,-0.95514464,0,0)"
       cx="-281.06815"
       cy="-65.550308" />
    <ellipse
       ry="10.098011"
       rx="9.3212051"
       id="path4246"
       style="color:#000000;fill:url(#radialGradient10367);fill-opacity:1"
       transform="matrix(0.95514497,-0.29613862,-0.2961397,-0.95514464,0,0)"
       cx="190.13739"
       cy="-225.80475" />
    <ellipse
       ry="10.098011"
       rx="9.3212051"
       id="path4250"
       style="color:#000000;fill:url(#radialGradient10369);fill-opacity:1"
       transform="matrix(-0.95514497,-0.29613862,0.2961397,-0.95514464,0,0)"
       cx="-255.66321"
       cy="-103.52087" />
    <ellipse
       ry="10.098011"
       rx="9.3212051"
       id="path4254"
       style="color:#000000;fill:url(#radialGradient10371);fill-opacity:1"
       transform="matrix(-0.95514497,-0.29613862,0.2961397,-0.95514464,0,0)"
       cx="-276.7327"
       cy="-93.439178" />
    <ellipse
       ry="10.098011"
       rx="9.3212051"
       id="path4258"
       style="color:#000000;fill:url(#radialGradient10373);fill-opacity:1"
       transform="matrix(-0.95514497,-0.29613862,0.2961397,-0.95514464,0,0)"
       cx="-270.81009"
       cy="-112.39328" />
    <ellipse
       ry="11.314623"
       rx="10.444185"
       id="path4262"
       style="color:#000000;fill:url(#radialGradient5135);fill-opacity:1"
       transform="matrix(-0.98012684,0.1983718,-0.19837523,-0.98012615,0,0)"
       cx="-198.89713"
       cy="-193.17041" />
    <path
       transform="matrix(-1,0,0,1,362.54866,103.85367)"
       id="path4526"
       d="m 133.3,89.479 c -0.85338,-1.0283 -0.94673,-1.8757 -0.28007,-2.5424 0.66667,-0.66667 1.4267,-0.48588 2.2801,0.54238 0.70403,0.84831 2.3765,1.5424 3.7166,1.5424 1.3697,0 2.166,0.43784 1.8185,1 -0.95785,1.5498 -6.1064,1.1792 -7.5352,-0.54238 z"
       style="opacity:0.73699999;fill:#d7d7f4;filter:url(#filter4796)"
       inkscape:connector-curvature="0" />
    <path
       transform="matrix(-1,0,0,1,362.54866,103.85367)"
       id="path4462"
       d="m 122.19,73.662 c -2.0787,-2.0787 -2.1281,-2.3331 -0.51345,-2.6441 0.98261,-0.18923 2.4202,0.18184 3.1947,0.8246 0.77449,0.64277 1.9211,0.85164 2.5481,0.46415 0.73147,-0.45208 1.0118,-0.0391 0.78232,1.1524 -0.52626,2.7327 -3.3854,2.8292 -6.0117,0.20288 z"
       style="opacity:0.73699999;fill:#e3d7f4;filter:url(#filter4792)"
       inkscape:connector-curvature="0" />
    <path
       transform="matrix(-1,0,0,1,362.54866,103.85367)"
       id="path4430"
       d="m 146.97,78.75 c -0.9625,-0.568 -1.75,-1.9888 -1.75,-3.1573 0,-2.1237 0.001,-2.1237 2.426,0.15445 1.3981,1.3134 2.936,1.9639 3.6297,1.5351 0.76729,-0.4742 1.036,-0.24025 0.74117,0.64523 -0.59263,1.7797 -2.812,2.1414 -5.0469,0.82254 z"
       style="opacity:0.73699999;fill:#dbdbe3;filter:url(#filter4800)"
       inkscape:connector-curvature="0" />
    <path
       transform="matrix(-1,0,0,1,362.54866,103.85367)"
       id="path4498"
       d="m 108.35,60.748 c -1.1187,-2.0904 -0.0644,-4.4186 1.5366,-3.3933 0.59886,0.38346 1.4048,1.7097 1.791,2.9472 0.87716,2.8107 -1.8654,3.1784 -3.3276,0.44612 z"
       style="opacity:0.73699999;fill:#d5d5ff;filter:url(#filter4784)"
       inkscape:connector-curvature="0" />
    <path
       transform="matrix(-1,0,0,1,362.54866,103.85367)"
       id="path4490"
       d="m 152.51,60.726 c 0,-1.1914 0.58495,-1.5301 2.0024,-1.1594 1.229,0.32137 2.3981,-0.11638 3.027,-1.1334 0.84937,-1.3736 0.97723,-1.2295 0.74764,0.843 -0.21031,1.8985 -0.93863,2.5761 -3.027,2.8164 -2.036,0.23428 -2.75,-0.12053 -2.75,-1.3666 z"
       style="opacity:0.73699999;fill:#d5d5ff;filter:url(#filter4804)"
       inkscape:connector-curvature="0" />
    <path
       transform="matrix(-1,0,0,1,362.54866,103.85367)"
       id="path4408"
       d="m 149.2,44.309 c -1.0429,-1.2566 -1.0634,-1.848 -0.0971,-2.8006 0.95904,-0.94548 1.5292,-0.79553 2.6264,0.69076 1.2051,1.6324 1.6321,1.7069 3.048,0.53184 1.4418,-1.1966 1.6001,-1.1217 1.2727,0.60161 -0.47823,2.5174 -5.0323,3.1665 -6.85,0.97635 z"
       style="opacity:0.73699999;fill:#e5d5ff;filter:url(#filter4808)"
       inkscape:connector-curvature="0" />
    <path
       transform="matrix(-1,0,0,1,362.54866,103.85367)"
       id="path4366"
       d="m 105.88,43.912 c -1.2533,-1.2533 -0.75593,-3.3755 0.79115,-3.3755 0.825,0 1.5,0.49814 1.5,1.107 0,0.60884 0.7126,0.83354 1.5836,0.49932 1.0042,-0.38534 1.4329,-0.15008 1.1717,0.64301 -0.46712,1.4184 -3.972,2.2006 -5.0464,1.1262 z"
       style="opacity:0.73699999;fill:#e5d5ff;filter:url(#filter4780)"
       inkscape:connector-curvature="0" />
    <path
       transform="matrix(-1,0,0,1,362.54866,103.85367)"
       id="path4318"
       d="m 123.62,52.199 c -0.35188,-0.91697 -0.18978,-2.1172 0.36022,-2.6672 0.66667,-0.66667 1.2133,-0.44427 1.6398,0.66721 0.35187,0.91697 1.5182,1.6672 2.5918,1.6672 1.0736,0 1.6739,0.45 1.334,1 -1.0012,1.6199 -5.2309,1.1437 -5.9258,-0.66722 z"
       style="opacity:0.73699999;fill:#dbdee3;filter:url(#filter4788)"
       inkscape:connector-curvature="0" />
    <path
       transform="matrix(-1,0,0,1,362.54866,103.85367)"
       id="path4422"
       d="m 130.21,19.114 c -0.97289,-2.5353 1.2565,-4.371 2.5416,-2.0928 0.69369,1.2297 1.6548,1.5898 3.056,1.1451 1.4593,-0.46316 1.9167,-0.26112 1.5988,0.70617 -0.6965,2.1192 -6.4024,2.3107 -7.1964,0.24156 z"
       style="opacity:0.73699999;fill:#d7e3f4;filter:url(#filter4824)"
       inkscape:connector-curvature="0" />
    <path
       transform="matrix(-1,0,0,1,362.54866,103.85367)"
       id="path4414"
       d="m 107.17,18.344 c -0.8744,-0.87439 -1.3341,-2.0035 -1.0216,-2.5092 0.87711,-1.4192 1.855,-1.1021 3.1891,1.0343 1.554,2.4884 -0.0575,3.5849 -2.1675,1.4749 z"
       style="opacity:0.73699999;fill:#dbdbe3;filter:url(#filter4776)"
       inkscape:connector-curvature="0" />
    <path
       transform="matrix(-1,0,0,1,362.54866,103.85367)"
       id="path4382"
       d="m 168.05,-22.653 c -0.84418,-2.1999 0.0836,-2.8842 1.5367,-1.1334 0.81795,0.98557 0.86038,1.6395 0.13544,2.0875 -0.5806,0.35883 -1.333,-0.0705 -1.6721,-0.9541 z"
       style="opacity:0.73699999;fill:#e5d5ff;filter:url(#filter4836)"
       inkscape:connector-curvature="0" />
    <path
       transform="matrix(-1,0,0,1,362.54866,103.85367)"
       id="path4512"
       d="m 164.55,47.36 c 0.33992,-0.55 1.0415,-1 1.559,-1 0.51754,0 0.94098,0.45 0.94098,1 0,0.55 -0.70156,1 -1.559,1 -0.85746,0 -1.2809,-0.45 -0.94098,-1 z"
       style="opacity:0.73699999;fill:#e5d5ff;filter:url(#filter4812)"
       inkscape:connector-curvature="0" />
    <path
       transform="matrix(-1,0,0,1,362.54866,103.85367)"
       id="path4444"
       d="m 169.62,29.422 c -1.7361,-2.0919 -1.06,-2.4472 3.0268,-1.5904 3.3508,0.7025 3.4042,0.7809 1.309,1.9234 -2.758,1.5039 -2.8148,1.4996 -4.3358,-0.33308 z"
       style="opacity:0.73699999;fill:#e3d7f4;filter:url(#filter4816)"
       inkscape:connector-curvature="0" />
    <path
       transform="matrix(-1,0,0,1,362.54866,103.85367)"
       id="path4436"
       d="m 130.75,-12.58 c -0.30982,-0.80739 -0.13375,-1.7335 0.39126,-2.0579 1.182,-0.73051 5.1965,1.9542 4.285,2.8656 -1.1926,1.1926 -4.1015,0.69024 -4.6763,-0.80766 z"
       style="opacity:0.73699999;fill:#d7d7f4;filter:url(#filter4832)"
       inkscape:connector-curvature="0" />
    <path
       transform="matrix(-1,0,0,1,362.54866,103.85367)"
       id="path4378"
       d="m 165.91,14.928 c -1.4651,-1.7653 0.68465,-2.9908 2.5422,-1.4491 0.77681,0.6447 1.8821,0.88188 2.4562,0.52707 0.57409,-0.35481 1.0438,-0.22101 1.0438,0.29734 0,1.513 -4.8858,2.0181 -6.0422,0.62473 z"
       style="opacity:0.73699999;fill:#e5d5ff;filter:url(#filter4820)"
       inkscape:connector-curvature="0" />
    <path
       transform="matrix(-1,0,0,1,362.54866,103.85367)"
       id="path4398"
       d="m 108.73,-1.7692 c 0,-1.1893 0.42099,-1.3099 1.8685,-0.53519 1.0277,0.55 2.1527,0.71584 2.5,0.36852 0.34731,-0.34732 0.63148,-0.10648 0.63148,0.53518 0,0.64167 -1.125,1.1667 -2.5,1.1667 -1.581,0 -2.5,-0.56432 -2.5,-1.5352 z"
       style="opacity:0.73699999;fill:#e3d7f4;filter:url(#filter4828)"
       inkscape:connector-curvature="0" />
  </g>
</svg>
