<?xml version="1.0" standalone="no"?>
<!DOCTYPE svg PUBLIC "-//W3C//DTD SVG 20010904//EN"
 "http://www.w3.org/TR/2001/REC-SVG-20010904/DTD/svg10.dtd">
<svg version="1.0" xmlns="http://www.w3.org/2000/svg"
 width="1280.000000pt" height="1248.000000pt" viewBox="0 0 1280.000000 1248.000000"
 preserveAspectRatio="xMidYMid meet">
<metadata>
Created by potrace 1.15, written by Peter Selinger 2001-2017
</metadata>
<g transform="translate(0.000000,1248.000000) scale(0.100000,-0.100000)"
fill="#ff9800" stroke="none">
<path d="M5950 12469 c-1355 -70 -2546 -490 -3540 -1247 -850 -648 -1507
-1476 -1908 -2407 -348 -807 -520 -1742 -499 -2720 20 -915 196 -1700 553
-2467 296 -639 706 -1213 1253 -1758 926 -922 1966 -1490 3186 -1739 739 -151
1612 -171 2415 -55 1052 151 2004 540 2830 1158 632 472 1232 1120 1639 1770
158 254 334 586 426 807 59 141 77 186 95 234 10 28 32 88 50 135 49 133 128
400 170 575 110 456 165 890 177 1400 21 939 -136 1824 -463 2612 -431 1038
-1192 1950 -2189 2626 -873 591 -1888 943 -3030 1051 -354 34 -812 44 -1165
25z m760 -3619 c667 -87 1255 -442 1694 -1025 280 -370 426 -724 492 -1191 25
-179 23 -515 -5 -704 -87 -586 -353 -1104 -811 -1574 -232 -238 -442 -393
-705 -521 -217 -106 -403 -163 -655 -202 -160 -24 -510 -24 -670 0 -522 80
-937 295 -1330 688 -355 355 -610 776 -735 1214 -72 255 -99 455 -99 745 1
292 27 491 99 745 207 727 787 1388 1457 1663 247 101 425 142 763 176 71 7
417 -2 505 -14z"/>
</g>
</svg>
