<?xml version="1.0" standalone="no"?>
<!DOCTYPE svg PUBLIC "-//W3C//DTD SVG 20010904//EN"
 "http://www.w3.org/TR/2001/REC-SVG-20010904/DTD/svg10.dtd">
<svg version="1.0" xmlns="http://www.w3.org/2000/svg"
 width="984.000000pt" height="1280.000000pt" viewBox="0 0 984.000000 1280.000000"
 preserveAspectRatio="xMidYMid meet">
<metadata>
Created by potrace 1.15, written by Peter Selinger 2001-2017
</metadata>
<g transform="translate(0.000000,1280.000000) scale(0.100000,-0.100000)"
fill="#ff9800" stroke="none">
<path d="M5145 12789 c-937 -64 -1745 -449 -2357 -1121 l-88 -98 0 595 0 595
-22 -5 c-13 -2 -216 -34 -453 -70 -236 -35 -785 -119 -1220 -185 -434 -66
-838 -128 -897 -137 l-108 -16 0 -6174 0 -6173 97 0 c69 0 497 53 1488 185
764 102 1405 187 1423 190 l32 6 0 1631 c0 1583 1 1630 18 1617 11 -8 72 -54
136 -103 670 -505 1526 -703 2521 -580 552 68 1077 241 1555 512 911 517 1752
1484 2177 2502 277 665 408 1366 390 2095 -25 997 -300 1867 -847 2685 -407
608 -941 1142 -1477 1475 -707 440 -1504 633 -2368 574z m-11 -2878 c399 -71
723 -234 1004 -506 356 -343 548 -726 614 -1225 18 -140 15 -460 -6 -603 -52
-360 -190 -692 -412 -994 -290 -396 -658 -662 -1052 -763 -190 -48 -486 -65
-692 -40 -506 63 -922 291 -1268 695 -379 443 -550 970 -512 1576 32 499 185
898 481 1253 303 362 704 571 1209 630 19 2 143 3 275 1 191 -2 264 -7 359
-24z"/>
</g>
</svg>
