<?xml version="1.0" standalone="no"?>
<!DOCTYPE svg PUBLIC "-//W3C//DTD SVG 20010904//EN"
 "http://www.w3.org/TR/2001/REC-SVG-20010904/DTD/svg10.dtd">
<svg version="1.0" xmlns="http://www.w3.org/2000/svg"
 width="1280.000000pt" height="1007.000000pt" viewBox="0 0 1280.000000 1007.000000"
 preserveAspectRatio="xMidYMid meet">
<metadata>
Created by potrace 1.15, written by Peter Selinger 2001-2017
</metadata>
<g transform="translate(0.000000,1007.000000) scale(0.100000,-0.100000)"
fill="#ff9800" stroke="none">
<path d="M4710 10064 c-19 -2 -78 -9 -130 -15 -394 -45 -809 -218 -1148 -481
-173 -135 -374 -327 -495 -476 l-27 -34 0 481 c0 461 -1 481 -18 481 -11 0
-253 -34 -538 -75 -285 -42 -706 -103 -934 -136 -228 -33 -640 -92 -915 -132
l-500 -72 -3 -4803 -2 -4802 98 0 c70 0 508 55 1559 195 805 107 1465 195
1468 195 3 0 5 1287 5 2859 0 2793 0 2862 20 2973 23 138 53 228 116 349 118
228 303 415 489 492 111 46 202 60 359 55 165 -6 263 -32 362 -96 141 -91 241
-265 288 -503 40 -200 40 -137 43 -3381 l3 -3138 98 0 c70 0 510 55 1559 195
805 107 1465 195 1468 195 2 0 6 1313 8 2918 l3 2917 21 85 c89 355 305 632
585 748 123 51 218 65 397 59 173 -6 262 -25 363 -79 191 -101 311 -377 348
-798 6 -74 10 -1197 10 -3177 l0 -3063 98 0 c70 0 508 55 1559 195 805 107
1465 195 1468 195 3 0 4 1428 2 3172 -2 2934 -4 3184 -20 3318 -89 749 -303
1329 -689 1873 -493 694 -1155 1124 -1942 1262 -235 41 -348 50 -626 50 -337
0 -579 -26 -860 -91 -544 -127 -1089 -419 -1601 -858 l-86 -74 -54 72 c-68 90
-331 355 -426 430 -344 269 -751 437 -1218 501 -105 15 -492 28 -565 19z"/>
</g>
</svg>
