<?xml version="1.0" standalone="no"?>
<!DOCTYPE svg PUBLIC "-//W3C//DTD SVG 20010904//EN"
 "http://www.w3.org/TR/2001/REC-SVG-20010904/DTD/svg10.dtd">
<svg version="1.0" xmlns="http://www.w3.org/2000/svg"
 width="1166.000000pt" height="1280.000000pt" viewBox="0 0 1166.000000 1280.000000"
 preserveAspectRatio="xMidYMid meet">
<metadata>
Created by potrace 1.15, written by Peter Selinger 2001-2017
</metadata>
<g transform="translate(0.000000,1280.000000) scale(0.100000,-0.100000)"
fill="#ff9800" stroke="none">
<path d="M6085 12794 c-783 -48 -1405 -180 -2060 -439 -823 -325 -1528 -787
-2150 -1410 -1078 -1077 -1691 -2346 -1840 -3810 -67 -660 -37 -1336 86 -1975
214 -1102 748 -2172 1511 -3025 989 -1106 2394 -1840 3942 -2059 822 -117
1826 -95 2750 60 540 90 1020 218 1801 479 869 290 1236 449 1458 632 l77 65
0 3199 0 3199 -2777 0 -2778 0 -37 -103 c-20 -56 -96 -268 -168 -472 -73 -203
-179 -502 -236 -662 -57 -161 -151 -425 -208 -585 -57 -161 -161 -452 -230
-647 -69 -194 -126 -357 -126 -362 0 -5 650 -9 1560 -9 l1560 0 0 -710 0 -710
-24 -9 c-96 -37 -671 -140 -1146 -206 -350 -49 -813 -19 -1195 76 -680 169
-1313 569 -1740 1099 -221 274 -410 651 -511 1020 -125 456 -163 1032 -98
1480 64 440 242 896 510 1302 414 631 1055 1124 1705 1313 265 77 467 100 799
92 402 -10 708 -61 1089 -181 454 -144 758 -298 1106 -562 182 -138 238 -192
541 -522 l40 -44 1037 1297 c570 714 1034 1302 1031 1306 -10 17 -369 321
-484 410 -649 503 -1290 847 -2050 1099 -571 190 -1134 301 -1800 355 -181 15
-808 27 -945 19z"/>
</g>
</svg>
