<?xml version="1.0"?>
<svg width="1271" height="1280" xmlns="http://www.w3.org/2000/svg" xmlns:svg="http://www.w3.org/2000/svg" preserveAspectRatio="xMidYMid meet">
 <metadata>Created by potrace 1.15, written by Peter Selinger 2001-2017</metadata>
 <g class="layer">
  <title>Layer 1</title>
  <g fill="#000000" id="svg_1" transform="translate(0 1280) scale(0.1 -0.1)">
   <path d="m6805,10514c-1156,-52 -2223,-351 -3155,-885c-496,-283 -876,-622 -1054,-938c-190,-336 -213,-663 -70,-1035c24,-64 44,-100 55,-103c10,-3 27,-29 39,-59c12,-29 28,-58 34,-64c10,-7 47,30 148,148c1034,1206 2173,1881 3445,2041c467,59 937,46 1271,-34c305,-73 561,-239 622,-402c75,-198 72,-469 -6,-710c-61,-187 -192,-413 -352,-603c-117,-140 -337,-349 -523,-498l-164,-131l-235,6c-746,19 -990,-141 -1205,-789c-49,-148 -53,-164 -38,-175c9,-7 25,-13 34,-13c10,0 29,-4 43,-10c25,-9 25,-10 11,-50c-8,-22 -12,-47 -9,-54c11,-29 184,-51 394,-50c243,1 371,21 602,96l98,32l122,-28c397,-91 779,-232 1013,-376c185,-113 348,-270 409,-393c81,-165 124,-350 133,-577c21,-525 -169,-972 -578,-1364c-553,-530 -1309,-785 -2157,-727c-388,27 -635,95 -809,224c-89,66 -112,105 -125,213c-10,77 -8,113 11,264c33,258 54,369 511,2660c451,2266 450,2259 450,2338c0,76 -27,185 -57,229c-14,21 -42,68 -60,105c-38,74 -74,110 -143,142c-63,30 -244,28 -388,-3c-171,-36 -714,-209 -740,-236c-4,-3 1,-18 11,-33c9,-15 33,-59 52,-98c90,-179 81,-264 -140,-1374c-824,-4139 -790,-3958 -789,-4225c1,-172 18,-255 78,-374c56,-111 162,-269 219,-325c173,-172 456,-281 852,-328c142,-17 723,-16 940,1c676,52 1254,173 1786,372c793,297 1473,757 1894,1279c446,554 614,1288 428,1868c-30,97 -141,321 -222,452c-278,448 -783,813 -1443,1045l-107,37l162,114c321,224 611,479 804,709c320,378 483,781 483,1188c0,228 -34,354 -153,572c-77,142 -134,223 -221,314c-312,326 -812,532 -1461,601c-102,11 -606,20 -750,14z" fill="#ff7f00" id="svg_2"/>
  </g>
 </g>
</svg>