<!DOCTYPE svg PUBLIC "-//W3C//DTD SVG 1.1//EN" "http://www.w3.org/Graphics/SVG/1.1/DTD/svg11.dtd">
<!-- Uploaded to: SVG Repo, www.svgrepo.com, Transformed by: SVG Repo Mixer Tools -->
<svg height="185px" width="185px" version="1.1" id="Layer_1" xmlns="http://www.w3.org/2000/svg" xmlns:xlink="http://www.w3.org/1999/xlink" viewBox="0 0 512.001 512.001" xml:space="preserve" fill="#dda50e" stroke="#dda50e" transform="rotate(45)">
<g id="SVGRepo_bgCarrier" stroke-width="0"/>
<g id="SVGRepo_tracerCarrier" stroke-linecap="round" stroke-linejoin="round"/>
<g id="SVGRepo_iconCarrier"> <path style="fill:#ffcb0f;" d="M411.813,212.139c-11.026-22.588-27.216-42.088-46.209-58.554 c-14.589-12.644-35.218-38.233-45.731-86.573C302.56-12.608,256.19,0.861,256.19,0.861s-46.373-13.469-63.687,66.152 c-10.512,48.34-31.142,73.929-45.731,86.573c-18.993,16.463-35.186,35.966-46.209,58.554 c-20.922,42.864-40.739,111.128-13.725,189.985c0,0,64.823,165.924,169.352,89.064c104.529,76.86,169.348-89.064,169.348-89.064 C452.553,323.268,432.732,255.007,411.813,212.139z"/> <path style="fill:#ffcb0f;" d="M349.558,171.567c-12.843-11.655-36.689-42.02-45.943-86.579 c-15.244-73.39-47.426-64.293-47.426-64.293s-0.048-0.013-0.135-0.035h-0.902c-0.083,0.022-0.135,0.035-0.135,0.035 s-32.188-9.097-47.429,64.293c-9.254,44.556-33.1,74.924-45.943,86.579C147.1,184.769,90.44,233.835,97.916,339.359 c2.619,37.003,14.245,73.066,35.726,103.312c25.255,35.568,66.909,68.588,121.374,22.209l0,0v0.867 c0.196-0.148,0.392-0.292,0.584-0.433c0.196,0.141,0.392,0.286,0.587,0.433v-0.867l0,0c54.468,46.379,96.119,13.359,121.374-22.209 c21.477-30.246,33.103-66.306,35.726-103.312C420.763,233.835,364.102,184.769,349.558,171.567z"/> <path style="fill:#F27B2C;" d="M334.536,186.393c-11.173-10.891-40.598-42.447-45.057-84.621 c-7.065-66.896-27.701-65.51-33.074-66.797v-0.1c-0.055,0.01-0.132,0.039-0.189,0.051c-0.035-0.006-0.08-0.022-0.116-0.032v0.064 c-5.37,1.287-26.696-0.08-33.074,66.797c-4.025,42.216-33.883,73.73-45.057,84.621c-12.66,12.335-63.343,47.503-56.84,146.109 c2.282,34.577,12.4,68.274,31.094,96.536c21.702,32.818,61.276,53.309,103.964,15.539c42.129,37.774,82.387,17.304,104.092-15.52 c18.694-28.266,28.815-61.96,31.094-96.536C397.883,233.896,347.199,198.729,334.536,186.393z"/> <path style="fill:#ffcb0f;" d="M277.115,139.761c-15.905-63.61-8.49-117.509-8.49-117.509l-12.573-1.592l-0.157,131.18 l-0.157-131.504l-12.573,1.595c0,0,7.415,53.9-8.487,117.509c-15.712,62.846-97.595,127.014,13.016,252.503 c2.244,2.545,5.717,3.74,9.106,3.852l4.07-2.305c4.06,0.135,3.955,0.761,6.638-2.285 C376.788,267.153,292.789,202.465,277.115,139.761z"/> <path style="fill:#ffcb0f;" d="M256.742,376.089c0,0,108.275-92.765-1.14-218.661C255.603,157.431,152.987,266.453,256.742,376.089z "/> <g> <circle style="fill:#A05F32;" cx="234.322" cy="213.327" r="10.56"/> <circle style="fill:#A05F32;" cx="256.181" cy="213.327" r="10.56"/> <circle style="fill:#A05F32;" cx="244.882" cy="256.243" r="10.56"/> <circle style="fill:#A05F32;" cx="268.635" cy="234.576" r="10.557"/> <circle style="fill:#A05F32;" cx="289.756" cy="233.292" r="10.56"/> <circle style="fill:#A05F32;" cx="268.635" cy="191.651" r="10.557"/> <circle style="fill:#A05F32;" cx="227.709" cy="234.641" r="10.56"/> <circle style="fill:#A05F32;" cx="223.761" cy="277.588" r="10.56"/> <circle style="fill:#A05F32;" cx="227.709" cy="299.255" r="10.56"/> <circle style="fill:#A05F32;" cx="268.635" cy="277.588" r="10.557"/> <circle style="fill:#A05F32;" cx="257.432" cy="320.376" r="10.56"/> <circle style="fill:#A05F32;" cx="266.741" cy="256.243" r="10.557"/> <circle style="fill:#A05F32;" cx="256.181" cy="173.525" r="10.56"/> <circle style="fill:#A05F32;" cx="248.83" cy="299.255" r="10.56"/> <circle style="fill:#A05F32;" cx="289.756" cy="277.588" r="10.56"/> <circle style="fill:#A05F32;" cx="289.756" cy="299.255" r="10.56"/> <circle style="fill:#A05F32;" cx="259.391" cy="356.872" r="10.56"/> <circle style="fill:#A05F32;" cx="279.205" cy="320.376" r="10.56"/> <circle style="fill:#A05F32;" cx="246.872" cy="338.993" r="10.56"/> </g> <path style="opacity:0.1;enable-background:new ;" d="M152.037,171.05c0,0-96.019,86.075-34.455,222.635 c35.244,78.176,105.707,98.632,176.423,93.593c-56.577-4.494-108.695-29.884-137.417-93.593 C95.024,257.129,191.043,171.05,191.043,171.05s50.356-26.504,50.356-95.416c0-36.743,13.555-60.576,26.215-74.915 c-7.033-0.735-11.803,0.632-11.803,0.632s-17.503-5.049-35.016,9.492c-9.851,14.63-18.405,35.642-18.405,64.791 C202.396,144.546,152.037,171.05,152.037,171.05z"/> <path style="opacity:0.2;enable-background:new ;" d="M294.006,487.278c-70.716,5.036-141.179-15.417-176.423-93.593 C56.018,257.129,152.037,171.05,152.037,171.05s50.356-26.504,50.356-95.416c0-29.149,8.554-50.16,18.405-64.791 c-10.994,9.129-21.994,25.955-28.67,56.66c-10.512,48.34-31.142,73.929-45.731,86.573c-18.993,16.463-35.186,35.966-46.209,58.554 c-20.922,42.864-40.739,111.128-13.725,189.985c0,0,64.823,165.924,169.352,89.064c49.079,36.088,89.401,18.652,118.373-9.999 C347.767,486.922,320.407,489.374,294.006,487.278z"/> <g style="opacity:0.3;"> <circle style="fill:#FFFFFF;" cx="378.348" cy="211.799" r="21.394"/> <circle style="fill:#FFFFFF;" cx="403.705" cy="257.784" r="10.698"/> </g> </g>
</svg>